<svg width="670" height="379" viewBox="0 0 670 379" fill="none" xmlns="http://www.w3.org/2000/svg">
<path d="M86.755 253.156V218.422L174.083 80.4688H204.177V128.844H186.318L131.193 216.031V217.719H255.646V253.156H86.755ZM187.161 290V242.609L188.005 227V80.4688H229.63V290H187.161ZM355 292.812C337.188 292.812 321.953 288.594 309.297 280.156C296.734 271.625 287.078 259.391 280.328 243.453C273.672 227.422 270.344 208.062 270.344 185.375C270.344 162.781 273.719 143.469 280.469 127.438C287.219 111.312 296.875 98.9844 309.438 90.4531C322.094 81.9219 337.281 77.6562 355 77.6562C372.812 77.6562 388 81.9219 400.562 90.4531C413.219 98.9844 422.875 111.266 429.531 127.297C436.281 143.328 439.656 162.688 439.656 185.375C439.656 208.062 436.328 227.422 429.672 243.453C423.016 259.391 413.359 271.625 400.703 280.156C388.141 288.594 372.906 292.812 355 292.812ZM355 256.25C363.531 256.25 370.703 253.531 376.516 248.094C382.422 242.562 386.875 234.5 389.875 223.906C392.969 213.312 394.516 200.469 394.516 185.375C394.516 170.188 392.969 157.297 389.875 146.703C386.875 136.109 382.422 128.047 376.516 122.516C370.703 116.891 363.531 114.078 355 114.078C342.344 114.078 332.594 120.312 325.75 132.781C318.906 145.156 315.484 162.688 315.484 185.375C315.484 200.469 316.984 213.312 319.984 223.906C323.078 234.5 327.578 242.562 333.484 248.094C339.391 253.531 346.562 256.25 355 256.25ZM455.62 253.156V218.422L542.948 80.4688H573.042V128.844H555.182L500.057 216.031V217.719H624.511V253.156H455.62ZM556.026 290V242.609L556.87 227V80.4688H598.495V290H556.026Z" fill="#030712"/>
<mask id="path-2-outside-1_1008_5" maskUnits="userSpaceOnUse" x="84.5" y="75" width="543" height="220" fill="black">
<rect fill="white" x="84.5" y="75" width="543" height="220"/>
<path d="M86.755 253.156V218.422L174.083 80.4688H204.177V128.844H186.318L131.193 216.031V217.719H255.646V253.156H86.755ZM187.161 290V242.609L188.005 227V80.4688H229.63V290H187.161ZM355 292.812C337.188 292.812 321.953 288.594 309.297 280.156C296.734 271.625 287.078 259.391 280.328 243.453C273.672 227.422 270.344 208.062 270.344 185.375C270.344 162.781 273.719 143.469 280.469 127.438C287.219 111.312 296.875 98.9844 309.438 90.4531C322.094 81.9219 337.281 77.6562 355 77.6562C372.812 77.6562 388 81.9219 400.562 90.4531C413.219 98.9844 422.875 111.266 429.531 127.297C436.281 143.328 439.656 162.688 439.656 185.375C439.656 208.062 436.328 227.422 429.672 243.453C423.016 259.391 413.359 271.625 400.703 280.156C388.141 288.594 372.906 292.812 355 292.812ZM355 256.25C363.531 256.25 370.703 253.531 376.516 248.094C382.422 242.562 386.875 234.5 389.875 223.906C392.969 213.312 394.516 200.469 394.516 185.375C394.516 170.188 392.969 157.297 389.875 146.703C386.875 136.109 382.422 128.047 376.516 122.516C370.703 116.891 363.531 114.078 355 114.078C342.344 114.078 332.594 120.312 325.75 132.781C318.906 145.156 315.484 162.688 315.484 185.375C315.484 200.469 316.984 213.312 319.984 223.906C323.078 234.5 327.578 242.562 333.484 248.094C339.391 253.531 346.562 256.25 355 256.25ZM455.62 253.156V218.422L542.948 80.4688H573.042V128.844H555.182L500.057 216.031V217.719H624.511V253.156H455.62ZM556.026 290V242.609L556.87 227V80.4688H598.495V290H556.026Z"/>
</mask>
<path d="M86.755 253.156H84.755V255.156H86.755V253.156ZM86.755 218.422L85.0651 217.352L84.755 217.842V218.422H86.755ZM174.083 80.4688V78.4688H172.982L172.393 79.399L174.083 80.4688ZM204.177 80.4688H206.177V78.4688H204.177V80.4688ZM204.177 128.844V130.844H206.177V128.844H204.177ZM186.318 128.844V126.844H185.216L184.627 127.775L186.318 128.844ZM131.193 216.031L129.502 214.962L129.193 215.452V216.031H131.193ZM131.193 217.719H129.193V219.719H131.193V217.719ZM255.646 217.719H257.646V215.719H255.646V217.719ZM255.646 253.156V255.156H257.646V253.156H255.646ZM187.161 290H185.161V292H187.161V290ZM187.161 242.609L185.164 242.501L185.161 242.555V242.609H187.161ZM188.005 227L190.002 227.108L190.005 227.054V227H188.005ZM188.005 80.4688V78.4688H186.005V80.4688H188.005ZM229.63 80.4688H231.63V78.4688H229.63V80.4688ZM229.63 290V292H231.63V290H229.63ZM86.755 253.156H88.755V218.422H86.755H84.755V253.156H86.755ZM86.755 218.422L88.4449 219.492L175.773 81.5385L174.083 80.4688L172.393 79.399L85.0651 217.352L86.755 218.422ZM174.083 80.4688V82.4688H204.177V80.4688V78.4688H174.083V80.4688ZM204.177 80.4688H202.177V128.844H204.177H206.177V80.4688H204.177ZM204.177 128.844V126.844H186.318V128.844V130.844H204.177V128.844ZM186.318 128.844L184.627 127.775L129.502 214.962L131.193 216.031L132.883 217.1L188.008 129.913L186.318 128.844ZM131.193 216.031H129.193V217.719H131.193H133.193V216.031H131.193ZM131.193 217.719V219.719H255.646V217.719V215.719H131.193V217.719ZM255.646 217.719H253.646V253.156H255.646H257.646V217.719H255.646ZM255.646 253.156V251.156H86.755V253.156V255.156H255.646V253.156ZM187.161 290H189.161V242.609H187.161H185.161V290H187.161ZM187.161 242.609L189.158 242.717L190.002 227.108L188.005 227L186.008 226.892L185.164 242.501L187.161 242.609ZM188.005 227H190.005V80.4688H188.005H186.005V227H188.005ZM188.005 80.4688V82.4688H229.63V80.4688V78.4688H188.005V80.4688ZM229.63 80.4688H227.63V290H229.63H231.63V80.4688H229.63ZM229.63 290V288H187.161V290V292H229.63V290ZM309.297 280.156L308.173 281.811L308.18 281.816L308.187 281.82L309.297 280.156ZM280.328 243.453L278.481 244.22L278.484 244.227L278.486 244.233L280.328 243.453ZM280.469 127.438L282.312 128.214L282.314 128.21L280.469 127.438ZM309.438 90.4531L308.32 88.7947L308.314 88.7986L309.438 90.4531ZM400.562 90.4531L399.439 92.1077L399.445 92.1115L400.562 90.4531ZM429.531 127.297L427.684 128.064L427.688 128.073L429.531 127.297ZM429.672 243.453L431.517 244.224L431.519 244.22L429.672 243.453ZM400.703 280.156L401.818 281.817L401.821 281.815L400.703 280.156ZM376.516 248.094L377.882 249.554L377.883 249.554L376.516 248.094ZM389.875 223.906L387.955 223.346L387.953 223.353L387.951 223.361L389.875 223.906ZM389.875 146.703L387.951 147.248L387.953 147.256L387.955 147.264L389.875 146.703ZM376.516 122.516L375.125 123.953L375.137 123.964L375.149 123.975L376.516 122.516ZM325.75 132.781L327.5 133.749L327.503 133.744L325.75 132.781ZM319.984 223.906L318.06 224.451L318.062 224.459L318.065 224.467L319.984 223.906ZM333.484 248.094L332.117 249.554L332.123 249.559L332.13 249.565L333.484 248.094ZM355 292.812V290.812C337.513 290.812 322.681 286.675 310.406 278.492L309.297 280.156L308.187 281.82C321.225 290.512 336.862 294.812 355 294.812V292.812ZM309.297 280.156L310.42 278.502C298.219 270.216 288.791 258.307 282.17 242.673L280.328 243.453L278.486 244.233C285.365 260.474 295.249 273.034 308.173 281.811L309.297 280.156ZM280.328 243.453L282.175 242.686C275.646 226.96 272.344 207.876 272.344 185.375H270.344H268.344C268.344 208.249 271.698 227.884 278.481 244.22L280.328 243.453ZM270.344 185.375H272.344C272.344 162.972 275.691 143.938 282.312 128.214L280.469 127.438L278.625 126.661C271.746 143 268.344 162.591 268.344 185.375H270.344ZM280.469 127.438L282.314 128.21C288.937 112.387 298.366 100.39 310.561 92.1077L309.438 90.4531L308.314 88.7986C295.384 97.5792 285.5 110.238 278.624 126.665L280.469 127.438ZM309.438 90.4531L310.555 92.1115C322.831 83.8371 337.614 79.6562 355 79.6562V77.6562V75.6562C336.949 75.6562 321.357 80.0067 308.32 88.7947L309.438 90.4531ZM355 77.6562V79.6562C372.483 79.6562 387.262 83.8383 399.439 92.1077L400.562 90.4531L401.686 88.7986C388.738 80.0054 373.142 75.6562 355 75.6562V77.6562ZM400.562 90.4531L399.445 92.1115C411.732 100.394 421.157 112.344 427.684 128.064L429.531 127.297L431.378 126.53C424.593 110.188 414.705 97.5743 401.68 88.7947L400.562 90.4531ZM429.531 127.297L427.688 128.073C434.308 143.796 437.656 162.877 437.656 185.375H439.656H441.656C441.656 162.498 438.254 142.86 431.375 126.521L429.531 127.297ZM439.656 185.375H437.656C437.656 207.876 434.354 226.96 427.825 242.686L429.672 243.453L431.519 244.22C438.302 227.884 441.656 208.249 441.656 185.375H439.656ZM429.672 243.453L427.826 242.682C421.3 258.308 411.876 270.213 399.585 278.498L400.703 280.156L401.821 281.815C414.843 273.037 424.731 260.473 431.517 244.224L429.672 243.453ZM400.703 280.156L399.588 278.496C387.412 286.674 372.583 290.812 355 290.812V292.812V294.812C373.229 294.812 388.869 290.514 401.818 281.817L400.703 280.156ZM355 256.25V258.25C363.999 258.25 371.671 255.365 377.882 249.554L376.516 248.094L375.149 246.633C369.736 251.698 363.064 254.25 355 254.25V256.25ZM376.516 248.094L377.883 249.554C384.134 243.7 388.735 235.273 391.799 224.451L389.875 223.906L387.951 223.361C385.015 233.727 380.71 241.425 375.149 246.634L376.516 248.094ZM389.875 223.906L391.795 224.467C394.957 213.638 396.516 200.594 396.516 185.375H394.516H392.516C392.516 200.343 390.98 212.987 387.955 223.346L389.875 223.906ZM394.516 185.375H396.516C396.516 170.064 394.957 156.972 391.795 146.142L389.875 146.703L387.955 147.264C390.98 157.621 392.516 170.311 392.516 185.375H394.516ZM389.875 146.703L391.799 146.158C388.735 135.336 384.134 126.91 377.883 121.056L376.516 122.516L375.149 123.975C380.71 129.184 385.015 136.883 387.951 147.248L389.875 146.703ZM376.516 122.516L377.906 121.078C371.699 115.071 364.019 112.078 355 112.078V114.078V116.078C363.044 116.078 369.707 118.71 375.125 123.953L376.516 122.516ZM355 114.078V112.078C341.51 112.078 331.139 118.807 323.997 131.819L325.75 132.781L327.503 133.744C334.049 121.818 343.178 116.078 355 116.078V114.078ZM325.75 132.781L324 131.813C316.922 144.612 313.484 162.533 313.484 185.375H315.484H317.484C317.484 162.842 320.891 145.7 327.5 133.749L325.75 132.781ZM315.484 185.375H313.484C313.484 200.59 314.995 213.628 318.06 224.451L319.984 223.906L321.909 223.361C318.974 212.997 317.484 200.348 317.484 185.375H315.484ZM319.984 223.906L318.065 224.467C321.224 235.284 325.871 243.704 332.117 249.554L333.484 248.094L334.851 246.634C329.285 241.421 324.933 233.716 321.904 223.346L319.984 223.906ZM333.484 248.094L332.13 249.565C338.425 255.361 346.089 258.25 355 258.25V256.25V254.25C347.036 254.25 340.356 251.701 334.839 246.622L333.484 248.094ZM455.62 253.156H453.62V255.156H455.62V253.156ZM455.62 218.422L453.93 217.352L453.62 217.842V218.422H455.62ZM542.948 80.4688V78.4688H541.847L541.258 79.399L542.948 80.4688ZM573.042 80.4688H575.042V78.4688H573.042V80.4688ZM573.042 128.844V130.844H575.042V128.844H573.042ZM555.182 128.844V126.844H554.081L553.492 127.775L555.182 128.844ZM500.057 216.031L498.367 214.962L498.057 215.452V216.031H500.057ZM500.057 217.719H498.057V219.719H500.057V217.719ZM624.511 217.719H626.511V215.719H624.511V217.719ZM624.511 253.156V255.156H626.511V253.156H624.511ZM556.026 290H554.026V292H556.026V290ZM556.026 242.609L554.029 242.501L554.026 242.555V242.609H556.026ZM556.87 227L558.867 227.108L558.87 227.054V227H556.87ZM556.87 80.4688V78.4688H554.87V80.4688H556.87ZM598.495 80.4688H600.495V78.4688H598.495V80.4688ZM598.495 290V292H600.495V290H598.495ZM455.62 253.156H457.62V218.422H455.62H453.62V253.156H455.62ZM455.62 218.422L457.31 219.492L544.638 81.5385L542.948 80.4688L541.258 79.399L453.93 217.352L455.62 218.422ZM542.948 80.4688V82.4688H573.042V80.4688V78.4688H542.948V80.4688ZM573.042 80.4688H571.042V128.844H573.042H575.042V80.4688H573.042ZM573.042 128.844V126.844H555.182V128.844V130.844H573.042V128.844ZM555.182 128.844L553.492 127.775L498.367 214.962L500.057 216.031L501.748 217.1L556.873 129.913L555.182 128.844ZM500.057 216.031H498.057V217.719H500.057H502.057V216.031H500.057ZM500.057 217.719V219.719H624.511V217.719V215.719H500.057V217.719ZM624.511 217.719H622.511V253.156H624.511H626.511V217.719H624.511ZM624.511 253.156V251.156H455.62V253.156V255.156H624.511V253.156ZM556.026 290H558.026V242.609H556.026H554.026V290H556.026ZM556.026 242.609L558.023 242.717L558.867 227.108L556.87 227L554.873 226.892L554.029 242.501L556.026 242.609ZM556.87 227H558.87V80.4688H556.87H554.87V227H556.87ZM556.87 80.4688V82.4688H598.495V80.4688V78.4688H556.87V80.4688ZM598.495 80.4688H596.495V290H598.495H600.495V80.4688H598.495ZM598.495 290V288H556.026V290V292H598.495V290Z" fill="white" mask="url(#path-2-outside-1_1008_5)"/>
<rect x="170" y="78.5" width="7" height="7" fill="white" stroke="#030712"/>
<rect x="225" y="78.5" width="7" height="7" fill="white" stroke="#030712"/>
<rect x="84" y="215.5" width="7" height="7" fill="white" stroke="#030712"/>
<rect x="452" y="215.5" width="7" height="7" fill="white" stroke="#030712"/>
<rect x="83" y="249.5" width="7" height="7" fill="white" stroke="#030712"/>
<rect x="451" y="249.5" width="7" height="7" fill="white" stroke="#030712"/>
<rect x="128" y="213.5" width="7" height="7" fill="white" stroke="#030712"/>
<rect x="496" y="213.5" width="7" height="7" fill="white" stroke="#030712"/>
<rect x="184" y="213.5" width="7" height="7" fill="white" stroke="#030712"/>
<rect x="183" y="125.5" width="7" height="7" fill="white" stroke="#030712"/>
<rect x="226" y="213.5" width="7" height="7" fill="white" stroke="#030712"/>
<rect x="252" y="213.5" width="7" height="7" fill="white" stroke="#030712"/>
<rect x="311" y="185.5" width="7" height="7" fill="white" stroke="#030712"/>
<rect x="319" y="227.5" width="7" height="7" fill="white" stroke="#030712"/>
<rect x="315" y="144.5" width="7" height="7" fill="white" stroke="#030712"/>
<rect x="352" y="110.5" width="7" height="7" fill="white" stroke="#030712"/>
<rect x="352" y="74.5" width="7" height="7" fill="white" stroke="#030712"/>
<rect x="406" y="95.5" width="7" height="7" fill="white" stroke="#030712"/>
<rect x="295" y="95.5" width="7" height="7" fill="white" stroke="#030712"/>
<rect x="430" y="136.5" width="7" height="7" fill="white" stroke="#030712"/>
<rect x="273" y="136.5" width="7" height="7" fill="white" stroke="#030712"/>
<rect x="436" y="185.5" width="7" height="7" fill="white" stroke="#030712"/>
<rect x="267" y="181.5" width="7" height="7" fill="white" stroke="#030712"/>
<rect x="426" y="241.5" width="7" height="7" fill="white" stroke="#030712"/>
<rect x="277" y="241.5" width="7" height="7" fill="white" stroke="#030712"/>
<rect x="394" y="278.5" width="7" height="7" fill="white" stroke="#030712"/>
<rect x="352" y="290.5" width="7" height="7" fill="white" stroke="#030712"/>
<rect x="303" y="274.5" width="7" height="7" fill="white" stroke="#030712"/>
<rect x="386" y="144.5" width="7" height="7" fill="white" stroke="#030712"/>
<rect x="386" y="227.5" width="7" height="7" fill="white" stroke="#030712"/>
<rect x="352" y="253.5" width="7" height="7" fill="white" stroke="#030712"/>
<rect x="390" y="185.5" width="7" height="7" fill="white" stroke="#030712"/>
<rect x="252" y="249.5" width="7" height="7" fill="white" stroke="#030712"/>
<rect x="226" y="249.5" width="7" height="7" fill="white" stroke="#030712"/>
<rect x="226" y="286.5" width="7" height="7" fill="white" stroke="#030712"/>
<rect x="184" y="286.5" width="7" height="7" fill="white" stroke="#030712"/>
<rect x="184" y="249.5" width="7" height="7" fill="white" stroke="#030712"/>
<rect x="44" y="31.5" width="484" height="309" fill="#1B1D1E" fill-opacity="0.05" stroke="#030712"/>
<rect x="38" y="26.5" width="11" height="11" fill="white" stroke="#030712"/>
<rect x="523" y="26.5" width="11" height="11" fill="white" stroke="#030712"/>
<rect x="523" y="335.5" width="11" height="11" fill="white" stroke="#030712"/>
<rect x="38" y="335.5" width="11" height="11" fill="white" stroke="#030712"/>
<g filter="url(#filter0_d_1008_5)">
<path d="M541.785 366.133C541.318 365.533 540.735 364.317 539.718 362.8C539.135 361.967 537.701 360.383 537.268 359.567C536.956 359.07 536.865 358.466 537.018 357.9C537.28 356.824 538.301 356.11 539.401 356.233C540.253 356.404 541.035 356.822 541.651 357.433C542.082 357.839 542.478 358.279 542.835 358.75C543.101 359.083 543.168 359.217 543.468 359.6C543.768 359.983 543.968 360.367 543.818 359.8C543.701 358.967 543.501 357.567 543.218 356.317C543.001 355.367 542.951 355.217 542.751 354.5C542.551 353.783 542.435 353.183 542.218 352.367C542.02 351.564 541.864 350.752 541.751 349.933C541.541 348.886 541.694 347.799 542.185 346.85C542.767 346.302 543.621 346.158 544.351 346.483C545.086 347.026 545.633 347.783 545.918 348.65C546.355 349.717 546.646 350.838 546.785 351.983C547.051 353.65 547.568 356.083 547.585 356.583C547.585 355.967 547.468 354.667 547.585 354.083C547.7 353.475 548.123 352.971 548.701 352.75C549.198 352.598 549.723 352.563 550.235 352.65C550.751 352.758 551.209 353.055 551.518 353.483C551.904 354.456 552.119 355.488 552.151 356.533C552.196 355.618 552.353 354.711 552.618 353.833C552.897 353.441 553.303 353.158 553.768 353.033C554.319 352.933 554.884 352.933 555.435 353.033C555.887 353.184 556.282 353.469 556.568 353.85C556.921 354.734 557.135 355.667 557.201 356.617C557.201 356.85 557.318 355.967 557.685 355.383C557.875 354.818 558.353 354.397 558.938 354.279C559.523 354.161 560.127 354.364 560.522 354.812C560.916 355.26 561.042 355.884 560.851 356.45C560.851 357.533 560.851 357.483 560.851 358.217C560.851 358.95 560.851 359.6 560.851 360.217C560.791 361.192 560.657 362.161 560.451 363.117C560.161 363.962 559.758 364.764 559.251 365.5C558.442 366.4 557.774 367.417 557.268 368.517C557.143 369.063 557.087 369.623 557.101 370.183C557.1 370.701 557.167 371.217 557.301 371.717C556.62 371.789 555.933 371.789 555.251 371.717C554.601 371.617 553.801 370.317 553.585 369.917C553.478 369.702 553.258 369.566 553.018 369.566C552.778 369.566 552.559 369.702 552.451 369.917C552.085 370.55 551.268 371.7 550.701 371.767C549.585 371.9 547.285 371.767 545.468 371.767C545.468 371.767 545.768 370.1 545.085 369.5C544.401 368.9 543.701 368.2 543.185 367.733L541.785 366.133Z" fill="white"/>
<path fill-rule="evenodd" clip-rule="evenodd" d="M541.785 366.133C541.318 365.533 540.735 364.317 539.718 362.8C539.135 361.967 537.701 360.383 537.268 359.567C536.956 359.07 536.865 358.466 537.018 357.9C537.28 356.824 538.301 356.11 539.401 356.233C540.253 356.404 541.035 356.822 541.651 357.433C542.082 357.839 542.478 358.279 542.835 358.75C543.101 359.083 543.168 359.217 543.468 359.6C543.768 359.983 543.968 360.367 543.818 359.8C543.701 358.967 543.501 357.567 543.218 356.317C543.001 355.367 542.951 355.217 542.751 354.5C542.551 353.783 542.435 353.183 542.218 352.367C542.02 351.564 541.864 350.752 541.751 349.933C541.541 348.886 541.694 347.799 542.185 346.85C542.767 346.302 543.621 346.158 544.351 346.483C545.086 347.026 545.633 347.783 545.918 348.65C546.355 349.717 546.646 350.838 546.785 351.983C547.051 353.65 547.568 356.083 547.585 356.583C547.585 355.967 547.468 354.667 547.585 354.083C547.7 353.475 548.123 352.971 548.701 352.75C549.198 352.598 549.723 352.563 550.235 352.65C550.751 352.758 551.209 353.055 551.518 353.483C551.904 354.456 552.119 355.488 552.151 356.533C552.196 355.618 552.353 354.711 552.618 353.833C552.897 353.441 553.303 353.158 553.768 353.033C554.319 352.933 554.884 352.933 555.435 353.033C555.887 353.184 556.282 353.469 556.568 353.85C556.921 354.734 557.135 355.667 557.201 356.617C557.201 356.85 557.318 355.967 557.685 355.383C557.875 354.818 558.353 354.397 558.938 354.279C559.523 354.161 560.127 354.364 560.522 354.812C560.916 355.26 561.042 355.884 560.851 356.45C560.851 357.533 560.851 357.483 560.851 358.217C560.851 358.95 560.851 359.6 560.851 360.217C560.791 361.192 560.657 362.161 560.451 363.117C560.161 363.962 559.758 364.764 559.251 365.5C558.442 366.4 557.774 367.417 557.268 368.517C557.143 369.063 557.087 369.623 557.101 370.183C557.1 370.701 557.167 371.217 557.301 371.717C556.62 371.789 555.933 371.789 555.251 371.717C554.601 371.617 553.801 370.317 553.585 369.917C553.478 369.702 553.258 369.566 553.018 369.566C552.778 369.566 552.559 369.702 552.451 369.917C552.085 370.55 551.268 371.7 550.701 371.767C549.585 371.9 547.285 371.767 545.468 371.767C545.468 371.767 545.768 370.1 545.085 369.5C544.401 368.9 543.701 368.2 543.185 367.733L541.785 366.133Z" stroke="#030712" stroke-width="1.25" stroke-linecap="round" stroke-linejoin="round"/>
<path d="M555.918 367.043V361.29C555.918 360.946 555.638 360.667 555.293 360.667C554.948 360.667 554.668 360.946 554.668 361.29V367.043C554.668 367.388 554.948 367.667 555.293 367.667C555.638 367.667 555.918 367.388 555.918 367.043Z" fill="#030712"/>
<path d="M552.615 367.041L552.582 361.285C552.58 360.942 552.299 360.665 551.953 360.667C551.608 360.669 551.33 360.949 551.332 361.292L551.365 367.048C551.367 367.392 551.649 367.669 551.994 367.667C552.339 367.665 552.617 367.385 552.615 367.041Z" fill="#030712"/>
<path d="M548 361.298L548.033 367.042C548.035 367.389 548.317 367.669 548.662 367.667C549.007 367.665 549.285 367.382 549.283 367.035L549.25 361.291C549.248 360.944 548.967 360.665 548.621 360.667C548.276 360.669 547.998 360.952 548 361.298Z" fill="#030712"/>
</g>
<defs>
<filter id="filter0_d_1008_5" x="534.987" y="345.686" width="27.9102" height="29.7646" filterUnits="userSpaceOnUse" color-interpolation-filters="sRGB">
<feFlood flood-opacity="0" result="BackgroundImageFix"/>
<feColorMatrix in="SourceAlpha" type="matrix" values="0 0 0 0 0 0 0 0 0 0 0 0 0 0 0 0 0 0 127 0" result="hardAlpha"/>
<feOffset dy="1.66667"/>
<feGaussianBlur stdDeviation="0.666667"/>
<feColorMatrix type="matrix" values="0 0 0 0 0 0 0 0 0 0 0 0 0 0 0 0 0 0 0.5 0"/>
<feBlend mode="normal" in2="BackgroundImageFix" result="effect1_dropShadow_1008_5"/>
<feBlend mode="normal" in="SourceGraphic" in2="effect1_dropShadow_1008_5" result="shape"/>
</filter>
</defs>
</svg>
