<svg width="184" height="50" viewBox="0 0 184 50" fill="none" xmlns="http://www.w3.org/2000/svg">
<circle cx="25" cy="25" r="25" fill="#FCEA4E"/>
<path d="M31.624 33.336C30.072 33.336 28.8 33 27.808 32.328C26.816 31.656 26.216 30.696 26.008 29.448L28.792 28.728C28.904 29.288 29.088 29.728 29.344 30.048C29.616 30.368 29.944 30.6 30.328 30.744C30.728 30.872 31.16 30.936 31.624 30.936C32.328 30.936 32.848 30.816 33.184 30.576C33.52 30.32 33.688 30.008 33.688 29.64C33.688 29.272 33.528 28.992 33.208 28.8C32.888 28.592 32.376 28.424 31.672 28.296L31 28.176C30.168 28.016 29.408 27.8 28.72 27.528C28.032 27.24 27.48 26.848 27.064 26.352C26.648 25.856 26.44 25.216 26.44 24.432C26.44 23.248 26.872 22.344 27.736 21.72C28.6 21.08 29.736 20.76 31.144 20.76C32.472 20.76 33.576 21.056 34.456 21.648C35.336 22.24 35.912 23.016 36.184 23.976L33.376 24.84C33.248 24.232 32.984 23.8 32.584 23.544C32.2 23.288 31.72 23.16 31.144 23.16C30.568 23.16 30.128 23.264 29.824 23.472C29.52 23.664 29.368 23.936 29.368 24.288C29.368 24.672 29.528 24.96 29.848 25.152C30.168 25.328 30.6 25.464 31.144 25.56L31.816 25.68C32.712 25.84 33.52 26.056 34.24 26.328C34.976 26.584 35.552 26.96 35.968 27.456C36.4 27.936 36.616 28.592 36.616 29.424C36.616 30.672 36.16 31.64 35.248 32.328C34.352 33 33.144 33.336 31.624 33.336ZM38.3059 33V16.2H41.3299V22.56H41.7619C41.8899 22.304 42.0899 22.048 42.3619 21.792C42.6339 21.536 42.9939 21.328 43.4419 21.168C43.9059 20.992 44.4899 20.904 45.1939 20.904C46.1219 20.904 46.9299 21.12 47.6179 21.552C48.3219 21.968 48.8659 22.552 49.2499 23.304C49.6339 24.04 49.8259 24.904 49.8259 25.896V33H46.8019V26.136C46.8019 25.24 46.5779 24.568 46.1299 24.12C45.6979 23.672 45.0739 23.448 44.2579 23.448C43.3299 23.448 42.6099 23.76 42.0979 24.384C41.5859 24.992 41.3299 25.848 41.3299 26.952V33H38.3059ZM55.831 33.336C54.983 33.336 54.223 33.192 53.551 32.904C52.879 32.6 52.343 32.168 51.943 31.608C51.559 31.032 51.367 30.336 51.367 29.52C51.367 28.704 51.559 28.024 51.943 27.48C52.343 26.92 52.887 26.504 53.575 26.232C54.279 25.944 55.079 25.8 55.975 25.8H59.239V25.128C59.239 24.568 59.063 24.112 58.711 23.76C58.359 23.392 57.799 23.208 57.031 23.208C56.279 23.208 55.719 23.384 55.351 23.736C54.983 24.072 54.743 24.512 54.631 25.056L51.847 24.12C52.039 23.512 52.343 22.96 52.759 22.464C53.191 21.952 53.759 21.544 54.463 21.24C55.183 20.92 56.055 20.76 57.079 20.76C58.647 20.76 59.887 21.152 60.799 21.936C61.711 22.72 62.167 23.856 62.167 25.344V29.784C62.167 30.264 62.391 30.504 62.839 30.504H63.799V33H61.783C61.191 33 60.703 32.856 60.319 32.568C59.935 32.28 59.743 31.896 59.743 31.416V31.392H59.287C59.223 31.584 59.079 31.84 58.855 32.16C58.631 32.464 58.279 32.736 57.799 32.976C57.319 33.216 56.663 33.336 55.831 33.336ZM56.359 30.888C57.207 30.888 57.895 30.656 58.423 30.192C58.967 29.712 59.239 29.08 59.239 28.296V28.056H56.191C55.631 28.056 55.191 28.176 54.871 28.416C54.551 28.656 54.391 28.992 54.391 29.424C54.391 29.856 54.559 30.208 54.895 30.48C55.231 30.752 55.719 30.888 56.359 30.888ZM69.6156 33.336C68.6716 33.336 67.7836 33.104 66.9516 32.64C66.1356 32.16 65.4796 31.464 64.9836 30.552C64.4876 29.64 64.2396 28.536 64.2396 27.24V26.856C64.2396 25.56 64.4876 24.456 64.9836 23.544C65.4796 22.632 66.1356 21.944 66.9516 21.48C67.7676 21 68.6556 20.76 69.6156 20.76C70.3356 20.76 70.9356 20.848 71.4156 21.024C71.9116 21.184 72.3116 21.392 72.6156 21.648C72.9196 21.904 73.1516 22.176 73.3116 22.464H73.7436V16.2H76.7676V33H73.7916V31.56H73.3596C73.0876 32.008 72.6636 32.416 72.0876 32.784C71.5276 33.152 70.7036 33.336 69.6156 33.336ZM70.5276 30.696C71.4556 30.696 72.2316 30.4 72.8556 29.808C73.4796 29.2 73.7916 28.32 73.7916 27.168V26.928C73.7916 25.776 73.4796 24.904 72.8556 24.312C72.2476 23.704 71.4716 23.4 70.5276 23.4C69.5996 23.4 68.8236 23.704 68.1996 24.312C67.5756 24.904 67.2636 25.776 67.2636 26.928V27.168C67.2636 28.32 67.5756 29.2 68.1996 29.808C68.8236 30.4 69.5996 30.696 70.5276 30.696ZM84.7523 33.336C83.6003 33.336 82.5523 33.096 81.6083 32.616C80.6803 32.136 79.9443 31.44 79.4003 30.528C78.8563 29.616 78.5843 28.512 78.5843 27.216V26.88C78.5843 25.584 78.8563 24.48 79.4003 23.568C79.9443 22.656 80.6803 21.96 81.6083 21.48C82.5523 21 83.6003 20.76 84.7523 20.76C85.8883 20.76 86.8643 20.96 87.6803 21.36C88.4963 21.76 89.1523 22.312 89.6483 23.016C90.1603 23.704 90.4963 24.488 90.6563 25.368L87.7283 25.992C87.6643 25.512 87.5203 25.08 87.2963 24.696C87.0723 24.312 86.7523 24.008 86.3363 23.784C85.9363 23.56 85.4323 23.448 84.8243 23.448C84.2163 23.448 83.6643 23.584 83.1683 23.856C82.6883 24.112 82.3043 24.504 82.0163 25.032C81.7443 25.544 81.6083 26.176 81.6083 26.928V27.168C81.6083 27.92 81.7443 28.56 82.0163 29.088C82.3043 29.6 82.6883 29.992 83.1683 30.264C83.6643 30.52 84.2163 30.648 84.8243 30.648C85.7363 30.648 86.4243 30.416 86.8883 29.952C87.3683 29.472 87.6723 28.848 87.8003 28.08L90.7283 28.776C90.5203 29.624 90.1603 30.4 89.6483 31.104C89.1523 31.792 88.4963 32.336 87.6803 32.736C86.8643 33.136 85.8883 33.336 84.7523 33.336ZM92.2628 33V21.096H95.2388V22.656H95.6708C95.8628 22.24 96.2228 21.848 96.7508 21.48C97.2788 21.096 98.0788 20.904 99.1508 20.904C100.079 20.904 100.887 21.12 101.575 21.552C102.279 21.968 102.823 22.552 103.207 23.304C103.591 24.04 103.783 24.904 103.783 25.896V33H100.759V26.136C100.759 25.24 100.535 24.568 100.087 24.12C99.6548 23.672 99.0308 23.448 98.2148 23.448C97.2868 23.448 96.5668 23.76 96.0548 24.384C95.5428 24.992 95.2868 25.848 95.2868 26.952V33H92.2628ZM111.036 33.336C109.484 33.336 108.212 33 107.22 32.328C106.228 31.656 105.628 30.696 105.42 29.448L108.204 28.728C108.316 29.288 108.5 29.728 108.756 30.048C109.028 30.368 109.356 30.6 109.74 30.744C110.14 30.872 110.572 30.936 111.036 30.936C111.74 30.936 112.26 30.816 112.596 30.576C112.932 30.32 113.1 30.008 113.1 29.64C113.1 29.272 112.94 28.992 112.62 28.8C112.3 28.592 111.788 28.424 111.084 28.296L110.412 28.176C109.58 28.016 108.82 27.8 108.132 27.528C107.444 27.24 106.892 26.848 106.476 26.352C106.06 25.856 105.852 25.216 105.852 24.432C105.852 23.248 106.284 22.344 107.148 21.72C108.012 21.08 109.148 20.76 110.556 20.76C111.884 20.76 112.988 21.056 113.868 21.648C114.748 22.24 115.324 23.016 115.596 23.976L112.788 24.84C112.66 24.232 112.396 23.8 111.996 23.544C111.612 23.288 111.132 23.16 110.556 23.16C109.98 23.16 109.54 23.264 109.236 23.472C108.932 23.664 108.78 23.936 108.78 24.288C108.78 24.672 108.94 24.96 109.26 25.152C109.58 25.328 110.012 25.464 110.556 25.56L111.228 25.68C112.124 25.84 112.932 26.056 113.652 26.328C114.388 26.584 114.964 26.96 115.38 27.456C115.812 27.936 116.028 28.592 116.028 29.424C116.028 30.672 115.572 31.64 114.66 32.328C113.764 33 112.556 33.336 111.036 33.336ZM117.718 37.8V21.096H120.694V22.536H121.126C121.398 22.072 121.822 21.664 122.398 21.312C122.974 20.944 123.798 20.76 124.87 20.76C125.83 20.76 126.718 21 127.534 21.48C128.35 21.944 129.006 22.632 129.502 23.544C129.998 24.456 130.246 25.56 130.246 26.856V27.24C130.246 28.536 129.998 29.64 129.502 30.552C129.006 31.464 128.35 32.16 127.534 32.64C126.718 33.104 125.83 33.336 124.87 33.336C124.15 33.336 123.542 33.248 123.046 33.072C122.566 32.912 122.174 32.704 121.87 32.448C121.582 32.176 121.35 31.904 121.174 31.632H120.742V37.8H117.718ZM123.958 30.696C124.902 30.696 125.678 30.4 126.286 29.808C126.91 29.2 127.222 28.32 127.222 27.168V26.928C127.222 25.776 126.91 24.904 126.286 24.312C125.662 23.704 124.886 23.4 123.958 23.4C123.03 23.4 122.254 23.704 121.63 24.312C121.006 24.904 120.694 25.776 120.694 26.928V27.168C120.694 28.32 121.006 29.2 121.63 29.808C122.254 30.4 123.03 30.696 123.958 30.696ZM135.758 33.336C134.91 33.336 134.15 33.192 133.478 32.904C132.806 32.6 132.27 32.168 131.87 31.608C131.486 31.032 131.294 30.336 131.294 29.52C131.294 28.704 131.486 28.024 131.87 27.48C132.27 26.92 132.814 26.504 133.502 26.232C134.206 25.944 135.006 25.8 135.902 25.8H139.167V25.128C139.167 24.568 138.991 24.112 138.638 23.76C138.287 23.392 137.727 23.208 136.959 23.208C136.207 23.208 135.646 23.384 135.278 23.736C134.91 24.072 134.67 24.512 134.558 25.056L131.774 24.12C131.966 23.512 132.27 22.96 132.686 22.464C133.118 21.952 133.686 21.544 134.39 21.24C135.11 20.92 135.983 20.76 137.007 20.76C138.575 20.76 139.815 21.152 140.727 21.936C141.639 22.72 142.095 23.856 142.095 25.344V29.784C142.095 30.264 142.319 30.504 142.767 30.504H143.727V33H141.711C141.119 33 140.631 32.856 140.247 32.568C139.863 32.28 139.671 31.896 139.671 31.416V31.392H139.215C139.151 31.584 139.007 31.84 138.783 32.16C138.559 32.464 138.207 32.736 137.727 32.976C137.247 33.216 136.591 33.336 135.758 33.336ZM136.286 30.888C137.135 30.888 137.823 30.656 138.351 30.192C138.895 29.712 139.167 29.08 139.167 28.296V28.056H136.118C135.558 28.056 135.118 28.176 134.799 28.416C134.478 28.656 134.318 28.992 134.318 29.424C134.318 29.856 134.486 30.208 134.822 30.48C135.158 30.752 135.646 30.888 136.286 30.888ZM150.335 33.336C149.183 33.336 148.135 33.096 147.191 32.616C146.263 32.136 145.527 31.44 144.983 30.528C144.439 29.616 144.167 28.512 144.167 27.216V26.88C144.167 25.584 144.439 24.48 144.983 23.568C145.527 22.656 146.263 21.96 147.191 21.48C148.135 21 149.183 20.76 150.335 20.76C151.471 20.76 152.447 20.96 153.263 21.36C154.079 21.76 154.735 22.312 155.231 23.016C155.743 23.704 156.079 24.488 156.239 25.368L153.311 25.992C153.247 25.512 153.103 25.08 152.879 24.696C152.655 24.312 152.335 24.008 151.919 23.784C151.519 23.56 151.015 23.448 150.407 23.448C149.799 23.448 149.247 23.584 148.751 23.856C148.271 24.112 147.887 24.504 147.599 25.032C147.327 25.544 147.191 26.176 147.191 26.928V27.168C147.191 27.92 147.327 28.56 147.599 29.088C147.887 29.6 148.271 29.992 148.751 30.264C149.247 30.52 149.799 30.648 150.407 30.648C151.319 30.648 152.007 30.416 152.471 29.952C152.951 29.472 153.255 28.848 153.383 28.08L156.311 28.776C156.103 29.624 155.743 30.4 155.231 31.104C154.735 31.792 154.079 32.336 153.263 32.736C152.447 33.136 151.471 33.336 150.335 33.336ZM163.27 33.336C162.086 33.336 161.038 33.088 160.126 32.592C159.23 32.08 158.526 31.368 158.014 30.456C157.518 29.528 157.27 28.44 157.27 27.192V26.904C157.27 25.656 157.518 24.576 158.014 23.664C158.51 22.736 159.206 22.024 160.102 21.528C160.998 21.016 162.038 20.76 163.222 20.76C164.39 20.76 165.406 21.024 166.27 21.552C167.134 22.064 167.806 22.784 168.286 23.712C168.766 24.624 169.006 25.688 169.006 26.904V27.936H160.342C160.374 28.752 160.678 29.416 161.254 29.928C161.83 30.44 162.534 30.696 163.366 30.696C164.214 30.696 164.838 30.512 165.238 30.144C165.638 29.776 165.942 29.368 166.15 28.92L168.622 30.216C168.398 30.632 168.07 31.088 167.638 31.584C167.222 32.064 166.662 32.48 165.958 32.832C165.254 33.168 164.358 33.336 163.27 33.336ZM160.366 25.68H165.934C165.87 24.992 165.59 24.44 165.094 24.024C164.614 23.608 163.982 23.4 163.198 23.4C162.382 23.4 161.734 23.608 161.254 24.024C160.774 24.44 160.478 24.992 160.366 25.68ZM172.493 33.336C171.853 33.336 171.309 33.128 170.861 32.712C170.429 32.28 170.213 31.728 170.213 31.056C170.213 30.384 170.429 29.84 170.861 29.424C171.309 28.992 171.853 28.776 172.493 28.776C173.149 28.776 173.693 28.992 174.125 29.424C174.557 29.84 174.773 30.384 174.773 31.056C174.773 31.728 174.557 32.28 174.125 32.712C173.693 33.128 173.149 33.336 172.493 33.336Z" fill="#222222"/>
</svg>
