<svg width="168" height="32" viewBox="0 0 168 32" fill="none" xmlns="http://www.w3.org/2000/svg">
<path d="M57.2919 26.6822H60.7828L54.4991 10.1818H50.7755L44.4453 26.6822H47.8431L49.2162 22.912H55.9188L57.2919 26.6822ZM52.5675 13.7425L54.8482 19.9796H50.2868L52.5675 13.7425Z" fill="#313131"/>
<path d="M73.1151 9.83203H70.0664V16.3717C69.7406 15.7666 68.8097 14.952 66.8315 14.952C63.5966 14.952 61.3391 17.5819 61.3391 20.9331C61.3391 24.4008 63.6664 26.9608 66.9246 26.9608C68.4606 26.9608 69.6242 26.2626 70.1362 25.3549C70.1362 25.8902 70.206 26.4488 70.2526 26.6815H73.2082C73.1616 26.216 73.1151 25.3782 73.1151 24.6102V9.83203ZM64.4576 20.9331C64.4576 18.8851 65.7144 17.7215 67.2969 17.7215C68.8795 17.7215 70.1129 18.8618 70.1129 20.9099C70.1129 22.9811 68.8795 24.1913 67.2969 24.1913C65.6678 24.1913 64.4576 22.9811 64.4576 20.9331Z" fill="#313131"/>
<path d="M79.3356 26.6822V19.9797C79.3356 18.723 80.1268 17.7222 81.4767 17.7222C82.873 17.7222 83.5014 18.6532 83.5014 19.8866V26.6822H86.5734V19.9797C86.5734 18.7462 87.3647 17.7222 88.6912 17.7222C90.1108 17.7222 90.7159 18.6532 90.7159 19.8866V26.6822H93.7181V19.2583C93.7181 16.1863 91.6934 14.9062 89.5756 14.9062C88.0628 14.9062 86.8527 15.4182 85.945 16.8146C85.3632 15.5812 84.1065 14.9062 82.5472 14.9062C81.2905 14.9062 79.8243 15.5113 79.1959 16.6284V15.2321H76.2403V26.6822H79.3356Z" fill="#313131"/>
<path d="M99.7167 26.6815V15.2313H96.6214V26.6815H99.7167ZM96.2488 11.4844C96.2488 12.5084 97.1102 13.3695 98.1574 13.3695C99.228 13.3695 100.066 12.5084 100.066 11.4844C100.066 10.4138 99.228 9.55273 98.1574 9.55273C97.1102 9.55273 96.2488 10.4138 96.2488 11.4844Z" fill="#313131"/>
<path d="M105.893 20.0953C105.893 18.7687 106.684 17.7214 108.034 17.7214C109.523 17.7214 110.152 18.7222 110.152 20.0022V26.6814H113.247V19.4669C113.247 16.9534 111.944 14.9287 109.105 14.9287C107.871 14.9287 106.498 15.464 105.8 16.6509V15.2313H102.798V26.6814H105.893V20.0953Z" fill="#313131"/>
<path d="M134.798 26.6822V10.1818H130.422L125.582 22.0975L120.625 10.1818H116.389V26.6822H119.461V15.2087L124.209 26.6822H126.885L131.633 15.1156V26.6822H134.798Z" fill="#313131"/>
<path d="M137.362 23.5633C137.362 25.3553 138.851 27.0077 141.295 27.0077C142.993 27.0077 144.087 26.2164 144.669 25.3088C144.669 25.7509 144.716 26.3793 144.786 26.6818H147.625C147.555 26.2862 147.485 25.4717 147.485 24.8666V19.2346C147.485 16.9306 146.135 14.8826 142.505 14.8826C139.433 14.8826 137.78 16.8608 137.594 18.6528L140.34 19.2346C140.434 18.2338 141.178 17.3728 142.528 17.3728C143.831 17.3728 144.46 18.0477 144.46 18.8622C144.46 19.2578 144.25 19.5837 143.599 19.6768L140.783 20.0957C138.874 20.3749 137.362 21.5153 137.362 23.5633ZM141.946 24.7037C140.946 24.7037 140.457 24.052 140.457 23.3771C140.457 22.4928 141.085 22.0506 141.876 21.9342L144.46 21.5386V22.0506C144.46 24.0753 143.25 24.7037 141.946 24.7037Z" fill="#313131"/>
<path d="M157.354 15.1852C157.121 15.1619 156.888 15.1387 156.632 15.1387C155.655 15.1387 154.072 15.4179 153.374 16.9307V15.2318H150.372V26.6819H153.467V21.4456C153.467 18.9787 154.84 18.2107 156.423 18.2107C156.702 18.2107 157.005 18.2339 157.354 18.3038V15.1852Z" fill="#313131"/>
<path d="M163.57 11.8106H160.777V13.4164C160.777 14.4404 160.218 15.2317 159.008 15.2317H158.426V17.9779H160.498V23.3073C160.498 25.5182 161.894 26.8448 164.128 26.8448C165.036 26.8448 165.594 26.6819 165.874 26.5655V24.0055C165.711 24.0521 165.292 24.0986 164.919 24.0986C164.035 24.0986 163.57 23.7728 163.57 22.7721V17.9779H165.874V15.2317H163.57V11.8106Z" fill="#313131"/>
<path d="M13.5961 4.60198C13.9473 3.99852 14.4524 3.4974 15.0605 3.14901C15.6687 2.8006 16.3586 2.61719 17.0609 2.61719C17.7631 2.61719 18.453 2.8006 19.0612 3.14901C19.6694 3.4974 20.1744 3.99852 20.5256 4.60198L31.6128 23.6576C31.9639 24.2611 32.1487 24.9457 32.1487 25.6426C32.1487 26.3394 31.9639 27.024 31.6128 27.6275C31.2616 28.231 30.7566 28.7322 30.1484 29.0806C29.5402 29.4291 28.8503 29.6125 28.148 29.6125H5.97292C5.27063 29.6125 4.58071 29.4291 3.97251 29.0806C3.36433 28.7322 2.85928 28.231 2.50815 27.6275C2.15701 27.024 1.97216 26.3394 1.97217 25.6426C1.97217 24.9457 2.15703 24.2611 2.50817 23.6576L13.5961 4.60198Z" fill="#707070"/>
<path d="M16.9606 15.3422C17.4229 15.5994 17.7635 16.028 17.9076 16.5343C18.0516 17.0404 17.9873 17.5826 17.7288 18.0417L11.4603 29.6124H6.61523L14.2376 16.1036C14.366 15.8762 14.5383 15.6761 14.7447 15.5148C14.951 15.3534 15.1873 15.234 15.4402 15.1633C15.6931 15.0926 15.9574 15.072 16.2184 15.1027C16.4792 15.1334 16.7315 15.2147 16.9606 15.3422Z" fill="#EDEDED"/>
<path d="M17.8467 29.6176L21.4395 23.2506C21.5678 23.0232 21.74 22.823 21.9463 22.6616C22.1526 22.5002 22.389 22.3807 22.6418 22.3099C22.8947 22.2391 23.1591 22.2185 23.42 22.2491C23.6809 22.2798 23.9332 22.3611 24.1624 22.4884C24.3916 22.6157 24.5933 22.7866 24.756 22.9914C24.9187 23.1961 25.0391 23.4306 25.1104 23.6815C25.1818 23.9324 25.2026 24.1948 25.1717 24.4537C25.1409 24.7126 25.059 24.9629 24.9306 25.1903L22.4357 29.6128" fill="white"/>
</svg>
