<svg width="128" height="32" viewBox="0 0 128 32" fill="none" xmlns="http://www.w3.org/2000/svg">
<g clip-path="url(#clip0_1134_2023)">
<path d="M40.7318 9.80908C44.7193 9.80908 48.6195 12.1584 48.6195 17.3974C48.6195 17.8132 48.5987 18.4577 48.553 18.911C48.5405 19.0149 48.4532 19.0939 48.3492 19.0939H37.1642C37.4927 20.9692 38.8024 22.1875 40.8565 22.1875C42.2203 22.1875 43.0893 21.4349 43.5592 20.5367C43.6174 20.4245 43.7463 20.3663 43.8711 20.3912L48.054 21.3018C48.1829 21.3309 48.2494 21.4681 48.1954 21.5887C47.2182 23.8049 44.9937 26.0004 40.8232 26.0004C35.3471 26.0004 32.4282 22.4286 32.4282 17.9047C32.4282 13.3808 35.4636 9.80908 40.7318 9.80908ZM43.9459 16.2374C43.738 14.4536 42.5488 13.4972 40.8191 13.4972C38.5571 13.4972 37.6049 14.6573 37.2473 16.2374H43.9459Z" fill="#191919"/>
<path d="M50.0498 25.3184V10.491C50.0498 10.3787 50.1413 10.2873 50.2535 10.2873H54.607C54.7192 10.2873 54.8107 10.3787 54.8107 10.491V12.2498C55.8544 10.6116 57.4012 9.80908 59.3928 9.80908C62.3076 9.80908 64.8107 11.8049 64.8107 16.2665V25.3184C64.8107 25.4307 64.7192 25.5222 64.607 25.5222H60.2535C60.1413 25.5222 60.0498 25.4307 60.0498 25.3184V16.9525C60.0498 14.9567 59.0061 13.859 57.4885 13.859C55.8502 13.859 54.8107 14.9317 54.8107 17.3725V25.3226C54.8107 25.4349 54.7192 25.5263 54.607 25.5263H50.2535C50.1413 25.5263 50.0498 25.4349 50.0498 25.3226V25.3184Z" fill="#191919"/>
<path d="M65.1018 10.2832H69.7172C69.8086 10.2832 69.8876 10.3414 69.9126 10.4287L73.3804 21.9215L76.8481 10.4287C76.8731 10.3414 76.9521 10.2832 77.0436 10.2832H81.6589C81.8003 10.2832 81.9001 10.4246 81.8502 10.5576L76.5404 25.331C76.4989 25.4433 76.3908 25.5223 76.2702 25.5223H70.4822C70.3616 25.5223 70.2535 25.4474 70.212 25.331L64.9022 10.5576C64.8523 10.4246 64.9521 10.2832 65.0935 10.2832H65.1018Z" fill="#191919"/>
<path d="M91.9541 25.3182V22.9939C91.2098 24.5406 89.5424 26.0001 86.952 26.0001C83.9457 26.0001 81.7129 24.0957 81.7129 21.418C81.7129 18.5905 83.5882 16.4783 87.6963 16.4783H90.0788C91.3886 16.4783 91.7462 15.5261 91.6256 14.9024C91.4468 13.8296 90.4946 13.2641 89.1557 13.2641C87.4634 13.2641 86.4405 14.1997 86.3116 15.4845C86.2992 15.6009 86.1911 15.6841 86.0746 15.6675L82.0372 14.9939C81.9249 14.9772 81.846 14.8691 81.8667 14.7569C82.5237 11.2433 85.8543 9.81299 89.2721 9.81299C92.69 9.81299 96.4738 10.6446 96.4738 16.9564V25.3223C96.4738 25.4346 96.3823 25.5261 96.2701 25.5261H92.1536C92.0414 25.5261 91.9499 25.4346 91.9499 25.3223L91.9541 25.3182ZM88.3532 22.549C90.2576 22.549 91.5674 21.1186 91.7171 19.3348H88.8314C87.0767 19.3348 86.4489 20.05 86.4821 21.0313C86.5112 22.0749 87.347 22.549 88.3574 22.549H88.3532Z" fill="#191919"/>
<path d="M97.1929 13.8877V10.4865C97.1929 10.3742 97.2843 10.2827 97.3966 10.2827H99.0972C99.8873 10.2827 100.528 9.64241 100.528 8.85239V6.20374C100.528 6.09148 100.619 6 100.731 6H104.607C104.719 6 104.81 6.09148 104.81 6.20374V10.2827H107.937C108.049 10.2827 108.141 10.3742 108.141 10.4865V13.8877C108.141 14 108.049 14.0915 107.937 14.0915H104.81V19.5967C104.81 21.3888 106.336 22.1206 107.929 21.5551C108.033 21.5177 108.145 21.5967 108.145 21.7089V25.2973C108.145 25.4304 108.058 25.5468 107.929 25.5759C107.517 25.6715 106.948 25.7588 106.27 25.7588C102.577 25.7588 100.049 24.5073 100.049 19.1518V14.0915H97.3966C97.2843 14.0915 97.1929 14 97.1929 13.8877Z" fill="#191919"/>
<path d="M125.53 17.9047C125.53 22.3704 122.374 26.0004 117.197 26.0004C112.021 26.0004 108.865 22.3704 108.865 17.9047C108.865 13.439 112.021 9.80908 117.197 9.80908C122.374 9.80908 125.53 13.439 125.53 17.9047ZM120.765 17.9047C120.765 15.701 119.547 13.859 117.193 13.859C114.84 13.859 113.622 15.7051 113.622 17.9047C113.622 20.1043 114.84 21.9505 117.193 21.9505C119.547 21.9505 120.765 20.1043 120.765 17.9047Z" fill="#191919"/>
<path d="M13.5965 32.0001C14.3863 32.0001 15.0265 31.3599 15.0265 30.5701C15.0265 29.7804 14.3863 29.1401 13.5965 29.1401C12.8067 29.1401 12.1665 29.7804 12.1665 30.5701C12.1665 31.3599 12.8067 32.0001 13.5965 32.0001Z" fill="#B8B8B8"/>
<path d="M21.8168 20.8201L13.7518 21.6851C13.6018 21.7001 13.5268 21.5151 13.6468 21.4201L21.5368 15.2751C22.0468 14.8551 22.3768 14.2051 22.2368 13.5051C22.0968 12.4351 21.2118 11.7351 20.0918 11.8751L11.5168 13.1301C11.3668 13.1501 11.2868 12.9601 11.4068 12.8651L19.9068 6.37512C21.5818 5.07012 21.7218 2.51012 20.1868 1.02012C18.7918 -0.374884 16.5518 -0.329884 15.1568 1.06512L1.46177 15.0001C0.951771 15.5601 0.716771 16.3051 0.856771 17.0951C1.09177 18.3551 2.34677 19.1901 3.60677 18.9601L10.9918 17.4551C11.1518 17.4201 11.2368 17.6351 11.1018 17.7251L2.91177 22.9701C1.88677 23.6201 1.42177 24.7851 1.74677 25.9501C2.07177 27.4851 3.61177 28.3701 5.10177 28.0001L17.3468 24.9851C17.4868 24.9501 17.5868 25.1101 17.4968 25.2201L15.5868 27.5801C15.0768 28.2301 15.9118 29.1151 16.6118 28.6051L22.9018 23.4351C24.0218 22.5051 23.2768 20.6851 21.8318 20.8251L21.8168 20.8201Z" fill="#B8B8B8"/>
</g>
<defs>
<clipPath id="clip0_1134_2023">
<rect width="128" height="32" fill="white"/>
</clipPath>
</defs>
</svg>
