<svg width="994" height="250" viewBox="0 0 994 250" fill="none" xmlns="http://www.w3.org/2000/svg">
<circle cx="135.4" cy="135" r="135" fill="#FCEA4E"/>
<path d="M172.936 187.104C164.141 187.104 156.933 185.2 151.312 181.392C145.691 177.584 142.291 172.144 141.112 165.072L156.888 160.992C157.523 164.166 158.565 166.659 160.016 168.472C161.557 170.286 163.416 171.6 165.592 172.416C167.859 173.142 170.307 173.504 172.936 173.504C176.925 173.504 179.872 172.824 181.776 171.464C183.68 170.014 184.632 168.246 184.632 166.16C184.632 164.075 183.725 162.488 181.912 161.4C180.099 160.222 177.197 159.27 173.208 158.544L169.4 157.864C164.685 156.958 160.379 155.734 156.48 154.192C152.581 152.56 149.453 150.339 147.096 147.528C144.739 144.718 143.56 141.091 143.56 136.648C143.56 129.939 146.008 124.816 150.904 121.28C155.8 117.654 162.237 115.84 170.216 115.84C177.741 115.84 183.997 117.518 188.984 120.872C193.971 124.227 197.235 128.624 198.776 134.064L182.864 138.96C182.139 135.515 180.643 133.067 178.376 131.616C176.2 130.166 173.48 129.44 170.216 129.44C166.952 129.44 164.459 130.03 162.736 131.208C161.013 132.296 160.152 133.838 160.152 135.832C160.152 138.008 161.059 139.64 162.872 140.728C164.685 141.726 167.133 142.496 170.216 143.04L174.024 143.72C179.101 144.627 183.68 145.851 187.76 147.392C191.931 148.843 195.195 150.974 197.552 153.784C200 156.504 201.224 160.222 201.224 164.936C201.224 172.008 198.64 177.494 193.472 181.392C188.395 185.2 181.549 187.104 172.936 187.104ZM210.8 185.2V90.0002H227.936V126.04H230.384C231.11 124.59 232.243 123.139 233.784 121.688C235.326 120.238 237.366 119.059 239.904 118.152C242.534 117.155 245.843 116.656 249.832 116.656C255.091 116.656 259.67 117.88 263.568 120.328C267.558 122.686 270.64 125.995 272.816 130.256C274.992 134.427 276.08 139.323 276.08 144.944V185.2H258.944V146.304C258.944 141.227 257.675 137.419 255.136 134.88C252.688 132.342 249.152 131.072 244.528 131.072C239.27 131.072 235.19 132.84 232.288 136.376C229.387 139.822 227.936 144.672 227.936 150.928V185.2H210.8ZM310.109 187.104C305.304 187.104 300.997 186.288 297.189 184.656C293.381 182.934 290.344 180.486 288.077 177.312C285.901 174.048 284.813 170.104 284.813 165.48C284.813 160.856 285.901 157.003 288.077 153.92C290.344 150.747 293.426 148.39 297.325 146.848C301.314 145.216 305.848 144.4 310.925 144.4H329.421V140.592C329.421 137.419 328.424 134.835 326.429 132.84C324.434 130.755 321.261 129.712 316.909 129.712C312.648 129.712 309.474 130.71 307.389 132.704C305.304 134.608 303.944 137.102 303.309 140.184L287.533 134.88C288.621 131.435 290.344 128.307 292.701 125.496C295.149 122.595 298.368 120.283 302.357 118.56C306.437 116.747 311.378 115.84 317.181 115.84C326.066 115.84 333.093 118.062 338.261 122.504C343.429 126.947 346.013 133.384 346.013 141.816V166.976C346.013 169.696 347.282 171.056 349.821 171.056H355.261V185.2H343.837C340.482 185.2 337.717 184.384 335.541 182.752C333.365 181.12 332.277 178.944 332.277 176.224V176.088H329.693C329.33 177.176 328.514 178.627 327.245 180.44C325.976 182.163 323.981 183.704 321.261 185.064C318.541 186.424 314.824 187.104 310.109 187.104ZM313.101 173.232C317.906 173.232 321.805 171.918 324.797 169.288C327.88 166.568 329.421 162.987 329.421 158.544V157.184H312.149C308.976 157.184 306.482 157.864 304.669 159.224C302.856 160.584 301.949 162.488 301.949 164.936C301.949 167.384 302.901 169.379 304.805 170.92C306.709 172.462 309.474 173.232 313.101 173.232ZM388.222 187.104C382.872 187.104 377.84 185.79 373.126 183.16C368.502 180.44 364.784 176.496 361.974 171.328C359.163 166.16 357.758 159.904 357.758 152.56V150.384C357.758 143.04 359.163 136.784 361.974 131.616C364.784 126.448 368.502 122.55 373.126 119.92C377.75 117.2 382.782 115.84 388.222 115.84C392.302 115.84 395.702 116.339 398.422 117.336C401.232 118.243 403.499 119.422 405.222 120.872C406.944 122.323 408.259 123.864 409.166 125.496H411.614V90.0002H428.75V185.2H411.886V177.04H409.438C407.896 179.579 405.494 181.891 402.23 183.976C399.056 186.062 394.387 187.104 388.222 187.104ZM393.39 172.144C398.648 172.144 403.046 170.467 406.582 167.112C410.118 163.667 411.886 158.68 411.886 152.152V150.792C411.886 144.264 410.118 139.323 406.582 135.968C403.136 132.523 398.739 130.8 393.39 130.8C388.131 130.8 383.734 132.523 380.198 135.968C376.662 139.323 374.894 144.264 374.894 150.792V152.152C374.894 158.68 376.662 163.667 380.198 167.112C383.734 170.467 388.131 172.144 393.39 172.144ZM473.996 187.104C467.468 187.104 461.53 185.744 456.18 183.024C450.922 180.304 446.751 176.36 443.668 171.192C440.586 166.024 439.044 159.768 439.044 152.424V150.52C439.044 143.176 440.586 136.92 443.668 131.752C446.751 126.584 450.922 122.64 456.18 119.92C461.53 117.2 467.468 115.84 473.996 115.84C480.434 115.84 485.964 116.974 490.588 119.24C495.212 121.507 498.93 124.635 501.74 128.624C504.642 132.523 506.546 136.966 507.452 141.952L490.86 145.488C490.498 142.768 489.682 140.32 488.412 138.144C487.143 135.968 485.33 134.246 482.972 132.976C480.706 131.707 477.85 131.072 474.404 131.072C470.959 131.072 467.831 131.843 465.02 133.384C462.3 134.835 460.124 137.056 458.492 140.048C456.951 142.95 456.18 146.531 456.18 150.792V152.152C456.18 156.414 456.951 160.04 458.492 163.032C460.124 165.934 462.3 168.155 465.02 169.696C467.831 171.147 470.959 171.872 474.404 171.872C479.572 171.872 483.471 170.558 486.1 167.928C488.82 165.208 490.543 161.672 491.268 157.32L507.86 161.264C506.682 166.07 504.642 170.467 501.74 174.456C498.93 178.355 495.212 181.438 490.588 183.704C485.964 185.971 480.434 187.104 473.996 187.104ZM516.556 185.2V117.744H533.42V126.584H535.868C536.956 124.227 538.996 122.006 541.988 119.92C544.98 117.744 549.513 116.656 555.588 116.656C560.846 116.656 565.425 117.88 569.324 120.328C573.313 122.686 576.396 125.995 578.572 130.256C580.748 134.427 581.836 139.323 581.836 144.944V185.2H564.7V146.304C564.7 141.227 563.43 137.419 560.892 134.88C558.444 132.342 554.908 131.072 550.284 131.072C545.025 131.072 540.945 132.84 538.044 136.376C535.142 139.822 533.692 144.672 533.692 150.928V185.2H516.556ZM622.937 187.104C614.142 187.104 606.934 185.2 601.313 181.392C595.691 177.584 592.291 172.144 591.113 165.072L606.889 160.992C607.523 164.166 608.566 166.659 610.017 168.472C611.558 170.286 613.417 171.6 615.593 172.416C617.859 173.142 620.307 173.504 622.937 173.504C626.926 173.504 629.873 172.824 631.777 171.464C633.681 170.014 634.633 168.246 634.633 166.16C634.633 164.075 633.726 162.488 631.913 161.4C630.099 160.222 627.198 159.27 623.209 158.544L619.401 157.864C614.686 156.958 610.379 155.734 606.481 154.192C602.582 152.56 599.454 150.339 597.097 147.528C594.739 144.718 593.561 141.091 593.561 136.648C593.561 129.939 596.009 124.816 600.905 121.28C605.801 117.654 612.238 115.84 620.217 115.84C627.742 115.84 633.998 117.518 638.985 120.872C643.971 124.227 647.235 128.624 648.777 134.064L632.865 138.96C632.139 135.515 630.643 133.067 628.377 131.616C626.201 130.166 623.481 129.44 620.217 129.44C616.953 129.44 614.459 130.03 612.737 131.208C611.014 132.296 610.153 133.838 610.153 135.832C610.153 138.008 611.059 139.64 612.873 140.728C614.686 141.726 617.134 142.496 620.217 143.04L624.025 143.72C629.102 144.627 633.681 145.851 637.761 147.392C641.931 148.843 645.195 150.974 647.553 153.784C650.001 156.504 651.225 160.222 651.225 164.936C651.225 172.008 648.641 177.494 643.473 181.392C638.395 185.2 631.55 187.104 622.937 187.104ZM660.801 212.4V117.744H677.665V125.904H680.113C681.654 123.275 684.057 120.963 687.321 118.968C690.585 116.883 695.254 115.84 701.329 115.84C706.769 115.84 711.801 117.2 716.425 119.92C721.049 122.55 724.766 126.448 727.577 131.616C730.387 136.784 731.793 143.04 731.793 150.384V152.56C731.793 159.904 730.387 166.16 727.577 171.328C724.766 176.496 721.049 180.44 716.425 183.16C711.801 185.79 706.769 187.104 701.329 187.104C697.249 187.104 693.803 186.606 690.993 185.608C688.273 184.702 686.051 183.523 684.329 182.072C682.697 180.531 681.382 178.99 680.385 177.448H677.937V212.4H660.801ZM696.161 172.144C701.51 172.144 705.907 170.467 709.353 167.112C712.889 163.667 714.657 158.68 714.657 152.152V150.792C714.657 144.264 712.889 139.323 709.353 135.968C705.817 132.523 701.419 130.8 696.161 130.8C690.902 130.8 686.505 132.523 682.969 135.968C679.433 139.323 677.665 144.264 677.665 150.792V152.152C677.665 158.68 679.433 163.667 682.969 167.112C686.505 170.467 690.902 172.144 696.161 172.144ZM763.031 187.104C758.226 187.104 753.919 186.288 750.111 184.656C746.303 182.934 743.266 180.486 740.999 177.312C738.823 174.048 737.735 170.104 737.735 165.48C737.735 160.856 738.823 157.003 740.999 153.92C743.266 150.747 746.349 148.39 750.247 146.848C754.237 145.216 758.77 144.4 763.847 144.4H782.343V140.592C782.343 137.419 781.346 134.835 779.351 132.84C777.357 130.755 774.183 129.712 769.831 129.712C765.57 129.712 762.397 130.71 760.311 132.704C758.226 134.608 756.866 137.102 756.231 140.184L740.455 134.88C741.543 131.435 743.266 128.307 745.623 125.496C748.071 122.595 751.29 120.283 755.279 118.56C759.359 116.747 764.301 115.84 770.103 115.84C778.989 115.84 786.015 118.062 791.183 122.504C796.351 126.947 798.935 133.384 798.935 141.816V166.976C798.935 169.696 800.205 171.056 802.743 171.056H808.183V185.2H796.759C793.405 185.2 790.639 184.384 788.463 182.752C786.287 181.12 785.199 178.944 785.199 176.224V176.088H782.615C782.253 177.176 781.437 178.627 780.167 180.44C778.898 182.163 776.903 183.704 774.183 185.064C771.463 186.424 767.746 187.104 763.031 187.104ZM766.023 173.232C770.829 173.232 774.727 171.918 777.719 169.288C780.802 166.568 782.343 162.987 782.343 158.544V157.184H765.071C761.898 157.184 759.405 157.864 757.591 159.224C755.778 160.584 754.871 162.488 754.871 164.936C754.871 167.384 755.823 169.379 757.727 170.92C759.631 172.462 762.397 173.232 766.023 173.232ZM845.632 187.104C839.104 187.104 833.166 185.744 827.816 183.024C822.558 180.304 818.387 176.36 815.304 171.192C812.222 166.024 810.68 159.768 810.68 152.424V150.52C810.68 143.176 812.222 136.92 815.304 131.752C818.387 126.584 822.558 122.64 827.816 119.92C833.166 117.2 839.104 115.84 845.632 115.84C852.07 115.84 857.6 116.974 862.224 119.24C866.848 121.507 870.566 124.635 873.376 128.624C876.278 132.523 878.182 136.966 879.088 141.952L862.496 145.488C862.134 142.768 861.318 140.32 860.048 138.144C858.779 135.968 856.966 134.246 854.608 132.976C852.342 131.707 849.486 131.072 846.04 131.072C842.595 131.072 839.467 131.843 836.656 133.384C833.936 134.835 831.76 137.056 830.128 140.048C828.587 142.95 827.816 146.531 827.816 150.792V152.152C827.816 156.414 828.587 160.04 830.128 163.032C831.76 165.934 833.936 168.155 836.656 169.696C839.467 171.147 842.595 171.872 846.04 171.872C851.208 171.872 855.107 170.558 857.736 167.928C860.456 165.208 862.179 161.672 862.904 157.32L879.496 161.264C878.318 166.07 876.278 170.467 873.376 174.456C870.566 178.355 866.848 181.438 862.224 183.704C857.6 185.971 852.07 187.104 845.632 187.104ZM918.928 187.104C912.218 187.104 906.28 185.699 901.112 182.888C896.034 179.987 892.045 175.952 889.144 170.784C886.333 165.526 884.928 159.36 884.928 152.288V150.656C884.928 143.584 886.333 137.464 889.144 132.296C891.954 127.038 895.898 123.003 900.976 120.192C906.053 117.291 911.946 115.84 918.656 115.84C925.274 115.84 931.032 117.336 935.928 120.328C940.824 123.23 944.632 127.31 947.352 132.568C950.072 137.736 951.432 143.766 951.432 150.656V156.504H902.336C902.517 161.128 904.24 164.891 907.504 167.792C910.768 170.694 914.757 172.144 919.472 172.144C924.277 172.144 927.813 171.102 930.08 169.016C932.346 166.931 934.069 164.619 935.248 162.08L949.256 169.424C947.986 171.782 946.128 174.366 943.68 177.176C941.322 179.896 938.149 182.254 934.16 184.248C930.17 186.152 925.093 187.104 918.928 187.104ZM902.472 143.72H934.024C933.661 139.822 932.074 136.694 929.264 134.336C926.544 131.979 922.962 130.8 918.52 130.8C913.896 130.8 910.224 131.979 907.504 134.336C904.784 136.694 903.106 139.822 902.472 143.72ZM971.191 187.104C967.564 187.104 964.482 185.926 961.943 183.568C959.495 181.12 958.271 177.992 958.271 174.184C958.271 170.376 959.495 167.294 961.943 164.936C964.482 162.488 967.564 161.264 971.191 161.264C974.908 161.264 977.991 162.488 980.439 164.936C982.887 167.294 984.111 170.376 984.111 174.184C984.111 177.992 982.887 181.12 980.439 183.568C977.991 185.926 974.908 187.104 971.191 187.104Z" fill="#222222"/>
</svg>
