<svg width="195" height="32" viewBox="0 0 195 32" fill="none" xmlns="http://www.w3.org/2000/svg">
<path d="M27.1444 26.0399C29.7029 23.199 31.0803 19.4885 30.9951 15.6664C30.91 11.8442 29.3687 8.1987 26.6863 5.47461L21.8037 10.2826C23.2609 11.7624 24.0981 13.7427 24.1443 15.8189C24.1905 17.8952 23.4423 19.9108 22.0525 21.454L27.1444 26.0399Z" fill="#BDBDBD"/>
<path d="M26.6635 5.44942C24.436 3.19817 21.5533 1.7096 18.4281 1.19691C15.3029 0.684231 12.0956 1.17374 9.26562 2.59533L12.3416 8.71871C13.8789 7.94648 15.6211 7.68056 17.3188 7.95907C19.0164 8.23756 20.5824 9.04616 21.7924 10.2691L26.6635 5.44942Z" fill="#9D9D9D"/>
<path d="M10.3024 2.12305C8.22052 2.97793 6.3576 4.29029 4.85173 5.96292C3.34585 7.63555 2.23562 9.62559 1.60329 11.7855C0.970963 13.9455 0.832725 16.2201 1.19885 18.4408C1.56496 20.6614 2.42603 22.7712 3.71827 24.6139C5.01051 26.4566 6.7008 27.9849 8.66394 29.0855C10.627 30.1863 12.8126 30.8312 15.0588 30.9725C17.305 31.1138 19.5542 30.7479 21.6398 29.9019C23.7254 29.0559 25.5938 27.7514 27.1069 26.0853L22.0337 21.4787C21.2119 22.3837 20.1969 23.0923 19.0639 23.5519C17.931 24.0115 16.7092 24.2102 15.4891 24.1335C14.2689 24.0567 13.0816 23.7064 12.0152 23.1084C10.9489 22.5106 10.0306 21.6803 9.32866 20.6794C8.6267 19.6784 8.15899 18.5323 7.9601 17.326C7.76122 16.1198 7.83632 14.8841 8.17981 13.7108C8.52327 12.5375 9.12636 11.4565 9.94442 10.5478C10.7624 9.6393 11.7744 8.92639 12.9054 8.46198L10.3024 2.12305Z" fill="#888888"/>
<path d="M41.5762 10.3171V7.51126H54.7968V10.3171H49.7083V24.893H46.6647V10.3171H41.5762ZM58.1937 25.2021C55.697 25.2021 54.1752 23.7517 54.1752 21.5403C54.1752 19.3765 55.7445 18.0212 58.5266 17.8072L62.0457 17.5456V17.2841C62.0457 15.6909 61.0946 15.0489 59.6204 15.0489C57.9083 15.0489 56.9572 15.7623 56.9572 16.9987H54.4843C54.4843 14.4545 56.5768 12.79 59.763 12.79C62.9255 12.79 64.8753 14.502 64.8753 17.7596V24.893H62.3311L62.1171 23.1572C61.6177 24.3699 60.0246 25.2021 58.1937 25.2021ZM59.1448 23.0146C60.9282 23.0146 62.0695 21.9446 62.0695 20.1374V19.5192L59.6204 19.7094C57.8132 19.8759 57.1237 20.4703 57.1237 21.4214C57.1237 22.4914 57.837 23.0146 59.1448 23.0146ZM69.1757 10.7926C68.177 10.7926 67.3923 10.008 67.3923 9.03306C67.3923 8.05816 68.177 7.29726 69.1757 7.29726C70.1268 7.29726 70.9115 8.05816 70.9115 9.03306C70.9115 10.008 70.1268 10.7926 69.1757 10.7926ZM67.7252 24.893V13.1467H70.6261V24.893H67.7252ZM76.548 24.893H73.6708V7.20215H76.548V24.893ZM82.1828 24.893L78.3783 13.1467H81.3981L82.9437 18.1876C83.2052 19.115 83.443 20.1374 83.657 21.2312C83.871 20.0899 84.085 19.3527 84.4655 18.1876L86.0824 13.1467H89.0309L90.6002 18.1876C90.7429 18.6632 91.2184 20.4228 91.3611 21.2074C91.5513 20.3276 91.9318 18.9247 92.1458 18.1876L93.7151 13.1467H96.7829L92.7165 24.893H90.0058L88.3889 19.8045C87.9133 18.259 87.6517 17.1414 87.5566 16.5469C87.4377 17.0938 87.2237 17.9261 86.6293 19.8521L85.0124 24.893H82.1828ZM99.99 10.7926C98.9913 10.7926 98.2066 10.008 98.2066 9.03306C98.2066 8.05816 98.9913 7.29726 99.99 7.29726C100.941 7.29726 101.726 8.05816 101.726 9.03306C101.726 10.008 100.941 10.7926 99.99 10.7926ZM98.5395 24.893V13.1467H101.44V24.893H98.5395ZM107.338 24.893H104.437V13.1467H107.124L107.362 14.6685C108.099 13.4796 109.526 12.79 111.119 12.79C114.068 12.79 115.589 14.6209 115.589 17.6645V24.893H112.688V18.3541C112.688 16.3805 111.714 15.4294 110.216 15.4294C108.432 15.4294 107.338 16.6658 107.338 18.5681V24.893ZM123.267 25.2021C119.866 25.2021 117.75 22.7055 117.75 19.0674C117.75 15.4056 119.89 12.79 123.433 12.79C125.074 12.79 126.524 13.4796 127.261 14.6447V7.20215H130.139V24.893H127.475L127.285 23.0621C126.572 24.4175 125.05 25.2021 123.267 25.2021ZM123.909 22.539C125.93 22.539 127.238 21.0885 127.238 18.9723C127.238 16.856 125.93 15.3818 123.909 15.3818C121.888 15.3818 120.651 16.8798 120.651 18.9723C120.651 21.0648 121.888 22.539 123.909 22.539ZM136.704 25.1784C134.255 25.1784 132.852 23.823 132.852 21.8732C132.852 19.7807 134.469 18.4492 137.132 18.2352L141.056 17.9261V17.4981C141.056 14.93 139.534 14.1929 137.727 14.1929C135.611 14.1929 134.35 15.1916 134.35 16.856H133.256C133.256 14.6209 135.064 13.1942 137.751 13.1942C140.2 13.1942 142.149 14.3831 142.149 17.3316V24.893H141.27L141.056 22.753C140.271 24.2986 138.678 25.1784 136.704 25.1784ZM136.847 24.2035C139.534 24.2035 141.056 22.2537 141.056 19.4479V18.8296L137.227 19.1387C134.921 19.329 133.946 20.4465 133.946 21.8494C133.946 23.4188 135.135 24.2035 136.847 24.2035ZM150.014 25.1784C146.661 25.1784 144.759 22.5628 144.759 19.1863C144.759 15.8098 146.661 13.1942 150.014 13.1942C152.035 13.1942 153.605 14.0978 154.437 15.9525V7.72527H155.531V24.893H154.651L154.484 22.325C153.628 24.2748 151.988 25.1784 150.014 25.1784ZM150.133 24.1797C152.867 24.1797 154.413 22.0872 154.413 19.1863C154.413 16.3091 152.867 14.1929 150.133 14.1929C147.422 14.1929 145.877 16.3091 145.877 19.1863C145.877 22.0872 147.422 24.1797 150.133 24.1797ZM160.247 24.893H159.153V13.4796H160.033L160.199 15.2391C160.793 13.9313 162.101 13.1942 163.694 13.1942C165.525 13.1942 166.928 14.1929 167.428 15.7623C167.927 14.1929 169.306 13.1942 171.208 13.1942C173.562 13.1942 175.251 14.7636 175.251 17.4267V24.893H174.204V17.5694C174.204 15.4769 173.015 14.1929 171.113 14.1929C168.949 14.1929 167.76 15.8811 167.76 17.5932V24.893H166.69V17.5456C166.69 15.4531 165.502 14.1929 163.599 14.1929C161.435 14.1929 160.247 15.8574 160.247 17.5694V24.893ZM179.275 9.98418C178.728 9.98418 178.276 9.5324 178.276 9.00928C178.276 8.46239 178.728 7.98682 179.275 7.98682C179.798 7.98682 180.274 8.46239 180.274 9.00928C180.274 9.5324 179.798 9.98418 179.275 9.98418ZM178.728 24.893V13.4796H179.822V24.893H178.728ZM184.535 24.893H183.441V13.4796H184.321L184.559 15.6909C185.32 14.0978 186.889 13.1942 188.601 13.1942C191.835 13.1942 193.047 15.0965 193.047 17.9498V24.893H191.954V18.1638C191.954 15.144 190.646 14.1929 188.577 14.1929C185.985 14.1929 184.535 16.1189 184.535 18.9961V24.893Z" fill="#222222"/>
</svg>
