<svg width="155" height="32" viewBox="0 0 155 32" fill="none" xmlns="http://www.w3.org/2000/svg">
<path fill-rule="evenodd" clip-rule="evenodd" d="M39.9708 2.38394C42.3633 3.04195 48.5574 5.56503 47.8204 13.9395C47.4236 16.0919 46.3816 18.0727 44.8327 19.6189C43.2838 21.1652 41.3012 22.2038 39.1481 22.5968L33.7268 22.5918C33.4472 22.5916 33.1723 22.5202 32.9279 22.3844C32.6835 22.2485 32.4778 22.0527 32.33 21.8154C32.1822 21.5781 32.0973 21.307 32.0832 21.0278C32.0691 20.7486 32.1263 20.4703 32.2494 20.2193C32.2494 20.2193 34.1145 15.8378 34.2193 15.6216C34.3538 15.3423 34.5645 15.1067 34.827 14.9419C35.0896 14.777 35.3933 14.6897 35.7033 14.6899C36.6126 14.6899 37.8546 14.7115 37.8546 14.7115C37.8546 14.7115 39.5183 14.9985 39.6897 12.8722L39.7421 12.2159C39.8069 11.6898 39.6985 11.1569 39.4332 10.6981C39.168 10.2392 38.7604 9.87923 38.2722 9.67282L37.5534 9.61875C36.3447 9.57133 36.9486 8.21122 36.9495 8.20456L38.6673 3.49532C38.6673 3.49532 39.0558 1.79747 39.9708 2.38394Z" fill="#9E9E9E"/>
<path fill-rule="evenodd" clip-rule="evenodd" d="M9.90483 21.5114C9.74779 21.2021 9.67482 20.8571 9.69322 20.5107C9.71161 20.1644 9.82074 19.829 10.0096 19.5382C10.3624 18.9974 16.2279 4.14848 16.2279 4.14848C16.3982 3.57196 16.7526 3.06705 17.2369 2.7109C17.7212 2.35474 18.3088 2.16691 18.9099 2.1761H24.1781C24.4129 2.17664 24.6439 2.23495 24.8508 2.34591C25.0576 2.45686 25.234 2.61704 25.3643 2.8123C25.4946 3.00756 25.5749 3.2319 25.5979 3.46551C25.621 3.69912 25.5862 3.93482 25.4966 4.1518C25.4966 4.1518 16.2254 27.9958 16.1339 28.2005C16.0025 28.4945 15.7878 28.7436 15.5163 28.917C15.2449 29.0903 14.9285 29.1802 14.6065 29.1756C14.2844 29.171 13.9708 29.0721 13.7044 28.8911C13.4379 28.7101 13.2304 28.4549 13.1075 28.1572C13.1075 28.1572 10.2318 22.1519 9.90483 21.5114Z" fill="#888888"/>
<path fill-rule="evenodd" clip-rule="evenodd" d="M21.7588 21.5114C21.6018 21.2021 21.5288 20.8571 21.5472 20.5107C21.5656 20.1644 21.6747 19.829 21.8636 19.5382C22.2164 18.9974 27.4231 4.14848 27.4231 4.14848C27.5934 3.57196 27.9478 3.06705 28.4321 2.7109C28.9164 2.35474 29.5039 2.16691 30.105 2.1761H35.3733C35.6079 2.17691 35.8387 2.23543 36.0454 2.34649C36.252 2.45756 36.4282 2.61777 36.5583 2.81299C36.6884 3.00821 36.7685 3.23244 36.7915 3.46592C36.8145 3.6994 36.7797 3.93495 36.6901 4.1518C36.6901 4.1518 27.4197 27.9958 27.3266 28.2005C27.1952 28.4945 26.9805 28.7436 26.709 28.917C26.4375 29.0903 26.1212 29.1802 25.7991 29.1756C25.4771 29.171 25.1634 29.0721 24.897 28.8911C24.6306 28.7101 24.4231 28.4549 24.3002 28.1572C24.3002 28.1572 22.0858 22.1519 21.7588 21.5114Z" fill="#9E9E9E"/>
<path fill-rule="evenodd" clip-rule="evenodd" d="M12.6537 2.17676C12.9238 2.1768 13.1898 2.24326 13.4282 2.3703C13.6665 2.49734 13.87 2.68105 14.0206 2.90525C14.1713 3.12945 14.2645 3.38726 14.292 3.65596C14.3195 3.92466 14.2806 4.19602 14.1785 4.44611L9.57994 14.956C9.45815 15.2703 9.24286 15.5397 8.96315 15.7277C8.68344 15.9158 8.35275 16.0135 8.01574 16.0077C7.67873 16.0019 7.35161 15.8929 7.07854 15.6953C6.80546 15.4977 6.59959 15.2211 6.48869 14.9028C6.44627 14.7705 1.8851 4.15163 1.8851 4.15163C1.82039 3.97842 1.78742 3.79497 1.78777 3.61008C1.77289 3.24553 1.90314 2.88995 2.14999 2.62127C2.39683 2.3526 2.74012 2.19275 3.10463 2.17676H12.6537Z" fill="#5A5A5A"/>
<path fill-rule="evenodd" clip-rule="evenodd" d="M74.4282 18.9217L70.9393 8.1001H67.7799L64.3122 18.8758L61.4408 8.1001H58.2178L62.5687 23.7584H65.7484L69.3265 12.6056L72.9028 23.7584H76.0392L80.3672 8.1001H77.2554L74.4282 18.9217ZM86.7178 12.8485C86.4905 12.8221 86.262 12.8073 86.0332 12.8043C85.4086 12.7577 84.7839 12.8935 84.2351 13.1954C83.6862 13.4972 83.2369 13.9521 82.9418 14.5046V12.8926H80.0925V23.7567H83.0302V18.7893C83.0302 16.4486 84.333 15.7191 85.8345 15.7191C86.1311 15.7188 86.4271 15.7484 86.7178 15.8074V12.8485ZM87.4155 20.7978C87.4155 22.498 88.8287 24.0658 91.1482 24.0658C91.7757 24.0972 92.4007 23.9652 92.9619 23.6826C93.5231 23.4001 94.0014 22.9767 94.35 22.4539C94.3481 22.8906 94.385 23.3265 94.4604 23.7567H97.1552C97.0703 23.1864 97.026 22.6109 97.0227 22.0343V16.6906C97.0227 14.5046 95.7411 12.5605 92.2964 12.5605C89.3817 12.5605 87.813 14.4375 87.6363 16.1386L90.242 16.6906C90.2834 16.1812 90.5254 15.7089 90.9147 15.3777C91.304 15.0465 91.8089 14.8834 92.3185 14.9241C93.555 14.9241 94.1512 15.5645 94.1512 16.3373C94.1517 16.4427 94.1305 16.5471 94.089 16.644C94.0475 16.7409 93.9866 16.8282 93.91 16.9006C93.8335 16.9731 93.7429 17.029 93.6438 17.0651C93.5448 17.1011 93.4394 17.1165 93.3342 17.1102L90.6624 17.5077C88.8508 17.7726 87.4155 18.8546 87.4155 20.7978ZM91.7664 21.8798C91.5892 21.899 91.4098 21.8809 91.2399 21.8266C91.0701 21.7722 90.9135 21.6829 90.7804 21.5643C90.6472 21.4456 90.5404 21.3004 90.4668 21.138C90.3932 20.9755 90.3545 20.7995 90.3532 20.6211C90.3541 20.262 90.4957 19.9174 90.7477 19.6615C90.9997 19.4055 91.342 19.2586 91.7011 19.2521L94.1521 18.8767V19.3625C94.1512 21.2844 93.003 21.8798 91.7664 21.8798ZM101.798 27.953V22.6977C102.182 23.146 102.666 23.4991 103.21 23.7289C103.754 23.9588 104.344 24.0593 104.934 24.0225C108.003 24.0225 110.057 21.5936 110.057 18.3026C110.057 15.0778 108.223 12.6497 105.044 12.6497C104.4 12.6065 103.757 12.7277 103.173 13.002C102.59 13.2763 102.086 13.6946 101.708 14.2175V12.8926H98.8599V27.9539H101.797L101.798 27.953ZM107.164 18.3255C107.164 20.2687 105.972 21.3957 104.47 21.3957C102.969 21.3957 101.753 20.2475 101.753 18.3255C101.753 16.4036 102.968 15.2783 104.47 15.2783C105.973 15.2783 107.164 16.4036 107.164 18.3255ZM114.332 15.2342V10.7499H116.74C117.054 10.7103 117.373 10.7398 117.675 10.8361C117.977 10.9325 118.254 11.0935 118.487 11.3078C118.721 11.5222 118.904 11.7848 119.026 12.0774C119.147 12.37 119.203 12.6856 119.191 13.0022C119.199 13.3166 119.14 13.6292 119.017 13.9186C118.893 14.208 118.709 14.4674 118.476 14.6791C118.244 14.8908 117.968 15.0498 117.668 15.1453C117.369 15.2408 117.052 15.2705 116.74 15.2324H114.327L114.332 15.2342ZM117.115 17.8627C120.206 17.8627 122.261 15.8312 122.261 12.9819C122.261 10.1554 120.206 8.10099 117.115 8.10099H111.263V23.7584H114.31V17.8618L117.115 17.8627ZM126.16 23.7593V12.8953H123.223V23.7593H126.163H126.16ZM122.869 9.33666C122.874 9.6938 122.984 10.0417 123.185 10.3365C123.387 10.6314 123.671 10.86 124.002 10.9937C124.334 11.1273 124.697 11.1601 125.047 11.0877C125.396 11.0154 125.717 10.8412 125.968 10.5871C126.219 10.3331 126.389 10.0104 126.457 9.65978C126.525 9.30916 126.488 8.94623 126.351 8.61666C126.213 8.28709 125.981 8.00559 125.684 7.80759C125.386 7.60959 125.037 7.50393 124.68 7.50391C124.441 7.50436 124.203 7.55224 123.983 7.64478C123.762 7.73731 123.561 7.87268 123.393 8.04307C123.225 8.21346 123.092 8.41549 123.002 8.63751C122.912 8.85954 122.867 9.09716 122.869 9.33666ZM127.109 23.7584H130.422C130.797 23.1622 132.255 21.0204 132.652 20.4233L134.927 23.7584H138.371L134.44 18.2151L138.238 12.8926H134.907L132.765 16.1174C132.39 15.5212 130.977 13.4888 130.601 12.8926H127.108L130.973 18.3035L127.109 23.7584ZM140.638 17.089C140.691 16.4887 140.973 15.9318 141.425 15.5332C141.877 15.1346 142.465 14.9248 143.067 14.9471C143.37 14.913 143.677 14.9428 143.968 15.0345C144.259 15.1263 144.527 15.2779 144.756 15.4796C144.985 15.6814 145.169 15.9288 145.297 16.206C145.424 16.4831 145.492 16.7839 145.497 17.089H140.639H140.638ZM145.784 19.9154C145.618 20.4295 145.284 20.8726 144.835 21.1732C144.386 21.4737 143.849 21.6141 143.311 21.5715C142.622 21.596 141.951 21.3515 141.44 20.8898C140.929 20.4282 140.618 19.7856 140.572 19.0984H148.345C148.345 19.0542 148.389 18.6126 148.389 18.1931C148.389 14.7033 146.38 12.5614 143.023 12.5614C142.293 12.5755 141.573 12.7358 140.906 13.033C140.24 13.3301 139.639 13.7581 139.141 14.2914C138.643 14.8248 138.256 15.4528 138.005 16.1381C137.754 16.8235 137.643 17.5523 137.678 18.2814C137.636 19.0383 137.751 19.7958 138.015 20.5063C138.28 21.2168 138.688 21.865 139.215 22.4103C139.741 22.9556 140.375 23.3863 141.076 23.6752C141.777 23.9642 142.53 24.1053 143.288 24.0897C144.378 24.1499 145.458 23.8436 146.354 23.2193C147.25 22.5951 147.912 21.6888 148.234 20.645L145.784 19.9154ZM152.215 23.7584V7.76888H149.278V23.7558H152.215V23.7584Z" fill="#333333"/>
</svg>
