<svg width="176" height="138" viewBox="0 0 176 138" fill="none" xmlns="http://www.w3.org/2000/svg">
<rect x="0.5" y="0.5" width="175" height="25" rx="9.5" stroke="white" stroke-opacity="0.2"/>
<path d="M8.75 16V9H9.59V16H8.75ZM12.5438 16.12C12.1238 16.12 11.7571 16.05 11.4438 15.91C11.1371 15.77 10.8904 15.5767 10.7038 15.33C10.5238 15.0767 10.4138 14.78 10.3738 14.44H11.2338C11.2671 14.6133 11.3371 14.7733 11.4438 14.92C11.5504 15.0667 11.6938 15.1867 11.8738 15.28C12.0604 15.3667 12.2871 15.41 12.5538 15.41C12.7871 15.41 12.9804 15.3767 13.1338 15.31C13.2871 15.2367 13.4004 15.14 13.4738 15.02C13.5538 14.9 13.5938 14.77 13.5938 14.63C13.5938 14.4233 13.5438 14.2667 13.4438 14.16C13.3504 14.0533 13.2104 13.97 13.0238 13.91C12.8371 13.8433 12.6104 13.7867 12.3438 13.74C12.1238 13.7 11.9071 13.6467 11.6938 13.58C11.4804 13.5133 11.2904 13.4267 11.1238 13.32C10.9571 13.2067 10.8238 13.07 10.7238 12.91C10.6304 12.75 10.5838 12.5533 10.5838 12.32C10.5838 12.0333 10.6571 11.78 10.8038 11.56C10.9504 11.3333 11.1604 11.1567 11.4338 11.03C11.7138 10.9033 12.0371 10.84 12.4038 10.84C12.9438 10.84 13.3804 10.97 13.7138 11.23C14.0471 11.49 14.2438 11.8667 14.3038 12.36H13.4738C13.4404 12.1067 13.3304 11.91 13.1438 11.77C12.9638 11.6233 12.7138 11.55 12.3938 11.55C12.0804 11.55 11.8404 11.6133 11.6738 11.74C11.5138 11.8667 11.4338 12.0333 11.4338 12.24C11.4338 12.3733 11.4771 12.4933 11.5638 12.6C11.6571 12.7 11.7904 12.7867 11.9638 12.86C12.1438 12.9333 12.3638 12.9933 12.6238 13.04C12.9571 13.1 13.2604 13.18 13.5338 13.28C13.8071 13.38 14.0271 13.53 14.1938 13.73C14.3671 13.9233 14.4538 14.2 14.4538 14.56C14.4538 14.8733 14.3738 15.1467 14.2138 15.38C14.0604 15.6133 13.8404 15.7967 13.5538 15.93C13.2671 16.0567 12.9304 16.12 12.5438 16.12ZM17.5995 16V10.96H18.4395V16H17.5995ZM18.0195 9.89C17.8529 9.89 17.7129 9.83667 17.5995 9.73C17.4929 9.61667 17.4395 9.47667 17.4395 9.31C17.4395 9.14333 17.4929 9.01 17.5995 8.91C17.7129 8.80333 17.8529 8.75 18.0195 8.75C18.1795 8.75 18.3162 8.80333 18.4295 8.91C18.5429 9.01 18.5995 9.14333 18.5995 9.31C18.5995 9.47667 18.5429 9.61667 18.4295 9.73C18.3162 9.83667 18.1795 9.89 18.0195 9.89ZM21.5019 16C21.2019 16 20.9419 15.9533 20.7219 15.86C20.5019 15.7667 20.3319 15.61 20.2119 15.39C20.0985 15.1633 20.0419 14.86 20.0419 14.48V11.67H19.1619V10.96H20.0419L20.1519 9.74H20.8819V10.96H22.3419V11.67H20.8819V14.48C20.8819 14.7933 20.9452 15.0067 21.0719 15.12C21.1985 15.2267 21.4219 15.28 21.7419 15.28H22.2819V16H21.5019ZM26.9341 16.12C26.5275 16.12 26.1875 16.05 25.9141 15.91C25.6408 15.7633 25.4375 15.5733 25.3041 15.34C25.1708 15.1 25.1041 14.84 25.1041 14.56C25.1041 14.22 25.1908 13.9333 25.3641 13.7C25.5441 13.46 25.7941 13.28 26.1141 13.16C26.4408 13.0333 26.8241 12.97 27.2641 12.97H28.5941C28.5941 12.6567 28.5441 12.3967 28.4441 12.19C28.3508 11.9767 28.2108 11.8167 28.0241 11.71C27.8441 11.6033 27.6175 11.55 27.3441 11.55C27.0241 11.55 26.7475 11.63 26.5141 11.79C26.2808 11.95 26.1375 12.1867 26.0841 12.5H25.2241C25.2641 12.14 25.3841 11.84 25.5841 11.6C25.7908 11.3533 26.0508 11.1667 26.3641 11.04C26.6775 10.9067 27.0041 10.84 27.3441 10.84C27.8108 10.84 28.1975 10.9267 28.5041 11.1C28.8175 11.2667 29.0508 11.5033 29.2041 11.81C29.3575 12.11 29.4341 12.4667 29.4341 12.88V16H28.6841L28.6341 15.11C28.5675 15.25 28.4808 15.3833 28.3741 15.51C28.2741 15.63 28.1541 15.7367 28.0141 15.83C27.8741 15.9167 27.7141 15.9867 27.5341 16.04C27.3608 16.0933 27.1608 16.12 26.9341 16.12ZM27.0641 15.41C27.2975 15.41 27.5075 15.3633 27.6941 15.27C27.8875 15.17 28.0508 15.0367 28.1841 14.87C28.3175 14.6967 28.4175 14.5067 28.4841 14.3C28.5575 14.0933 28.5941 13.8767 28.5941 13.65V13.62H27.3341C27.0075 13.62 26.7441 13.66 26.5441 13.74C26.3441 13.8133 26.2008 13.92 26.1141 14.06C26.0275 14.1933 25.9841 14.3467 25.9841 14.52C25.9841 14.7 26.0241 14.8567 26.1041 14.99C26.1908 15.1233 26.3141 15.2267 26.4741 15.3C26.6408 15.3733 26.8375 15.41 27.0641 15.41ZM32.6036 16.12C32.1303 16.12 31.7036 16.01 31.3236 15.79C30.9503 15.57 30.6569 15.2633 30.4436 14.87C30.2303 14.47 30.1236 14.01 30.1236 13.49C30.1236 12.9567 30.2303 12.4933 30.4436 12.1C30.6569 11.7067 30.9503 11.4 31.3236 11.18C31.7036 10.9533 32.1303 10.84 32.6036 10.84C33.2036 10.84 33.7036 10.9967 34.1036 11.31C34.5036 11.6167 34.7569 12.03 34.8636 12.55H34.0036C33.9369 12.2367 33.7736 11.9933 33.5136 11.82C33.2536 11.6467 32.9469 11.56 32.5936 11.56C32.3069 11.56 32.0403 11.6333 31.7936 11.78C31.5469 11.92 31.3503 12.1333 31.2036 12.42C31.0569 12.7067 30.9836 13.06 30.9836 13.48C30.9836 13.7933 31.0269 14.0733 31.1136 14.32C31.2003 14.56 31.3169 14.76 31.4636 14.92C31.6103 15.08 31.7803 15.2033 31.9736 15.29C32.1736 15.37 32.3803 15.41 32.5936 15.41C32.8336 15.41 33.0503 15.3733 33.2436 15.3C33.4369 15.22 33.6003 15.1033 33.7336 14.95C33.8669 14.7967 33.9569 14.6167 34.0036 14.41H34.8636C34.7569 14.9167 34.5003 15.33 34.0936 15.65C33.6936 15.9633 33.1969 16.12 32.6036 16.12ZM37.9262 16.12C37.4529 16.12 37.0262 16.01 36.6462 15.79C36.2729 15.57 35.9796 15.2633 35.7662 14.87C35.5529 14.47 35.4462 14.01 35.4462 13.49C35.4462 12.9567 35.5529 12.4933 35.7662 12.1C35.9796 11.7067 36.2729 11.4 36.6462 11.18C37.0262 10.9533 37.4529 10.84 37.9262 10.84C38.5262 10.84 39.0262 10.9967 39.4262 11.31C39.8262 11.6167 40.0796 12.03 40.1862 12.55H39.3262C39.2596 12.2367 39.0962 11.9933 38.8362 11.82C38.5762 11.6467 38.2696 11.56 37.9162 11.56C37.6296 11.56 37.3629 11.6333 37.1162 11.78C36.8696 11.92 36.6729 12.1333 36.5262 12.42C36.3796 12.7067 36.3062 13.06 36.3062 13.48C36.3062 13.7933 36.3496 14.0733 36.4362 14.32C36.5229 14.56 36.6396 14.76 36.7862 14.92C36.9329 15.08 37.1029 15.2033 37.2962 15.29C37.4962 15.37 37.7029 15.41 37.9162 15.41C38.1562 15.41 38.3729 15.3733 38.5662 15.3C38.7596 15.22 38.9229 15.1033 39.0562 14.95C39.1896 14.7967 39.2796 14.6167 39.3262 14.41H40.1862C40.0796 14.9167 39.8229 15.33 39.4162 15.65C39.0162 15.9633 38.5196 16.12 37.9262 16.12ZM43.1889 16.12C42.7156 16.12 42.2956 16.01 41.9289 15.79C41.5689 15.57 41.2856 15.2633 41.0789 14.87C40.8722 14.47 40.7689 14.0067 40.7689 13.48C40.7689 12.9467 40.8689 12.4833 41.0689 12.09C41.2756 11.6967 41.5622 11.39 41.9289 11.17C42.3022 10.95 42.7289 10.84 43.2089 10.84C43.7022 10.84 44.1189 10.95 44.4589 11.17C44.8056 11.39 45.0689 11.68 45.2489 12.04C45.4356 12.3933 45.5289 12.7833 45.5289 13.21C45.5289 13.2767 45.5289 13.3467 45.5289 13.42C45.5289 13.4933 45.5256 13.5767 45.5189 13.67H41.3989V13.02H44.7089C44.6889 12.56 44.5356 12.2 44.2489 11.94C43.9689 11.68 43.6156 11.55 43.1889 11.55C42.9022 11.55 42.6356 11.6167 42.3889 11.75C42.1489 11.8767 41.9556 12.0667 41.8089 12.32C41.6622 12.5667 41.5889 12.8767 41.5889 13.25V13.53C41.5889 13.9433 41.6622 14.29 41.8089 14.57C41.9622 14.85 42.1589 15.06 42.3989 15.2C42.6456 15.34 42.9089 15.41 43.1889 15.41C43.5422 15.41 43.8322 15.3333 44.0589 15.18C44.2922 15.02 44.4589 14.8067 44.5589 14.54H45.3889C45.3089 14.84 45.1689 15.11 44.9689 15.35C44.7689 15.59 44.5189 15.78 44.2189 15.92C43.9256 16.0533 43.5822 16.12 43.1889 16.12ZM48.1625 16.12C47.7425 16.12 47.3758 16.05 47.0625 15.91C46.7558 15.77 46.5092 15.5767 46.3225 15.33C46.1425 15.0767 46.0325 14.78 45.9925 14.44H46.8525C46.8858 14.6133 46.9558 14.7733 47.0625 14.92C47.1692 15.0667 47.3125 15.1867 47.4925 15.28C47.6792 15.3667 47.9058 15.41 48.1725 15.41C48.4058 15.41 48.5992 15.3767 48.7525 15.31C48.9058 15.2367 49.0192 15.14 49.0925 15.02C49.1725 14.9 49.2125 14.77 49.2125 14.63C49.2125 14.4233 49.1625 14.2667 49.0625 14.16C48.9692 14.0533 48.8292 13.97 48.6425 13.91C48.4558 13.8433 48.2292 13.7867 47.9625 13.74C47.7425 13.7 47.5258 13.6467 47.3125 13.58C47.0992 13.5133 46.9092 13.4267 46.7425 13.32C46.5758 13.2067 46.4425 13.07 46.3425 12.91C46.2492 12.75 46.2025 12.5533 46.2025 12.32C46.2025 12.0333 46.2758 11.78 46.4225 11.56C46.5692 11.3333 46.7792 11.1567 47.0525 11.03C47.3325 10.9033 47.6558 10.84 48.0225 10.84C48.5625 10.84 48.9992 10.97 49.3325 11.23C49.6658 11.49 49.8625 11.8667 49.9225 12.36H49.0925C49.0592 12.1067 48.9492 11.91 48.7625 11.77C48.5825 11.6233 48.3325 11.55 48.0125 11.55C47.6992 11.55 47.4592 11.6133 47.2925 11.74C47.1325 11.8667 47.0525 12.0333 47.0525 12.24C47.0525 12.3733 47.0958 12.4933 47.1825 12.6C47.2758 12.7 47.4092 12.7867 47.5825 12.86C47.7625 12.9333 47.9825 12.9933 48.2425 13.04C48.5758 13.1 48.8792 13.18 49.1525 13.28C49.4258 13.38 49.6458 13.53 49.8125 13.73C49.9858 13.9233 50.0725 14.2 50.0725 14.56C50.0725 14.8733 49.9925 15.1467 49.8325 15.38C49.6792 15.6133 49.4592 15.7967 49.1725 15.93C48.8858 16.0567 48.5492 16.12 48.1625 16.12ZM52.782 16.12C52.362 16.12 51.9954 16.05 51.682 15.91C51.3754 15.77 51.1287 15.5767 50.942 15.33C50.762 15.0767 50.652 14.78 50.612 14.44H51.472C51.5054 14.6133 51.5754 14.7733 51.682 14.92C51.7887 15.0667 51.932 15.1867 52.112 15.28C52.2987 15.3667 52.5254 15.41 52.792 15.41C53.0254 15.41 53.2187 15.3767 53.372 15.31C53.5254 15.2367 53.6387 15.14 53.712 15.02C53.792 14.9 53.832 14.77 53.832 14.63C53.832 14.4233 53.782 14.2667 53.682 14.16C53.5887 14.0533 53.4487 13.97 53.262 13.91C53.0754 13.8433 52.8487 13.7867 52.582 13.74C52.362 13.7 52.1454 13.6467 51.932 13.58C51.7187 13.5133 51.5287 13.4267 51.362 13.32C51.1954 13.2067 51.062 13.07 50.962 12.91C50.8687 12.75 50.822 12.5533 50.822 12.32C50.822 12.0333 50.8954 11.78 51.042 11.56C51.1887 11.3333 51.3987 11.1567 51.672 11.03C51.952 10.9033 52.2754 10.84 52.642 10.84C53.182 10.84 53.6187 10.97 53.952 11.23C54.2854 11.49 54.482 11.8667 54.542 12.36H53.712C53.6787 12.1067 53.5687 11.91 53.382 11.77C53.202 11.6233 52.952 11.55 52.632 11.55C52.3187 11.55 52.0787 11.6133 51.912 11.74C51.752 11.8667 51.672 12.0333 51.672 12.24C51.672 12.3733 51.7154 12.4933 51.802 12.6C51.8954 12.7 52.0287 12.7867 52.202 12.86C52.382 12.9333 52.602 12.9933 52.862 13.04C53.1954 13.1 53.4987 13.18 53.772 13.28C54.0454 13.38 54.2654 13.53 54.432 13.73C54.6054 13.9233 54.692 14.2 54.692 14.56C54.692 14.8733 54.612 15.1467 54.452 15.38C54.2987 15.6133 54.0787 15.7967 53.792 15.93C53.5054 16.0567 53.1687 16.12 52.782 16.12ZM55.5816 16V10.96H56.4216V16H55.5816ZM56.0016 9.89C55.8349 9.89 55.6949 9.83667 55.5816 9.73C55.4749 9.61667 55.4216 9.47667 55.4216 9.31C55.4216 9.14333 55.4749 9.01 55.5816 8.91C55.6949 8.80333 55.8349 8.75 56.0016 8.75C56.1616 8.75 56.2982 8.80333 56.4116 8.91C56.5249 9.01 56.5816 9.14333 56.5816 9.31C56.5816 9.47667 56.5249 9.61667 56.4116 9.73C56.2982 9.83667 56.1616 9.89 56.0016 9.89ZM60.1439 16.12C59.8572 16.12 59.5972 16.08 59.3639 16C59.1372 15.9133 58.9372 15.8 58.7639 15.66C58.5906 15.52 58.4472 15.3567 58.3339 15.17L58.2639 16H57.5039V8.8H58.3439V11.79C58.5039 11.53 58.7339 11.3067 59.0339 11.12C59.3339 10.9333 59.7039 10.84 60.1439 10.84C60.6306 10.84 61.0572 10.9567 61.4239 11.19C61.7906 11.4167 62.0739 11.73 62.2739 12.13C62.4806 12.5233 62.5839 12.9733 62.5839 13.48C62.5839 13.9867 62.4806 14.44 62.2739 14.84C62.0739 15.24 61.7906 15.5533 61.4239 15.78C61.0572 16.0067 60.6306 16.12 60.1439 16.12ZM60.0439 15.39C60.3706 15.39 60.6606 15.31 60.9139 15.15C61.1672 14.99 61.3639 14.77 61.5039 14.49C61.6506 14.2033 61.7239 13.8667 61.7239 13.48C61.7239 13.1 61.6506 12.7667 61.5039 12.48C61.3639 12.1933 61.1672 11.97 60.9139 11.81C60.6606 11.65 60.3706 11.57 60.0439 11.57C59.7106 11.57 59.4172 11.65 59.1639 11.81C58.9106 11.97 58.7139 12.1933 58.5739 12.48C58.4339 12.7667 58.3639 13.1 58.3639 13.48C58.3639 13.8667 58.4339 14.2033 58.5739 14.49C58.7139 14.77 58.9106 14.99 59.1639 15.15C59.4172 15.31 59.7106 15.39 60.0439 15.39ZM63.3637 16V8.8H64.2037V16H63.3637ZM67.4002 16.12C66.9269 16.12 66.5069 16.01 66.1402 15.79C65.7802 15.57 65.4969 15.2633 65.2902 14.87C65.0836 14.47 64.9802 14.0067 64.9802 13.48C64.9802 12.9467 65.0802 12.4833 65.2802 12.09C65.4869 11.6967 65.7736 11.39 66.1402 11.17C66.5136 10.95 66.9402 10.84 67.4202 10.84C67.9136 10.84 68.3302 10.95 68.6702 11.17C69.0169 11.39 69.2802 11.68 69.4602 12.04C69.6469 12.3933 69.7402 12.7833 69.7402 13.21C69.7402 13.2767 69.7402 13.3467 69.7402 13.42C69.7402 13.4933 69.7369 13.5767 69.7302 13.67H65.6102V13.02H68.9202C68.9002 12.56 68.7469 12.2 68.4602 11.94C68.1802 11.68 67.8269 11.55 67.4002 11.55C67.1136 11.55 66.8469 11.6167 66.6002 11.75C66.3602 11.8767 66.1669 12.0667 66.0202 12.32C65.8736 12.5667 65.8002 12.8767 65.8002 13.25V13.53C65.8002 13.9433 65.8736 14.29 66.0202 14.57C66.1736 14.85 66.3702 15.06 66.6102 15.2C66.8569 15.34 67.1202 15.41 67.4002 15.41C67.7536 15.41 68.0436 15.3333 68.2702 15.18C68.5036 15.02 68.6702 14.8067 68.7702 14.54H69.6002C69.5202 14.84 69.3802 15.11 69.1802 15.35C68.9802 15.59 68.7302 15.78 68.4302 15.92C68.1369 16.0533 67.7936 16.12 67.4002 16.12ZM71.1585 13.99L71.1185 12.43H71.4285C71.7085 12.43 71.9752 12.4133 72.2285 12.38C72.4885 12.34 72.7152 12.27 72.9085 12.17C73.1085 12.0633 73.2652 11.91 73.3785 11.71C73.4985 11.51 73.5585 11.25 73.5585 10.93C73.5585 10.65 73.4985 10.41 73.3785 10.21C73.2585 10.01 73.0918 9.85667 72.8785 9.75C72.6652 9.64333 72.4185 9.59 72.1385 9.59C71.8585 9.59 71.6118 9.64333 71.3985 9.75C71.1852 9.85667 71.0185 10.0067 70.8985 10.2C70.7852 10.3867 70.7285 10.6133 70.7285 10.88H69.9285C69.9285 10.48 70.0218 10.13 70.2085 9.83C70.3952 9.53 70.6552 9.29667 70.9885 9.13C71.3218 8.96333 71.7052 8.88 72.1385 8.88C72.5718 8.88 72.9552 8.96333 73.2885 9.13C73.6285 9.29667 73.8918 9.53333 74.0785 9.84C74.2718 10.1467 74.3685 10.51 74.3685 10.93C74.3685 11.4233 74.2618 11.8233 74.0485 12.13C73.8418 12.4367 73.5552 12.66 73.1885 12.8C72.8218 12.94 72.3985 13.01 71.9185 13.01L71.8885 13.99H71.1585ZM71.5185 16.05C71.3518 16.05 71.2118 15.9967 71.0985 15.89C70.9918 15.7767 70.9385 15.64 70.9385 15.48C70.9385 15.32 70.9918 15.1867 71.0985 15.08C71.2118 14.9667 71.3518 14.91 71.5185 14.91C71.6852 14.91 71.8218 14.9667 71.9285 15.08C72.0352 15.1867 72.0885 15.32 72.0885 15.48C72.0885 15.64 72.0352 15.7767 71.9285 15.89C71.8218 15.9967 71.6852 16.05 71.5185 16.05Z" fill="white" fill-opacity="0.5"/>
<path d="M162 9.5V16.5M158.5 13H165.5" stroke="white" stroke-opacity="0.5" stroke-linecap="round" stroke-linejoin="round"/>
<rect x="0.5" y="32.5" width="175" height="73" rx="9.5" stroke="white" stroke-opacity="0.2"/>
<path d="M8.75 48V41H9.59V48H8.75ZM12.5438 48.12C12.1238 48.12 11.7571 48.05 11.4438 47.91C11.1371 47.77 10.8904 47.5767 10.7038 47.33C10.5238 47.0767 10.4138 46.78 10.3738 46.44H11.2338C11.2671 46.6133 11.3371 46.7733 11.4438 46.92C11.5504 47.0667 11.6938 47.1867 11.8738 47.28C12.0604 47.3667 12.2871 47.41 12.5538 47.41C12.7871 47.41 12.9804 47.3767 13.1338 47.31C13.2871 47.2367 13.4004 47.14 13.4738 47.02C13.5538 46.9 13.5938 46.77 13.5938 46.63C13.5938 46.4233 13.5438 46.2667 13.4438 46.16C13.3504 46.0533 13.2104 45.97 13.0238 45.91C12.8371 45.8433 12.6104 45.7867 12.3438 45.74C12.1238 45.7 11.9071 45.6467 11.6938 45.58C11.4804 45.5133 11.2904 45.4267 11.1238 45.32C10.9571 45.2067 10.8238 45.07 10.7238 44.91C10.6304 44.75 10.5838 44.5533 10.5838 44.32C10.5838 44.0333 10.6571 43.78 10.8038 43.56C10.9504 43.3333 11.1604 43.1567 11.4338 43.03C11.7138 42.9033 12.0371 42.84 12.4038 42.84C12.9438 42.84 13.3804 42.97 13.7138 43.23C14.0471 43.49 14.2438 43.8667 14.3038 44.36H13.4738C13.4404 44.1067 13.3304 43.91 13.1438 43.77C12.9638 43.6233 12.7138 43.55 12.3938 43.55C12.0804 43.55 11.8404 43.6133 11.6738 43.74C11.5138 43.8667 11.4338 44.0333 11.4338 44.24C11.4338 44.3733 11.4771 44.4933 11.5638 44.6C11.6571 44.7 11.7904 44.7867 11.9638 44.86C12.1438 44.9333 12.3638 44.9933 12.6238 45.04C12.9571 45.1 13.2604 45.18 13.5338 45.28C13.8071 45.38 14.0271 45.53 14.1938 45.73C14.3671 45.9233 14.4538 46.2 14.4538 46.56C14.4538 46.8733 14.3738 47.1467 14.2138 47.38C14.0604 47.6133 13.8404 47.7967 13.5538 47.93C13.2671 48.0567 12.9304 48.12 12.5438 48.12ZM17.5995 48V42.96H18.4395V48H17.5995ZM18.0195 41.89C17.8529 41.89 17.7129 41.8367 17.5995 41.73C17.4929 41.6167 17.4395 41.4767 17.4395 41.31C17.4395 41.1433 17.4929 41.01 17.5995 40.91C17.7129 40.8033 17.8529 40.75 18.0195 40.75C18.1795 40.75 18.3162 40.8033 18.4295 40.91C18.5429 41.01 18.5995 41.1433 18.5995 41.31C18.5995 41.4767 18.5429 41.6167 18.4295 41.73C18.3162 41.8367 18.1795 41.89 18.0195 41.89ZM21.5019 48C21.2019 48 20.9419 47.9533 20.7219 47.86C20.5019 47.7667 20.3319 47.61 20.2119 47.39C20.0985 47.1633 20.0419 46.86 20.0419 46.48V43.67H19.1619V42.96H20.0419L20.1519 41.74H20.8819V42.96H22.3419V43.67H20.8819V46.48C20.8819 46.7933 20.9452 47.0067 21.0719 47.12C21.1985 47.2267 21.4219 47.28 21.7419 47.28H22.2819V48H21.5019ZM27.1941 48.12C26.7741 48.12 26.4075 48.05 26.0941 47.91C25.7875 47.77 25.5408 47.5767 25.3541 47.33C25.1741 47.0767 25.0641 46.78 25.0241 46.44H25.8841C25.9175 46.6133 25.9875 46.7733 26.0941 46.92C26.2008 47.0667 26.3441 47.1867 26.5241 47.28C26.7108 47.3667 26.9375 47.41 27.2041 47.41C27.4375 47.41 27.6308 47.3767 27.7841 47.31C27.9375 47.2367 28.0508 47.14 28.1241 47.02C28.2041 46.9 28.2441 46.77 28.2441 46.63C28.2441 46.4233 28.1941 46.2667 28.0941 46.16C28.0008 46.0533 27.8608 45.97 27.6741 45.91C27.4875 45.8433 27.2608 45.7867 26.9941 45.74C26.7741 45.7 26.5575 45.6467 26.3441 45.58C26.1308 45.5133 25.9408 45.4267 25.7741 45.32C25.6075 45.2067 25.4741 45.07 25.3741 44.91C25.2808 44.75 25.2341 44.5533 25.2341 44.32C25.2341 44.0333 25.3075 43.78 25.4541 43.56C25.6008 43.3333 25.8108 43.1567 26.0841 43.03C26.3641 42.9033 26.6875 42.84 27.0541 42.84C27.5941 42.84 28.0308 42.97 28.3641 43.23C28.6975 43.49 28.8941 43.8667 28.9541 44.36H28.1241C28.0908 44.1067 27.9808 43.91 27.7941 43.77C27.6141 43.6233 27.3641 43.55 27.0441 43.55C26.7308 43.55 26.4908 43.6133 26.3241 43.74C26.1641 43.8667 26.0841 44.0333 26.0841 44.24C26.0841 44.3733 26.1275 44.4933 26.2141 44.6C26.3075 44.7 26.4408 44.7867 26.6141 44.86C26.7941 44.9333 27.0141 44.9933 27.2741 45.04C27.6075 45.1 27.9108 45.18 28.1841 45.28C28.4575 45.38 28.6775 45.53 28.8441 45.73C29.0175 45.9233 29.1041 46.2 29.1041 46.56C29.1041 46.8733 29.0241 47.1467 28.8641 47.38C28.7108 47.6133 28.4908 47.7967 28.2041 47.93C27.9175 48.0567 27.5808 48.12 27.1941 48.12ZM31.6691 48C31.3691 48 31.1091 47.9533 30.8891 47.86C30.6691 47.7667 30.4991 47.61 30.3791 47.39C30.2657 47.1633 30.2091 46.86 30.2091 46.48V43.67H29.3291V42.96H30.2091L30.3191 41.74H31.0491V42.96H32.5091V43.67H31.0491V46.48C31.0491 46.7933 31.1124 47.0067 31.2391 47.12C31.3657 47.2267 31.5891 47.28 31.9091 47.28H32.4491V48H31.6691ZM33.7551 50.2L34.9851 47.44H34.6951L32.7151 42.96H33.6251L35.2651 46.81L36.9851 42.96H37.8551L34.6351 50.2H33.7551ZM38.3617 48V40.8H39.2017V48H38.3617ZM42.3983 48.12C41.9249 48.12 41.5049 48.01 41.1383 47.79C40.7783 47.57 40.4949 47.2633 40.2883 46.87C40.0816 46.47 39.9783 46.0067 39.9783 45.48C39.9783 44.9467 40.0783 44.4833 40.2783 44.09C40.4849 43.6967 40.7716 43.39 41.1383 43.17C41.5116 42.95 41.9383 42.84 42.4183 42.84C42.9116 42.84 43.3283 42.95 43.6683 43.17C44.0149 43.39 44.2783 43.68 44.4583 44.04C44.6449 44.3933 44.7383 44.7833 44.7383 45.21C44.7383 45.2767 44.7383 45.3467 44.7383 45.42C44.7383 45.4933 44.7349 45.5767 44.7283 45.67H40.6083V45.02H43.9183C43.8983 44.56 43.7449 44.2 43.4583 43.94C43.1783 43.68 42.8249 43.55 42.3983 43.55C42.1116 43.55 41.8449 43.6167 41.5983 43.75C41.3583 43.8767 41.1649 44.0667 41.0183 44.32C40.8716 44.5667 40.7983 44.8767 40.7983 45.25V45.53C40.7983 45.9433 40.8716 46.29 41.0183 46.57C41.1716 46.85 41.3683 47.06 41.6083 47.2C41.8549 47.34 42.1183 47.41 42.3983 47.41C42.7516 47.41 43.0416 47.3333 43.2683 47.18C43.5016 47.02 43.6683 46.8067 43.7683 46.54H44.5983C44.5183 46.84 44.3783 47.11 44.1783 47.35C43.9783 47.59 43.7283 47.78 43.4283 47.92C43.1349 48.0533 42.7916 48.12 42.3983 48.12ZM47.6919 48.12C47.2052 48.12 46.7785 48.0067 46.4119 47.78C46.0452 47.5467 45.7619 47.23 45.5619 46.83C45.3619 46.43 45.2619 45.9767 45.2619 45.47C45.2619 44.9633 45.3619 44.5133 45.5619 44.12C45.7619 43.72 46.0452 43.4067 46.4119 43.18C46.7852 42.9533 47.2152 42.84 47.7019 42.84C48.1152 42.84 48.4752 42.9233 48.7819 43.09C49.0952 43.2567 49.3352 43.49 49.5019 43.79V40.8H50.3419V48H49.5819L49.5119 47.17C49.4052 47.3367 49.2685 47.4933 49.1019 47.64C48.9352 47.78 48.7352 47.8967 48.5019 47.99C48.2685 48.0767 47.9985 48.12 47.6919 48.12ZM47.7919 47.39C48.1252 47.39 48.4185 47.31 48.6719 47.15C48.9252 46.99 49.1219 46.77 49.2619 46.49C49.4019 46.2033 49.4719 45.8667 49.4719 45.48C49.4719 45.1 49.4019 44.7667 49.2619 44.48C49.1219 44.1933 48.9252 43.97 48.6719 43.81C48.4185 43.65 48.1252 43.57 47.7919 43.57C47.4652 43.57 47.1752 43.65 46.9219 43.81C46.6685 43.97 46.4719 44.1933 46.3319 44.48C46.1919 44.7667 46.1219 45.1 46.1219 45.48C46.1219 45.8667 46.1919 46.2033 46.3319 46.49C46.4719 46.77 46.6685 46.99 46.9219 47.15C47.1752 47.31 47.4652 47.39 47.7919 47.39ZM52.2214 45.99L52.1814 44.43H52.4914C52.7714 44.43 53.0381 44.4133 53.2914 44.38C53.5514 44.34 53.7781 44.27 53.9714 44.17C54.1714 44.0633 54.3281 43.91 54.4414 43.71C54.5614 43.51 54.6214 43.25 54.6214 42.93C54.6214 42.65 54.5614 42.41 54.4414 42.21C54.3214 42.01 54.1547 41.8567 53.9414 41.75C53.7281 41.6433 53.4814 41.59 53.2014 41.59C52.9214 41.59 52.6747 41.6433 52.4614 41.75C52.2481 41.8567 52.0814 42.0067 51.9614 42.2C51.8481 42.3867 51.7914 42.6133 51.7914 42.88H50.9914C50.9914 42.48 51.0847 42.13 51.2714 41.83C51.4581 41.53 51.7181 41.2967 52.0514 41.13C52.3847 40.9633 52.7681 40.88 53.2014 40.88C53.6347 40.88 54.0181 40.9633 54.3514 41.13C54.6914 41.2967 54.9547 41.5333 55.1414 41.84C55.3347 42.1467 55.4314 42.51 55.4314 42.93C55.4314 43.4233 55.3247 43.8233 55.1114 44.13C54.9047 44.4367 54.6181 44.66 54.2514 44.8C53.8847 44.94 53.4614 45.01 52.9814 45.01L52.9514 45.99H52.2214ZM52.5814 48.05C52.4147 48.05 52.2747 47.9967 52.1614 47.89C52.0547 47.7767 52.0014 47.64 52.0014 47.48C52.0014 47.32 52.0547 47.1867 52.1614 47.08C52.2747 46.9667 52.4147 46.91 52.5814 46.91C52.7481 46.91 52.8847 46.9667 52.9914 47.08C53.0981 47.1867 53.1514 47.32 53.1514 47.48C53.1514 47.64 53.0981 47.7767 52.9914 47.89C52.8847 47.9967 52.7481 48.05 52.5814 48.05Z" fill="white"/>
<path d="M165 42L159 48M159 42L165 48" stroke="white" stroke-linecap="round" stroke-linejoin="round"/>
<path d="M10.48 68V65.34L8.2 61H9.15L11.03 64.79H10.78L12.65 61H13.59L11.32 65.34V68H10.48ZM15.4416 68.12C14.9683 68.12 14.5483 68.01 14.1816 67.79C13.8216 67.57 13.5383 67.2633 13.3316 66.87C13.125 66.47 13.0216 66.0067 13.0216 65.48C13.0216 64.9467 13.1216 64.4833 13.3216 64.09C13.5283 63.6967 13.815 63.39 14.1816 63.17C14.555 62.95 14.9816 62.84 15.4616 62.84C15.955 62.84 16.3716 62.95 16.7116 63.17C17.0583 63.39 17.3216 63.68 17.5016 64.04C17.6883 64.3933 17.7816 64.7833 17.7816 65.21C17.7816 65.2767 17.7816 65.3467 17.7816 65.42C17.7816 65.4933 17.7783 65.5767 17.7716 65.67H13.6516V65.02H16.9616C16.9416 64.56 16.7883 64.2 16.5016 63.94C16.2216 63.68 15.8683 63.55 15.4416 63.55C15.155 63.55 14.8883 63.6167 14.6416 63.75C14.4016 63.8767 14.2083 64.0667 14.0616 64.32C13.915 64.5667 13.8416 64.8767 13.8416 65.25V65.53C13.8416 65.9433 13.915 66.29 14.0616 66.57C14.215 66.85 14.4116 67.06 14.6516 67.2C14.8983 67.34 15.1616 67.41 15.4416 67.41C15.795 67.41 16.085 67.3333 16.3116 67.18C16.545 67.02 16.7116 66.8067 16.8116 66.54H17.6416C17.5616 66.84 17.4216 67.11 17.2216 67.35C17.0216 67.59 16.7716 67.78 16.4716 67.92C16.1783 68.0533 15.835 68.12 15.4416 68.12ZM20.4152 68.12C19.9952 68.12 19.6286 68.05 19.3152 67.91C19.0086 67.77 18.7619 67.5767 18.5752 67.33C18.3952 67.0767 18.2852 66.78 18.2452 66.44H19.1052C19.1386 66.6133 19.2086 66.7733 19.3152 66.92C19.4219 67.0667 19.5652 67.1867 19.7452 67.28C19.9319 67.3667 20.1586 67.41 20.4252 67.41C20.6586 67.41 20.8519 67.3767 21.0052 67.31C21.1586 67.2367 21.2719 67.14 21.3452 67.02C21.4252 66.9 21.4652 66.77 21.4652 66.63C21.4652 66.4233 21.4152 66.2667 21.3152 66.16C21.2219 66.0533 21.0819 65.97 20.8952 65.91C20.7086 65.8433 20.4819 65.7867 20.2152 65.74C19.9952 65.7 19.7786 65.6467 19.5652 65.58C19.3519 65.5133 19.1619 65.4267 18.9952 65.32C18.8286 65.2067 18.6952 65.07 18.5952 64.91C18.5019 64.75 18.4552 64.5533 18.4552 64.32C18.4552 64.0333 18.5286 63.78 18.6752 63.56C18.8219 63.3333 19.0319 63.1567 19.3052 63.03C19.5852 62.9033 19.9086 62.84 20.2752 62.84C20.8152 62.84 21.2519 62.97 21.5852 63.23C21.9186 63.49 22.1152 63.8667 22.1752 64.36H21.3452C21.3119 64.1067 21.2019 63.91 21.0152 63.77C20.8352 63.6233 20.5852 63.55 20.2652 63.55C19.9519 63.55 19.7119 63.6133 19.5452 63.74C19.3852 63.8667 19.3052 64.0333 19.3052 64.24C19.3052 64.3733 19.3486 64.4933 19.4352 64.6C19.5286 64.7 19.6619 64.7867 19.8352 64.86C20.0152 64.9333 20.2352 64.9933 20.4952 65.04C20.8286 65.1 21.1319 65.18 21.4052 65.28C21.6786 65.38 21.8986 65.53 22.0652 65.73C22.2386 65.9233 22.3252 66.2 22.3252 66.56C22.3252 66.8733 22.2452 67.1467 22.0852 67.38C21.9319 67.6133 21.7119 67.7967 21.4252 67.93C21.1386 68.0567 20.8019 68.12 20.4152 68.12ZM23.4348 68.05C23.2681 68.05 23.1281 67.9967 23.0148 67.89C22.9081 67.7767 22.8548 67.64 22.8548 67.48C22.8548 67.32 22.9081 67.1867 23.0148 67.08C23.1281 66.9667 23.2681 66.91 23.4348 66.91C23.6014 66.91 23.7381 66.9667 23.8448 67.08C23.9514 67.1867 24.0048 67.32 24.0048 67.48C24.0048 67.64 23.9514 67.7767 23.8448 67.89C23.7381 67.9967 23.6014 68.05 23.4348 68.05ZM27.0234 68V61H27.8634V68H27.0234ZM30.8972 68C30.5972 68 30.3372 67.9533 30.1172 67.86C29.8972 67.7667 29.7272 67.61 29.6072 67.39C29.4939 67.1633 29.4372 66.86 29.4372 66.48V63.67H28.5572V62.96H29.4372L29.5472 61.74H30.2772V62.96H31.7372V63.67H30.2772V66.48C30.2772 66.7933 30.3405 67.0067 30.4672 67.12C30.5939 67.2267 30.8172 67.28 31.1372 67.28H31.6772V68H30.8972ZM36.9595 68.12C36.4861 68.12 36.0595 68.01 35.6795 67.79C35.3061 67.57 35.0128 67.2633 34.7995 66.87C34.5861 66.47 34.4795 66.01 34.4795 65.49C34.4795 64.9567 34.5861 64.4933 34.7995 64.1C35.0128 63.7067 35.3061 63.4 35.6795 63.18C36.0595 62.9533 36.4861 62.84 36.9595 62.84C37.5595 62.84 38.0595 62.9967 38.4595 63.31C38.8595 63.6167 39.1128 64.03 39.2195 64.55H38.3595C38.2928 64.2367 38.1295 63.9933 37.8695 63.82C37.6095 63.6467 37.3028 63.56 36.9495 63.56C36.6628 63.56 36.3961 63.6333 36.1495 63.78C35.9028 63.92 35.7061 64.1333 35.5595 64.42C35.4128 64.7067 35.3395 65.06 35.3395 65.48C35.3395 65.7933 35.3828 66.0733 35.4695 66.32C35.5561 66.56 35.6728 66.76 35.8195 66.92C35.9661 67.08 36.1361 67.2033 36.3295 67.29C36.5295 67.37 36.7361 67.41 36.9495 67.41C37.1895 67.41 37.4061 67.3733 37.5995 67.3C37.7928 67.22 37.9561 67.1033 38.0895 66.95C38.2228 66.7967 38.3128 66.6167 38.3595 66.41H39.2195C39.1128 66.9167 38.8561 67.33 38.4495 67.65C38.0495 67.9633 37.5528 68.12 36.9595 68.12ZM42.2621 68.12C41.7954 68.12 41.3754 68.0133 41.0021 67.8C40.6288 67.58 40.3354 67.2733 40.1221 66.88C39.9088 66.48 39.8021 66.0167 39.8021 65.49C39.8021 64.95 39.9088 64.4833 40.1221 64.09C40.3421 63.69 40.6388 63.3833 41.0121 63.17C41.3921 62.95 41.8154 62.84 42.2821 62.84C42.7621 62.84 43.1854 62.95 43.5521 63.17C43.9254 63.3833 44.2188 63.69 44.4321 64.09C44.6521 64.4833 44.7621 64.9467 44.7621 65.48C44.7621 66.0133 44.6521 66.48 44.4321 66.88C44.2121 67.2733 43.9154 67.58 43.5421 67.8C43.1688 68.0133 42.7421 68.12 42.2621 68.12ZM42.2721 67.4C42.5588 67.4 42.8254 67.33 43.0721 67.19C43.3188 67.0433 43.5188 66.8267 43.6721 66.54C43.8254 66.2533 43.9021 65.9 43.9021 65.48C43.9021 65.0533 43.8254 64.7 43.6721 64.42C43.5254 64.1333 43.3288 63.92 43.0821 63.78C42.8421 63.6333 42.5754 63.56 42.2821 63.56C42.0021 63.56 41.7354 63.6333 41.4821 63.78C41.2354 63.92 41.0354 64.1333 40.8821 64.42C40.7354 64.7 40.6621 65.0533 40.6621 65.48C40.6621 65.9 40.7354 66.2533 40.8821 66.54C41.0354 66.8267 41.2321 67.0433 41.4721 67.19C41.7188 67.33 41.9854 67.4 42.2721 67.4ZM45.5398 68V62.96H46.2998L46.3498 63.68C46.5098 63.42 46.7232 63.2167 46.9898 63.07C47.2632 62.9167 47.5598 62.84 47.8798 62.84C48.1398 62.84 48.3732 62.8767 48.5798 62.95C48.7932 63.0167 48.9798 63.1233 49.1398 63.27C49.2998 63.41 49.4298 63.59 49.5298 63.81C49.7032 63.5033 49.9398 63.2667 50.2398 63.1C50.5465 62.9267 50.8732 62.84 51.2198 62.84C51.6065 62.84 51.9432 62.92 52.2298 63.08C52.5232 63.2333 52.7465 63.47 52.8998 63.79C53.0598 64.1033 53.1398 64.5033 53.1398 64.99V68H52.3098V65.08C52.3098 64.5733 52.2065 64.1933 51.9998 63.94C51.7932 63.6867 51.5032 63.56 51.1298 63.56C50.8698 63.56 50.6365 63.63 50.4298 63.77C50.2232 63.9033 50.0598 64.1 49.9398 64.36C49.8198 64.62 49.7598 64.94 49.7598 65.32V68H48.9198V65.08C48.9198 64.5733 48.8165 64.1933 48.6098 63.94C48.4032 63.6867 48.1098 63.56 47.7298 63.56C47.4765 63.56 47.2465 63.63 47.0398 63.77C46.8398 63.9033 46.6798 64.1 46.5598 64.36C46.4398 64.62 46.3798 64.94 46.3798 65.32V68H45.5398ZM56.2561 68.12C55.7828 68.12 55.3628 68.01 54.9961 67.79C54.6361 67.57 54.3528 67.2633 54.1461 66.87C53.9394 66.47 53.8361 66.0067 53.8361 65.48C53.8361 64.9467 53.9361 64.4833 54.1361 64.09C54.3428 63.6967 54.6294 63.39 54.9961 63.17C55.3694 62.95 55.7961 62.84 56.2761 62.84C56.7694 62.84 57.1861 62.95 57.5261 63.17C57.8728 63.39 58.1361 63.68 58.3161 64.04C58.5028 64.3933 58.5961 64.7833 58.5961 65.21C58.5961 65.2767 58.5961 65.3467 58.5961 65.42C58.5961 65.4933 58.5928 65.5767 58.5861 65.67H54.4661V65.02H57.7761C57.7561 64.56 57.6028 64.2 57.3161 63.94C57.0361 63.68 56.6828 63.55 56.2561 63.55C55.9694 63.55 55.7028 63.6167 55.4561 63.75C55.2161 63.8767 55.0228 64.0667 54.8761 64.32C54.7294 64.5667 54.6561 64.8767 54.6561 65.25V65.53C54.6561 65.9433 54.7294 66.29 54.8761 66.57C55.0294 66.85 55.2261 67.06 55.4661 67.2C55.7128 67.34 55.9761 67.41 56.2561 67.41C56.6094 67.41 56.8994 67.3333 57.1261 67.18C57.3594 67.02 57.5261 66.8067 57.6261 66.54H58.4561C58.3761 66.84 58.2361 67.11 58.0361 67.35C57.8361 67.59 57.5861 67.78 57.2861 67.92C56.9928 68.0533 56.6494 68.12 56.2561 68.12ZM61.2297 68.12C60.8097 68.12 60.443 68.05 60.1297 67.91C59.823 67.77 59.5764 67.5767 59.3897 67.33C59.2097 67.0767 59.0997 66.78 59.0597 66.44H59.9197C59.953 66.6133 60.023 66.7733 60.1297 66.92C60.2364 67.0667 60.3797 67.1867 60.5597 67.28C60.7464 67.3667 60.973 67.41 61.2397 67.41C61.473 67.41 61.6664 67.3767 61.8197 67.31C61.973 67.2367 62.0864 67.14 62.1597 67.02C62.2397 66.9 62.2797 66.77 62.2797 66.63C62.2797 66.4233 62.2297 66.2667 62.1297 66.16C62.0364 66.0533 61.8964 65.97 61.7097 65.91C61.523 65.8433 61.2964 65.7867 61.0297 65.74C60.8097 65.7 60.593 65.6467 60.3797 65.58C60.1664 65.5133 59.9764 65.4267 59.8097 65.32C59.643 65.2067 59.5097 65.07 59.4097 64.91C59.3164 64.75 59.2697 64.5533 59.2697 64.32C59.2697 64.0333 59.343 63.78 59.4897 63.56C59.6364 63.3333 59.8464 63.1567 60.1197 63.03C60.3997 62.9033 60.723 62.84 61.0897 62.84C61.6297 62.84 62.0664 62.97 62.3997 63.23C62.733 63.49 62.9297 63.8667 62.9897 64.36H62.1597C62.1264 64.1067 62.0164 63.91 61.8297 63.77C61.6497 63.6233 61.3997 63.55 61.0797 63.55C60.7664 63.55 60.5264 63.6133 60.3597 63.74C60.1997 63.8667 60.1197 64.0333 60.1197 64.24C60.1197 64.3733 60.163 64.4933 60.2497 64.6C60.343 64.7 60.4764 64.7867 60.6497 64.86C60.8297 64.9333 61.0497 64.9933 61.3097 65.04C61.643 65.1 61.9464 65.18 62.2197 65.28C62.493 65.38 62.713 65.53 62.8797 65.73C63.053 65.9233 63.1397 66.2 63.1397 66.56C63.1397 66.8733 63.0597 67.1467 62.8997 67.38C62.7464 67.6133 62.5264 67.7967 62.2397 67.93C61.953 68.0567 61.6164 68.12 61.2297 68.12ZM67.2255 68L65.7455 62.96H66.5855L67.7355 67.21H67.5855L68.8355 62.96H69.7855L71.0555 67.2L70.8955 67.21L72.0355 62.96H72.8855L71.4155 68H70.5555L69.2355 63.56H69.4055L68.0855 68H67.2255ZM73.5124 68V62.96H74.3524V68H73.5124ZM73.9324 61.89C73.7658 61.89 73.6258 61.8367 73.5124 61.73C73.4058 61.6167 73.3524 61.4767 73.3524 61.31C73.3524 61.1433 73.4058 61.01 73.5124 60.91C73.6258 60.8033 73.7658 60.75 73.9324 60.75C74.0924 60.75 74.2291 60.8033 74.3424 60.91C74.4558 61.01 74.5124 61.1433 74.5124 61.31C74.5124 61.4767 74.4558 61.6167 74.3424 61.73C74.2291 61.8367 74.0924 61.89 73.9324 61.89ZM77.4148 68C77.1148 68 76.8548 67.9533 76.6348 67.86C76.4148 67.7667 76.2448 67.61 76.1248 67.39C76.0114 67.1633 75.9548 66.86 75.9548 66.48V63.67H75.0748V62.96H75.9548L76.0648 61.74H76.7948V62.96H78.2548V63.67H76.7948V66.48C76.7948 66.7933 76.8581 67.0067 76.9848 67.12C77.1114 67.2267 77.3348 67.28 77.6548 67.28H78.1948V68H77.4148ZM78.9508 68V60.8H79.7908V63.81C79.9574 63.51 80.1908 63.2733 80.4908 63.1C80.7974 62.9267 81.1308 62.84 81.4908 62.84C81.8774 62.84 82.2141 62.92 82.5008 63.08C82.7874 63.2333 83.0074 63.47 83.1608 63.79C83.3141 64.11 83.3908 64.5133 83.3908 65V68H82.5608V65.09C82.5608 64.5833 82.4541 64.2033 82.2408 63.95C82.0274 63.69 81.7174 63.56 81.3108 63.56C81.0241 63.56 80.7641 63.63 80.5308 63.77C80.3041 63.91 80.1241 64.11 79.9908 64.37C79.8574 64.63 79.7908 64.95 79.7908 65.33V68H78.9508ZM88.779 68.12C88.2923 68.12 87.8657 68.0067 87.499 67.78C87.1323 67.5467 86.849 67.23 86.649 66.83C86.449 66.43 86.349 65.9767 86.349 65.47C86.349 64.9633 86.449 64.5133 86.649 64.12C86.849 63.72 87.1323 63.4067 87.499 63.18C87.8723 62.9533 88.3023 62.84 88.789 62.84C89.2023 62.84 89.5623 62.9233 89.869 63.09C90.1823 63.2567 90.4223 63.49 90.589 63.79V60.8H91.429V68H90.669L90.599 67.17C90.4923 67.3367 90.3557 67.4933 90.189 67.64C90.0223 67.78 89.8223 67.8967 89.589 67.99C89.3557 68.0767 89.0857 68.12 88.779 68.12ZM88.879 67.39C89.2123 67.39 89.5057 67.31 89.759 67.15C90.0123 66.99 90.209 66.77 90.349 66.49C90.489 66.2033 90.559 65.8667 90.559 65.48C90.559 65.1 90.489 64.7667 90.349 64.48C90.209 64.1933 90.0123 63.97 89.759 63.81C89.5057 63.65 89.2123 63.57 88.879 63.57C88.5523 63.57 88.2623 63.65 88.009 63.81C87.7557 63.97 87.559 64.1933 87.419 64.48C87.279 64.7667 87.209 65.1 87.209 65.48C87.209 65.8667 87.279 66.2033 87.419 66.49C87.559 66.77 87.7557 66.99 88.009 67.15C88.2623 67.31 88.5523 67.39 88.879 67.39ZM94.6385 68.12C94.1652 68.12 93.7452 68.01 93.3785 67.79C93.0185 67.57 92.7352 67.2633 92.5285 66.87C92.3218 66.47 92.2185 66.0067 92.2185 65.48C92.2185 64.9467 92.3185 64.4833 92.5185 64.09C92.7252 63.6967 93.0118 63.39 93.3785 63.17C93.7518 62.95 94.1785 62.84 94.6585 62.84C95.1518 62.84 95.5685 62.95 95.9085 63.17C96.2552 63.39 96.5185 63.68 96.6985 64.04C96.8852 64.3933 96.9785 64.7833 96.9785 65.21C96.9785 65.2767 96.9785 65.3467 96.9785 65.42C96.9785 65.4933 96.9752 65.5767 96.9685 65.67H92.8485V65.02H96.1585C96.1385 64.56 95.9852 64.2 95.6985 63.94C95.4185 63.68 95.0652 63.55 94.6385 63.55C94.3518 63.55 94.0852 63.6167 93.8385 63.75C93.5985 63.8767 93.4052 64.0667 93.2585 64.32C93.1118 64.5667 93.0385 64.8767 93.0385 65.25V65.53C93.0385 65.9433 93.1118 66.29 93.2585 66.57C93.4118 66.85 93.6085 67.06 93.8485 67.2C94.0952 67.34 94.3585 67.41 94.6385 67.41C94.9918 67.41 95.2818 67.3333 95.5085 67.18C95.7418 67.02 95.9085 66.8067 96.0085 66.54H96.8385C96.7585 66.84 96.6185 67.11 96.4185 67.35C96.2185 67.59 95.9685 67.78 95.6685 67.92C95.3752 68.0533 95.0318 68.12 94.6385 68.12ZM97.9921 68V62.18C97.9921 61.86 98.0454 61.6 98.1521 61.4C98.2588 61.1933 98.4154 61.0433 98.6221 60.95C98.8354 60.85 99.0954 60.8 99.4021 60.8H99.9721V61.52H99.5321C99.2854 61.52 99.1054 61.57 98.9921 61.67C98.8854 61.77 98.8321 61.9467 98.8321 62.2V68H97.9921ZM97.2221 63.67V62.96H100.102V63.67H97.2221ZM102.155 68.12C101.749 68.12 101.409 68.05 101.135 67.91C100.862 67.7633 100.659 67.5733 100.525 67.34C100.392 67.1 100.325 66.84 100.325 66.56C100.325 66.22 100.412 65.9333 100.585 65.7C100.765 65.46 101.015 65.28 101.335 65.16C101.662 65.0333 102.045 64.97 102.485 64.97H103.815C103.815 64.6567 103.765 64.3967 103.665 64.19C103.572 63.9767 103.432 63.8167 103.245 63.71C103.065 63.6033 102.839 63.55 102.565 63.55C102.245 63.55 101.969 63.63 101.735 63.79C101.502 63.95 101.359 64.1867 101.305 64.5H100.445C100.485 64.14 100.605 63.84 100.805 63.6C101.012 63.3533 101.272 63.1667 101.585 63.04C101.899 62.9067 102.225 62.84 102.565 62.84C103.032 62.84 103.419 62.9267 103.725 63.1C104.039 63.2667 104.272 63.5033 104.425 63.81C104.579 64.11 104.655 64.4667 104.655 64.88V68H103.905L103.855 67.11C103.789 67.25 103.702 67.3833 103.595 67.51C103.495 67.63 103.375 67.7367 103.235 67.83C103.095 67.9167 102.935 67.9867 102.755 68.04C102.582 68.0933 102.382 68.12 102.155 68.12ZM102.285 67.41C102.519 67.41 102.729 67.3633 102.915 67.27C103.109 67.17 103.272 67.0367 103.405 66.87C103.539 66.6967 103.639 66.5067 103.705 66.3C103.779 66.0933 103.815 65.8767 103.815 65.65V65.62H102.555C102.229 65.62 101.965 65.66 101.765 65.74C101.565 65.8133 101.422 65.92 101.335 66.06C101.249 66.1933 101.205 66.3467 101.205 66.52C101.205 66.7 101.245 66.8567 101.325 66.99C101.412 67.1233 101.535 67.2267 101.695 67.3C101.862 67.3733 102.059 67.41 102.285 67.41ZM107.385 68.12C106.998 68.12 106.658 68.0433 106.365 67.89C106.078 67.7367 105.855 67.5 105.695 67.18C105.541 66.86 105.465 66.46 105.465 65.98V62.96H106.305V65.89C106.305 66.39 106.415 66.7667 106.635 67.02C106.855 67.2733 107.165 67.4 107.565 67.4C107.845 67.4 108.098 67.3333 108.325 67.2C108.551 67.06 108.728 66.8633 108.855 66.61C108.988 66.35 109.055 66.0333 109.055 65.66V62.96H109.895V68H109.135L109.085 67.12C108.931 67.4333 108.705 67.68 108.405 67.86C108.105 68.0333 107.765 68.12 107.385 68.12ZM110.887 68V60.8H111.727V68H110.887ZM114.694 68C114.394 68 114.134 67.9533 113.914 67.86C113.694 67.7667 113.524 67.61 113.404 67.39C113.29 67.1633 113.234 66.86 113.234 66.48V63.67H112.354V62.96H113.234L113.344 61.74H114.074V62.96H115.534V63.67H114.074V66.48C114.074 66.7933 114.137 67.0067 114.264 67.12C114.39 67.2267 114.614 67.28 114.934 67.28H115.474V68H114.694ZM120.386 68.12C119.966 68.12 119.599 68.05 119.286 67.91C118.979 67.77 118.733 67.5767 118.546 67.33C118.366 67.0767 118.256 66.78 118.216 66.44H119.076C119.109 66.6133 119.179 66.7733 119.286 66.92C119.393 67.0667 119.536 67.1867 119.716 67.28C119.903 67.3667 120.129 67.41 120.396 67.41C120.629 67.41 120.823 67.3767 120.976 67.31C121.129 67.2367 121.243 67.14 121.316 67.02C121.396 66.9 121.436 66.77 121.436 66.63C121.436 66.4233 121.386 66.2667 121.286 66.16C121.193 66.0533 121.053 65.97 120.866 65.91C120.679 65.8433 120.453 65.7867 120.186 65.74C119.966 65.7 119.749 65.6467 119.536 65.58C119.323 65.5133 119.133 65.4267 118.966 65.32C118.799 65.2067 118.666 65.07 118.566 64.91C118.473 64.75 118.426 64.5533 118.426 64.32C118.426 64.0333 118.499 63.78 118.646 63.56C118.793 63.3333 119.003 63.1567 119.276 63.03C119.556 62.9033 119.879 62.84 120.246 62.84C120.786 62.84 121.223 62.97 121.556 63.23C121.889 63.49 122.086 63.8667 122.146 64.36H121.316C121.283 64.1067 121.173 63.91 120.986 63.77C120.806 63.6233 120.556 63.55 120.236 63.55C119.923 63.55 119.683 63.6133 119.516 63.74C119.356 63.8667 119.276 64.0333 119.276 64.24C119.276 64.3733 119.319 64.4933 119.406 64.6C119.499 64.7 119.633 64.7867 119.806 64.86C119.986 64.9333 120.206 64.9933 120.466 65.04C120.799 65.1 121.103 65.18 121.376 65.28C121.649 65.38 121.869 65.53 122.036 65.73C122.209 65.9233 122.296 66.2 122.296 66.56C122.296 66.8733 122.216 67.1467 122.056 67.38C121.903 67.6133 121.683 67.7967 121.396 67.93C121.109 68.0567 120.773 68.12 120.386 68.12ZM124.861 68C124.561 68 124.301 67.9533 124.081 67.86C123.861 67.7667 123.691 67.61 123.571 67.39C123.458 67.1633 123.401 66.86 123.401 66.48V63.67H122.521V62.96H123.401L123.511 61.74H124.241V62.96H125.701V63.67H124.241V66.48C124.241 66.7933 124.304 67.0067 124.431 67.12C124.558 67.2267 124.781 67.28 125.101 67.28H125.641V68H124.861ZM126.947 70.2L128.177 67.44H127.887L125.907 62.96H126.817L128.457 66.81L130.177 62.96H131.047L127.827 70.2H126.947ZM131.554 68V60.8H132.394V68H131.554ZM135.59 68.12C135.117 68.12 134.697 68.01 134.33 67.79C133.97 67.57 133.687 67.2633 133.48 66.87C133.273 66.47 133.17 66.0067 133.17 65.48C133.17 64.9467 133.27 64.4833 133.47 64.09C133.677 63.6967 133.963 63.39 134.33 63.17C134.703 62.95 135.13 62.84 135.61 62.84C136.103 62.84 136.52 62.95 136.86 63.17C137.207 63.39 137.47 63.68 137.65 64.04C137.837 64.3933 137.93 64.7833 137.93 65.21C137.93 65.2767 137.93 65.3467 137.93 65.42C137.93 65.4933 137.927 65.5767 137.92 65.67H133.8V65.02H137.11C137.09 64.56 136.937 64.2 136.65 63.94C136.37 63.68 136.017 63.55 135.59 63.55C135.303 63.55 135.037 63.6167 134.79 63.75C134.55 63.8767 134.357 64.0667 134.21 64.32C134.063 64.5667 133.99 64.8767 133.99 65.25V65.53C133.99 65.9433 134.063 66.29 134.21 66.57C134.363 66.85 134.56 67.06 134.8 67.2C135.047 67.34 135.31 67.41 135.59 67.41C135.943 67.41 136.233 67.3333 136.46 67.18C136.693 67.02 136.86 66.8067 136.96 66.54H137.79C137.71 66.84 137.57 67.11 137.37 67.35C137.17 67.59 136.92 67.78 136.62 67.92C136.327 68.0533 135.983 68.12 135.59 68.12ZM140.564 68.12C140.144 68.12 139.777 68.05 139.464 67.91C139.157 67.77 138.91 67.5767 138.724 67.33C138.544 67.0767 138.434 66.78 138.394 66.44H139.254C139.287 66.6133 139.357 66.7733 139.464 66.92C139.57 67.0667 139.714 67.1867 139.894 67.28C140.08 67.3667 140.307 67.41 140.574 67.41C140.807 67.41 141 67.3767 141.154 67.31C141.307 67.2367 141.42 67.14 141.494 67.02C141.574 66.9 141.614 66.77 141.614 66.63C141.614 66.4233 141.564 66.2667 141.464 66.16C141.37 66.0533 141.23 65.97 141.044 65.91C140.857 65.8433 140.63 65.7867 140.364 65.74C140.144 65.7 139.927 65.6467 139.714 65.58C139.5 65.5133 139.31 65.4267 139.144 65.32C138.977 65.2067 138.844 65.07 138.744 64.91C138.65 64.75 138.604 64.5533 138.604 64.32C138.604 64.0333 138.677 63.78 138.824 63.56C138.97 63.3333 139.18 63.1567 139.454 63.03C139.734 62.9033 140.057 62.84 140.424 62.84C140.964 62.84 141.4 62.97 141.734 63.23C142.067 63.49 142.264 63.8667 142.324 64.36H141.494C141.46 64.1067 141.35 63.91 141.164 63.77C140.984 63.6233 140.734 63.55 140.414 63.55C140.1 63.55 139.86 63.6133 139.694 63.74C139.534 63.8667 139.454 64.0333 139.454 64.24C139.454 64.3733 139.497 64.4933 139.584 64.6C139.677 64.7 139.81 64.7867 139.984 64.86C140.164 64.9333 140.384 64.9933 140.644 65.04C140.977 65.1 141.28 65.18 141.554 65.28C141.827 65.38 142.047 65.53 142.214 65.73C142.387 65.9233 142.474 66.2 142.474 66.56C142.474 66.8733 142.394 67.1467 142.234 67.38C142.08 67.6133 141.86 67.7967 141.574 67.93C141.287 68.0567 140.95 68.12 140.564 68.12ZM147.519 68C147.219 68 146.959 67.9533 146.739 67.86C146.519 67.7667 146.349 67.61 146.229 67.39C146.116 67.1633 146.059 66.86 146.059 66.48V63.67H145.179V62.96H146.059L146.169 61.74H146.899V62.96H148.359V63.67H146.899V66.48C146.899 66.7933 146.963 67.0067 147.089 67.12C147.216 67.2267 147.439 67.28 147.759 67.28H148.299V68H147.519ZM149.055 68V60.8H149.895V63.81C150.062 63.51 150.295 63.2733 150.595 63.1C150.902 62.9267 151.235 62.84 151.595 62.84C151.982 62.84 152.319 62.92 152.605 63.08C152.892 63.2333 153.112 63.47 153.265 63.79C153.419 64.11 153.495 64.5133 153.495 65V68H152.665V65.09C152.665 64.5833 152.559 64.2033 152.345 63.95C152.132 63.69 151.822 63.56 151.415 63.56C151.129 63.56 150.869 63.63 150.635 63.77C150.409 63.91 150.229 64.11 150.095 64.37C149.962 64.63 149.895 64.95 149.895 65.33V68H149.055ZM156.047 68.12C155.641 68.12 155.301 68.05 155.027 67.91C154.754 67.7633 154.551 67.5733 154.417 67.34C154.284 67.1 154.217 66.84 154.217 66.56C154.217 66.22 154.304 65.9333 154.477 65.7C154.657 65.46 154.907 65.28 155.227 65.16C155.554 65.0333 155.937 64.97 156.377 64.97H157.707C157.707 64.6567 157.657 64.3967 157.557 64.19C157.464 63.9767 157.324 63.8167 157.137 63.71C156.957 63.6033 156.731 63.55 156.457 63.55C156.137 63.55 155.861 63.63 155.627 63.79C155.394 63.95 155.251 64.1867 155.197 64.5H154.337C154.377 64.14 154.497 63.84 154.697 63.6C154.904 63.3533 155.164 63.1667 155.477 63.04C155.791 62.9067 156.117 62.84 156.457 62.84C156.924 62.84 157.311 62.9267 157.617 63.1C157.931 63.2667 158.164 63.5033 158.317 63.81C158.471 64.11 158.547 64.4667 158.547 64.88V68H157.797L157.747 67.11C157.681 67.25 157.594 67.3833 157.487 67.51C157.387 67.63 157.267 67.7367 157.127 67.83C156.987 67.9167 156.827 67.9867 156.647 68.04C156.474 68.0933 156.274 68.12 156.047 68.12ZM156.177 67.41C156.411 67.41 156.621 67.3633 156.807 67.27C157.001 67.17 157.164 67.0367 157.297 66.87C157.431 66.6967 157.531 66.5067 157.597 66.3C157.671 66.0933 157.707 65.8767 157.707 65.65V65.62H156.447C156.121 65.62 155.857 65.66 155.657 65.74C155.457 65.8133 155.314 65.92 155.227 66.06C155.141 66.1933 155.097 66.3467 155.097 66.52C155.097 66.7 155.137 66.8567 155.217 66.99C155.304 67.1233 155.427 67.2267 155.587 67.3C155.754 67.3733 155.951 67.41 156.177 67.41ZM161.29 68C160.99 68 160.73 67.9533 160.51 67.86C160.29 67.7667 160.12 67.61 160 67.39C159.887 67.1633 159.83 66.86 159.83 66.48V63.67H158.95V62.96H159.83L159.94 61.74H160.67V62.96H162.13V63.67H160.67V66.48C160.67 66.7933 160.733 67.0067 160.86 67.12C160.987 67.2267 161.21 67.28 161.53 67.28H162.07V68H161.29ZM8.7 82V76.96H9.46L9.51 77.68C9.67 77.42 9.88333 77.2167 10.15 77.07C10.4233 76.9167 10.72 76.84 11.04 76.84C11.3 76.84 11.5333 76.8767 11.74 76.95C11.9533 77.0167 12.14 77.1233 12.3 77.27C12.46 77.41 12.59 77.59 12.69 77.81C12.8633 77.5033 13.1 77.2667 13.4 77.1C13.7067 76.9267 14.0333 76.84 14.38 76.84C14.7667 76.84 15.1033 76.92 15.39 77.08C15.6833 77.2333 15.9067 77.47 16.06 77.79C16.22 78.1033 16.3 78.5033 16.3 78.99V82H15.47V79.08C15.47 78.5733 15.3667 78.1933 15.16 77.94C14.9533 77.6867 14.6633 77.56 14.29 77.56C14.03 77.56 13.7967 77.63 13.59 77.77C13.3833 77.9033 13.22 78.1 13.1 78.36C12.98 78.62 12.92 78.94 12.92 79.32V82H12.08V79.08C12.08 78.5733 11.9767 78.1933 11.77 77.94C11.5633 77.6867 11.27 77.56 10.89 77.56C10.6367 77.56 10.4067 77.63 10.2 77.77C10 77.9033 9.84 78.1 9.72 78.36C9.6 78.62 9.54 78.94 9.54 79.32V82H8.7ZM18.8463 82.12C18.4396 82.12 18.0996 82.05 17.8263 81.91C17.5529 81.7633 17.3496 81.5733 17.2163 81.34C17.0829 81.1 17.0163 80.84 17.0163 80.56C17.0163 80.22 17.1029 79.9333 17.2763 79.7C17.4563 79.46 17.7063 79.28 18.0263 79.16C18.3529 79.0333 18.7363 78.97 19.1763 78.97H20.5063C20.5063 78.6567 20.4563 78.3967 20.3563 78.19C20.2629 77.9767 20.1229 77.8167 19.9363 77.71C19.7563 77.6033 19.5296 77.55 19.2563 77.55C18.9363 77.55 18.6596 77.63 18.4263 77.79C18.1929 77.95 18.0496 78.1867 17.9963 78.5H17.1363C17.1763 78.14 17.2963 77.84 17.4963 77.6C17.7029 77.3533 17.9629 77.1667 18.2763 77.04C18.5896 76.9067 18.9163 76.84 19.2563 76.84C19.7229 76.84 20.1096 76.9267 20.4163 77.1C20.7296 77.2667 20.9629 77.5033 21.1163 77.81C21.2696 78.11 21.3463 78.4667 21.3463 78.88V82H20.5963L20.5463 81.11C20.4796 81.25 20.3929 81.3833 20.2863 81.51C20.1863 81.63 20.0663 81.7367 19.9263 81.83C19.7863 81.9167 19.6263 81.9867 19.4463 82.04C19.2729 82.0933 19.0729 82.12 18.8463 82.12ZM18.9763 81.41C19.2096 81.41 19.4196 81.3633 19.6063 81.27C19.7996 81.17 19.9629 81.0367 20.0963 80.87C20.2296 80.6967 20.3296 80.5067 20.3963 80.3C20.4696 80.0933 20.5063 79.8767 20.5063 79.65V79.62H19.2463C18.9196 79.62 18.6563 79.66 18.4563 79.74C18.2563 79.8133 18.1129 79.92 18.0263 80.06C17.9396 80.1933 17.8963 80.3467 17.8963 80.52C17.8963 80.7 17.9363 80.8567 18.0163 80.99C18.1029 81.1233 18.2263 81.2267 18.3863 81.3C18.5529 81.3733 18.7496 81.41 18.9763 81.41ZM24.089 82C23.789 82 23.529 81.9533 23.309 81.86C23.089 81.7667 22.919 81.61 22.799 81.39C22.6857 81.1633 22.629 80.86 22.629 80.48V77.67H21.749V76.96H22.629L22.739 75.74H23.469V76.96H24.929V77.67H23.469V80.48C23.469 80.7933 23.5323 81.0067 23.659 81.12C23.7857 81.2267 24.009 81.28 24.329 81.28H24.869V82H24.089ZM27.7583 82.12C27.2849 82.12 26.8583 82.01 26.4783 81.79C26.1049 81.57 25.8116 81.2633 25.5983 80.87C25.3849 80.47 25.2783 80.01 25.2783 79.49C25.2783 78.9567 25.3849 78.4933 25.5983 78.1C25.8116 77.7067 26.1049 77.4 26.4783 77.18C26.8583 76.9533 27.2849 76.84 27.7583 76.84C28.3583 76.84 28.8583 76.9967 29.2583 77.31C29.6583 77.6167 29.9116 78.03 30.0183 78.55H29.1583C29.0916 78.2367 28.9283 77.9933 28.6683 77.82C28.4083 77.6467 28.1016 77.56 27.7483 77.56C27.4616 77.56 27.1949 77.6333 26.9483 77.78C26.7016 77.92 26.5049 78.1333 26.3583 78.42C26.2116 78.7067 26.1383 79.06 26.1383 79.48C26.1383 79.7933 26.1816 80.0733 26.2683 80.32C26.3549 80.56 26.4716 80.76 26.6183 80.92C26.7649 81.08 26.9349 81.2033 27.1283 81.29C27.3283 81.37 27.5349 81.41 27.7483 81.41C27.9883 81.41 28.2049 81.3733 28.3983 81.3C28.5916 81.22 28.7549 81.1033 28.8883 80.95C29.0216 80.7967 29.1116 80.6167 29.1583 80.41H30.0183C29.9116 80.9167 29.6549 81.33 29.2483 81.65C28.8483 81.9633 28.3516 82.12 27.7583 82.12ZM30.8109 82V74.8H31.6509V77.81C31.8176 77.51 32.0509 77.2733 32.3509 77.1C32.6576 76.9267 32.9909 76.84 33.3509 76.84C33.7376 76.84 34.0743 76.92 34.3609 77.08C34.6476 77.2333 34.8676 77.47 35.0209 77.79C35.1743 78.11 35.2509 78.5133 35.2509 79V82H34.4209V79.09C34.4209 78.5833 34.3143 78.2033 34.1009 77.95C33.8876 77.69 33.5776 77.56 33.1709 77.56C32.8843 77.56 32.6243 77.63 32.3909 77.77C32.1643 77.91 31.9843 78.11 31.8509 78.37C31.7176 78.63 31.6509 78.95 31.6509 79.33V82H30.8109ZM38.3729 82.12C37.8996 82.12 37.4796 82.01 37.1129 81.79C36.7529 81.57 36.4696 81.2633 36.2629 80.87C36.0562 80.47 35.9529 80.0067 35.9529 79.48C35.9529 78.9467 36.0529 78.4833 36.2529 78.09C36.4596 77.6967 36.7462 77.39 37.1129 77.17C37.4862 76.95 37.9129 76.84 38.3929 76.84C38.8862 76.84 39.3029 76.95 39.6429 77.17C39.9896 77.39 40.2529 77.68 40.4329 78.04C40.6196 78.3933 40.7129 78.7833 40.7129 79.21C40.7129 79.2767 40.7129 79.3467 40.7129 79.42C40.7129 79.4933 40.7096 79.5767 40.7029 79.67H36.5829V79.02H39.8929C39.8729 78.56 39.7196 78.2 39.4329 77.94C39.1529 77.68 38.7996 77.55 38.3729 77.55C38.0862 77.55 37.8196 77.6167 37.5729 77.75C37.3329 77.8767 37.1396 78.0667 36.9929 78.32C36.8462 78.5667 36.7729 78.8767 36.7729 79.25V79.53C36.7729 79.9433 36.8462 80.29 36.9929 80.57C37.1462 80.85 37.3429 81.06 37.5829 81.2C37.8296 81.34 38.0929 81.41 38.3729 81.41C38.7262 81.41 39.0162 81.3333 39.2429 81.18C39.4762 81.02 39.6429 80.8067 39.7429 80.54H40.5729C40.4929 80.84 40.3529 81.11 40.1529 81.35C39.9529 81.59 39.7029 81.78 39.4029 81.92C39.1096 82.0533 38.7662 82.12 38.3729 82.12ZM43.3465 82.12C42.9265 82.12 42.5598 82.05 42.2465 81.91C41.9398 81.77 41.6931 81.5767 41.5065 81.33C41.3265 81.0767 41.2165 80.78 41.1765 80.44H42.0365C42.0698 80.6133 42.1398 80.7733 42.2465 80.92C42.3531 81.0667 42.4965 81.1867 42.6765 81.28C42.8631 81.3667 43.0898 81.41 43.3565 81.41C43.5898 81.41 43.7831 81.3767 43.9365 81.31C44.0898 81.2367 44.2031 81.14 44.2765 81.02C44.3565 80.9 44.3965 80.77 44.3965 80.63C44.3965 80.4233 44.3465 80.2667 44.2465 80.16C44.1531 80.0533 44.0131 79.97 43.8265 79.91C43.6398 79.8433 43.4131 79.7867 43.1465 79.74C42.9265 79.7 42.7098 79.6467 42.4965 79.58C42.2831 79.5133 42.0931 79.4267 41.9265 79.32C41.7598 79.2067 41.6265 79.07 41.5265 78.91C41.4331 78.75 41.3865 78.5533 41.3865 78.32C41.3865 78.0333 41.4598 77.78 41.6065 77.56C41.7531 77.3333 41.9631 77.1567 42.2365 77.03C42.5165 76.9033 42.8398 76.84 43.2065 76.84C43.7465 76.84 44.1831 76.97 44.5165 77.23C44.8498 77.49 45.0465 77.8667 45.1065 78.36H44.2765C44.2431 78.1067 44.1331 77.91 43.9465 77.77C43.7665 77.6233 43.5165 77.55 43.1965 77.55C42.8831 77.55 42.6431 77.6133 42.4765 77.74C42.3165 77.8667 42.2365 78.0333 42.2365 78.24C42.2365 78.3733 42.2798 78.4933 42.3665 78.6C42.4598 78.7 42.5931 78.7867 42.7665 78.86C42.9465 78.9333 43.1665 78.9933 43.4265 79.04C43.7598 79.1 44.0631 79.18 44.3365 79.28C44.6098 79.38 44.8298 79.53 44.9965 79.73C45.1698 79.9233 45.2565 80.2 45.2565 80.56C45.2565 80.8733 45.1765 81.1467 45.0165 81.38C44.8631 81.6133 44.6431 81.7967 44.3565 81.93C44.0698 82.0567 43.7331 82.12 43.3465 82.12ZM50.3023 82C50.0023 82 49.7423 81.9533 49.5223 81.86C49.3023 81.7667 49.1323 81.61 49.0123 81.39C48.8989 81.1633 48.8423 80.86 48.8423 80.48V77.67H47.9623V76.96H48.8423L48.9523 75.74H49.6823V76.96H51.1423V77.67H49.6823V80.48C49.6823 80.7933 49.7456 81.0067 49.8723 81.12C49.9989 81.2267 50.2223 81.28 50.5423 81.28H51.0823V82H50.3023ZM51.8383 82V74.8H52.6783V77.81C52.8449 77.51 53.0783 77.2733 53.3783 77.1C53.6849 76.9267 54.0183 76.84 54.3783 76.84C54.7649 76.84 55.1016 76.92 55.3883 77.08C55.6749 77.2333 55.8949 77.47 56.0483 77.79C56.2016 78.11 56.2783 78.5133 56.2783 79V82H55.4483V79.09C55.4483 78.5833 55.3416 78.2033 55.1283 77.95C54.9149 77.69 54.6049 77.56 54.1983 77.56C53.9116 77.56 53.6516 77.63 53.4183 77.77C53.1916 77.91 53.0116 78.11 52.8783 78.37C52.7449 78.63 52.6783 78.95 52.6783 79.33V82H51.8383ZM59.4002 82.12C58.9269 82.12 58.5069 82.01 58.1402 81.79C57.7802 81.57 57.4969 81.2633 57.2902 80.87C57.0836 80.47 56.9802 80.0067 56.9802 79.48C56.9802 78.9467 57.0802 78.4833 57.2802 78.09C57.4869 77.6967 57.7736 77.39 58.1402 77.17C58.5136 76.95 58.9402 76.84 59.4202 76.84C59.9136 76.84 60.3302 76.95 60.6702 77.17C61.0169 77.39 61.2802 77.68 61.4602 78.04C61.6469 78.3933 61.7402 78.7833 61.7402 79.21C61.7402 79.2767 61.7402 79.3467 61.7402 79.42C61.7402 79.4933 61.7369 79.5767 61.7302 79.67H57.6102V79.02H60.9202C60.9002 78.56 60.7469 78.2 60.4602 77.94C60.1802 77.68 59.8269 77.55 59.4002 77.55C59.1136 77.55 58.8469 77.6167 58.6002 77.75C58.3602 77.8767 58.1669 78.0667 58.0202 78.32C57.8736 78.5667 57.8002 78.8767 57.8002 79.25V79.53C57.8002 79.9433 57.8736 80.29 58.0202 80.57C58.1736 80.85 58.3702 81.06 58.6102 81.2C58.8569 81.34 59.1202 81.41 59.4002 81.41C59.7536 81.41 60.0436 81.3333 60.2702 81.18C60.5036 81.02 60.6702 80.8067 60.7702 80.54H61.6002C61.5202 80.84 61.3802 81.11 61.1802 81.35C60.9802 81.59 60.7302 81.78 60.4302 81.92C60.1369 82.0533 59.7936 82.12 59.4002 82.12ZM66.9801 82.12C66.5134 82.12 66.0934 82.0133 65.7201 81.8C65.3467 81.58 65.0534 81.2733 64.8401 80.88C64.6267 80.48 64.5201 80.0167 64.5201 79.49C64.5201 78.95 64.6267 78.4833 64.8401 78.09C65.0601 77.69 65.3567 77.3833 65.7301 77.17C66.1101 76.95 66.5334 76.84 67.0001 76.84C67.4801 76.84 67.9034 76.95 68.2701 77.17C68.6434 77.3833 68.9367 77.69 69.1501 78.09C69.3701 78.4833 69.4801 78.9467 69.4801 79.48C69.4801 80.0133 69.3701 80.48 69.1501 80.88C68.9301 81.2733 68.6334 81.58 68.2601 81.8C67.8867 82.0133 67.4601 82.12 66.9801 82.12ZM66.9901 81.4C67.2767 81.4 67.5434 81.33 67.7901 81.19C68.0367 81.0433 68.2367 80.8267 68.3901 80.54C68.5434 80.2533 68.6201 79.9 68.6201 79.48C68.6201 79.0533 68.5434 78.7 68.3901 78.42C68.2434 78.1333 68.0467 77.92 67.8001 77.78C67.5601 77.6333 67.2934 77.56 67.0001 77.56C66.7201 77.56 66.4534 77.6333 66.2001 77.78C65.9534 77.92 65.7534 78.1333 65.6001 78.42C65.4534 78.7 65.3801 79.0533 65.3801 79.48C65.3801 79.9 65.4534 80.2533 65.6001 80.54C65.7534 80.8267 65.9501 81.0433 66.1901 81.19C66.4367 81.33 66.7034 81.4 66.9901 81.4ZM72.0425 82C71.7425 82 71.4825 81.9533 71.2625 81.86C71.0425 81.7667 70.8725 81.61 70.7525 81.39C70.6392 81.1633 70.5825 80.86 70.5825 80.48V77.67H69.7025V76.96H70.5825L70.6925 75.74H71.4225V76.96H72.8825V77.67H71.4225V80.48C71.4225 80.7933 71.4858 81.0067 71.6125 81.12C71.7392 81.2267 71.9625 81.28 72.2825 81.28H72.8225V82H72.0425ZM73.5785 82V74.8H74.4185V77.81C74.5852 77.51 74.8185 77.2733 75.1185 77.1C75.4252 76.9267 75.7585 76.84 76.1185 76.84C76.5052 76.84 76.8419 76.92 77.1285 77.08C77.4152 77.2333 77.6352 77.47 77.7885 77.79C77.9419 78.11 78.0185 78.5133 78.0185 79V82H77.1885V79.09C77.1885 78.5833 77.0819 78.2033 76.8685 77.95C76.6552 77.69 76.3452 77.56 75.9385 77.56C75.6519 77.56 75.3919 77.63 75.1585 77.77C74.9319 77.91 74.7519 78.11 74.6185 78.37C74.4852 78.63 74.4185 78.95 74.4185 79.33V82H73.5785ZM81.1405 82.12C80.6671 82.12 80.2471 82.01 79.8805 81.79C79.5205 81.57 79.2371 81.2633 79.0305 80.87C78.8238 80.47 78.7205 80.0067 78.7205 79.48C78.7205 78.9467 78.8205 78.4833 79.0205 78.09C79.2271 77.6967 79.5138 77.39 79.8805 77.17C80.2538 76.95 80.6805 76.84 81.1605 76.84C81.6538 76.84 82.0705 76.95 82.4105 77.17C82.7571 77.39 83.0205 77.68 83.2005 78.04C83.3871 78.3933 83.4805 78.7833 83.4805 79.21C83.4805 79.2767 83.4805 79.3467 83.4805 79.42C83.4805 79.4933 83.4771 79.5767 83.4705 79.67H79.3505V79.02H82.6605C82.6405 78.56 82.4871 78.2 82.2005 77.94C81.9205 77.68 81.5671 77.55 81.1405 77.55C80.8538 77.55 80.5871 77.6167 80.3405 77.75C80.1005 77.8767 79.9071 78.0667 79.7605 78.32C79.6138 78.5667 79.5405 78.8767 79.5405 79.25V79.53C79.5405 79.9433 79.6138 80.29 79.7605 80.57C79.9138 80.85 80.1105 81.06 80.3505 81.2C80.5971 81.34 80.8605 81.41 81.1405 81.41C81.4938 81.41 81.7838 81.3333 82.0105 81.18C82.2438 81.02 82.4105 80.8067 82.5105 80.54H83.3405C83.2605 80.84 83.1205 81.11 82.9205 81.35C82.7205 81.59 82.4705 81.78 82.1705 81.92C81.8771 82.0533 81.5338 82.12 81.1405 82.12ZM84.2141 82V76.96H84.9741L85.0341 77.92C85.1474 77.6933 85.2907 77.5 85.4641 77.34C85.6441 77.18 85.8574 77.0567 86.1041 76.97C86.3574 76.8833 86.6441 76.84 86.9641 76.84V77.72H86.6541C86.4407 77.72 86.2374 77.75 86.0441 77.81C85.8507 77.8633 85.6774 77.9533 85.5241 78.08C85.3774 78.2067 85.2607 78.38 85.1741 78.6C85.0941 78.8133 85.0541 79.08 85.0541 79.4V82H84.2141ZM92.0415 82.12C91.5682 82.12 91.1415 82.01 90.7615 81.79C90.3882 81.57 90.0948 81.2633 89.8815 80.87C89.6682 80.47 89.5615 80.01 89.5615 79.49C89.5615 78.9567 89.6682 78.4933 89.8815 78.1C90.0948 77.7067 90.3882 77.4 90.7615 77.18C91.1415 76.9533 91.5682 76.84 92.0415 76.84C92.6415 76.84 93.1415 76.9967 93.5415 77.31C93.9415 77.6167 94.1948 78.03 94.3015 78.55H93.4415C93.3748 78.2367 93.2115 77.9933 92.9515 77.82C92.6915 77.6467 92.3848 77.56 92.0315 77.56C91.7448 77.56 91.4782 77.6333 91.2315 77.78C90.9848 77.92 90.7882 78.1333 90.6415 78.42C90.4948 78.7067 90.4215 79.06 90.4215 79.48C90.4215 79.7933 90.4648 80.0733 90.5515 80.32C90.6382 80.56 90.7548 80.76 90.9015 80.92C91.0482 81.08 91.2182 81.2033 91.4115 81.29C91.6115 81.37 91.8182 81.41 92.0315 81.41C92.2715 81.41 92.4882 81.3733 92.6815 81.3C92.8748 81.22 93.0382 81.1033 93.1715 80.95C93.3048 80.7967 93.3948 80.6167 93.4415 80.41H94.3015C94.1948 80.9167 93.9382 81.33 93.5315 81.65C93.1315 81.9633 92.6348 82.12 92.0415 82.12ZM97.3441 82.12C96.8775 82.12 96.4575 82.0133 96.0841 81.8C95.7108 81.58 95.4175 81.2733 95.2041 80.88C94.9908 80.48 94.8841 80.0167 94.8841 79.49C94.8841 78.95 94.9908 78.4833 95.2041 78.09C95.4241 77.69 95.7208 77.3833 96.0941 77.17C96.4741 76.95 96.8975 76.84 97.3641 76.84C97.8441 76.84 98.2675 76.95 98.6341 77.17C99.0075 77.3833 99.3008 77.69 99.5141 78.09C99.7341 78.4833 99.8441 78.9467 99.8441 79.48C99.8441 80.0133 99.7341 80.48 99.5141 80.88C99.2941 81.2733 98.9975 81.58 98.6241 81.8C98.2508 82.0133 97.8241 82.12 97.3441 82.12ZM97.3541 81.4C97.6408 81.4 97.9075 81.33 98.1541 81.19C98.4008 81.0433 98.6008 80.8267 98.7541 80.54C98.9075 80.2533 98.9841 79.9 98.9841 79.48C98.9841 79.0533 98.9075 78.7 98.7541 78.42C98.6075 78.1333 98.4108 77.92 98.1641 77.78C97.9241 77.6333 97.6575 77.56 97.3641 77.56C97.0841 77.56 96.8175 77.6333 96.5641 77.78C96.3175 77.92 96.1175 78.1333 95.9641 78.42C95.8175 78.7 95.7441 79.0533 95.7441 79.48C95.7441 79.9 95.8175 80.2533 95.9641 80.54C96.1175 80.8267 96.3141 81.0433 96.5541 81.19C96.8008 81.33 97.0675 81.4 97.3541 81.4ZM100.622 82V76.96H101.382L101.432 77.68C101.592 77.42 101.805 77.2167 102.072 77.07C102.345 76.9167 102.642 76.84 102.962 76.84C103.222 76.84 103.455 76.8767 103.662 76.95C103.875 77.0167 104.062 77.1233 104.222 77.27C104.382 77.41 104.512 77.59 104.612 77.81C104.785 77.5033 105.022 77.2667 105.322 77.1C105.629 76.9267 105.955 76.84 106.302 76.84C106.689 76.84 107.025 76.92 107.312 77.08C107.605 77.2333 107.829 77.47 107.982 77.79C108.142 78.1033 108.222 78.5033 108.222 78.99V82H107.392V79.08C107.392 78.5733 107.289 78.1933 107.082 77.94C106.875 77.6867 106.585 77.56 106.212 77.56C105.952 77.56 105.719 77.63 105.512 77.77C105.305 77.9033 105.142 78.1 105.022 78.36C104.902 78.62 104.842 78.94 104.842 79.32V82H104.002V79.08C104.002 78.5733 103.899 78.1933 103.692 77.94C103.485 77.6867 103.192 77.56 102.812 77.56C102.559 77.56 102.329 77.63 102.122 77.77C101.922 77.9033 101.762 78.1 101.642 78.36C101.522 78.62 101.462 78.94 101.462 79.32V82H100.622ZM109.128 84.2V76.96H109.888L109.958 77.78C110.065 77.62 110.201 77.47 110.368 77.33C110.535 77.1833 110.735 77.0667 110.968 76.98C111.201 76.8867 111.468 76.84 111.768 76.84C112.261 76.84 112.688 76.9567 113.048 77.19C113.415 77.4233 113.698 77.74 113.898 78.14C114.105 78.5333 114.208 78.9833 114.208 79.49C114.208 79.9967 114.105 80.45 113.898 80.85C113.698 81.2433 113.415 81.5533 113.048 81.78C112.681 82.0067 112.251 82.12 111.758 82.12C111.351 82.12 110.991 82.0367 110.678 81.87C110.371 81.7033 110.135 81.47 109.968 81.17V84.2H109.128ZM111.668 81.39C111.995 81.39 112.285 81.31 112.538 81.15C112.791 80.99 112.988 80.77 113.128 80.49C113.275 80.2033 113.348 79.8667 113.348 79.48C113.348 79.1 113.275 78.7667 113.128 78.48C112.988 78.1933 112.791 77.97 112.538 77.81C112.285 77.65 111.995 77.57 111.668 77.57C111.335 77.57 111.041 77.65 110.788 77.81C110.535 77.97 110.338 78.1933 110.198 78.48C110.058 78.7667 109.988 79.1 109.988 79.48C109.988 79.8667 110.058 80.2033 110.198 80.49C110.338 80.77 110.535 80.99 110.788 81.15C111.041 81.31 111.335 81.39 111.668 81.39ZM117.238 82.12C116.771 82.12 116.351 82.0133 115.978 81.8C115.605 81.58 115.311 81.2733 115.098 80.88C114.885 80.48 114.778 80.0167 114.778 79.49C114.778 78.95 114.885 78.4833 115.098 78.09C115.318 77.69 115.615 77.3833 115.988 77.17C116.368 76.95 116.791 76.84 117.258 76.84C117.738 76.84 118.161 76.95 118.528 77.17C118.901 77.3833 119.195 77.69 119.408 78.09C119.628 78.4833 119.738 78.9467 119.738 79.48C119.738 80.0133 119.628 80.48 119.408 80.88C119.188 81.2733 118.891 81.58 118.518 81.8C118.145 82.0133 117.718 82.12 117.238 82.12ZM117.248 81.4C117.535 81.4 117.801 81.33 118.048 81.19C118.295 81.0433 118.495 80.8267 118.648 80.54C118.801 80.2533 118.878 79.9 118.878 79.48C118.878 79.0533 118.801 78.7 118.648 78.42C118.501 78.1333 118.305 77.92 118.058 77.78C117.818 77.6333 117.551 77.56 117.258 77.56C116.978 77.56 116.711 77.6333 116.458 77.78C116.211 77.92 116.011 78.1333 115.858 78.42C115.711 78.7 115.638 79.0533 115.638 79.48C115.638 79.9 115.711 80.2533 115.858 80.54C116.011 80.8267 116.208 81.0433 116.448 81.19C116.695 81.33 116.961 81.4 117.248 81.4ZM120.516 82V76.96H121.276L121.316 77.84C121.476 77.5267 121.702 77.2833 121.996 77.11C122.296 76.93 122.636 76.84 123.016 76.84C123.409 76.84 123.749 76.92 124.036 77.08C124.322 77.2333 124.546 77.47 124.706 77.79C124.866 78.1033 124.946 78.5033 124.946 78.99V82H124.106V79.08C124.106 78.5733 123.992 78.1933 123.766 77.94C123.546 77.6867 123.232 77.56 122.826 77.56C122.546 77.56 122.296 77.63 122.076 77.77C121.856 77.9033 121.679 78.1 121.546 78.36C121.419 78.6133 121.356 78.93 121.356 79.31V82H120.516ZM128.068 82.12C127.594 82.12 127.174 82.01 126.808 81.79C126.448 81.57 126.164 81.2633 125.958 80.87C125.751 80.47 125.648 80.0067 125.648 79.48C125.648 78.9467 125.748 78.4833 125.948 78.09C126.154 77.6967 126.441 77.39 126.808 77.17C127.181 76.95 127.608 76.84 128.088 76.84C128.581 76.84 128.998 76.95 129.338 77.17C129.684 77.39 129.948 77.68 130.128 78.04C130.314 78.3933 130.408 78.7833 130.408 79.21C130.408 79.2767 130.408 79.3467 130.408 79.42C130.408 79.4933 130.404 79.5767 130.398 79.67H126.278V79.02H129.588C129.568 78.56 129.414 78.2 129.128 77.94C128.848 77.68 128.494 77.55 128.068 77.55C127.781 77.55 127.514 77.6167 127.268 77.75C127.028 77.8767 126.834 78.0667 126.688 78.32C126.541 78.5667 126.468 78.8767 126.468 79.25V79.53C126.468 79.9433 126.541 80.29 126.688 80.57C126.841 80.85 127.038 81.06 127.278 81.2C127.524 81.34 127.788 81.41 128.068 81.41C128.421 81.41 128.711 81.3333 128.938 81.18C129.171 81.02 129.338 80.8067 129.438 80.54H130.268C130.188 80.84 130.048 81.11 129.848 81.35C129.648 81.59 129.398 81.78 129.098 81.92C128.804 82.0533 128.461 82.12 128.068 82.12ZM131.141 82V76.96H131.901L131.941 77.84C132.101 77.5267 132.328 77.2833 132.621 77.11C132.921 76.93 133.261 76.84 133.641 76.84C134.035 76.84 134.375 76.92 134.661 77.08C134.948 77.2333 135.171 77.47 135.331 77.79C135.491 78.1033 135.571 78.5033 135.571 78.99V82H134.731V79.08C134.731 78.5733 134.618 78.1933 134.391 77.94C134.171 77.6867 133.858 77.56 133.451 77.56C133.171 77.56 132.921 77.63 132.701 77.77C132.481 77.9033 132.305 78.1 132.171 78.36C132.045 78.6133 131.981 78.93 131.981 79.31V82H131.141ZM138.464 82C138.164 82 137.904 81.9533 137.684 81.86C137.464 81.7667 137.294 81.61 137.174 81.39C137.06 81.1633 137.004 80.86 137.004 80.48V77.67H136.124V76.96H137.004L137.114 75.74H137.844V76.96H139.304V77.67H137.844V80.48C137.844 80.7933 137.907 81.0067 138.034 81.12C138.16 81.2267 138.384 81.28 138.704 81.28H139.244V82H138.464ZM141.9 82.12C141.48 82.12 141.113 82.05 140.8 81.91C140.493 81.77 140.246 81.5767 140.06 81.33C139.88 81.0767 139.77 80.78 139.73 80.44H140.59C140.623 80.6133 140.693 80.7733 140.8 80.92C140.906 81.0667 141.05 81.1867 141.23 81.28C141.416 81.3667 141.643 81.41 141.91 81.41C142.143 81.41 142.336 81.3767 142.49 81.31C142.643 81.2367 142.756 81.14 142.83 81.02C142.91 80.9 142.95 80.77 142.95 80.63C142.95 80.4233 142.9 80.2667 142.8 80.16C142.706 80.0533 142.566 79.97 142.38 79.91C142.193 79.8433 141.966 79.7867 141.7 79.74C141.48 79.7 141.263 79.6467 141.05 79.58C140.836 79.5133 140.646 79.4267 140.48 79.32C140.313 79.2067 140.18 79.07 140.08 78.91C139.986 78.75 139.94 78.5533 139.94 78.32C139.94 78.0333 140.013 77.78 140.16 77.56C140.306 77.3333 140.516 77.1567 140.79 77.03C141.07 76.9033 141.393 76.84 141.76 76.84C142.3 76.84 142.736 76.97 143.07 77.23C143.403 77.49 143.6 77.8667 143.66 78.36H142.83C142.796 78.1067 142.686 77.91 142.5 77.77C142.32 77.6233 142.07 77.55 141.75 77.55C141.436 77.55 141.196 77.6133 141.03 77.74C140.87 77.8667 140.79 78.0333 140.79 78.24C140.79 78.3733 140.833 78.4933 140.92 78.6C141.013 78.7 141.146 78.7867 141.32 78.86C141.5 78.9333 141.72 78.9933 141.98 79.04C142.313 79.1 142.616 79.18 142.89 79.28C143.163 79.38 143.383 79.53 143.55 79.73C143.723 79.9233 143.81 80.2 143.81 80.56C143.81 80.8733 143.73 81.1467 143.57 81.38C143.416 81.6133 143.196 81.7967 142.91 81.93C142.623 82.0567 142.286 82.12 141.9 82.12ZM144.429 76.49L144.299 74.45H145.129L145.009 76.49H144.429ZM10.34 96.12C9.93333 96.12 9.59333 96.05 9.32 95.91C9.04667 95.7633 8.84333 95.5733 8.71 95.34C8.57667 95.1 8.51 94.84 8.51 94.56C8.51 94.22 8.59667 93.9333 8.77 93.7C8.95 93.46 9.2 93.28 9.52 93.16C9.84667 93.0333 10.23 92.97 10.67 92.97H12C12 92.6567 11.95 92.3967 11.85 92.19C11.7567 91.9767 11.6167 91.8167 11.43 91.71C11.25 91.6033 11.0233 91.55 10.75 91.55C10.43 91.55 10.1533 91.63 9.92 91.79C9.68667 91.95 9.54333 92.1867 9.49 92.5H8.63C8.67 92.14 8.79 91.84 8.99 91.6C9.19667 91.3533 9.45667 91.1667 9.77 91.04C10.0833 90.9067 10.41 90.84 10.75 90.84C11.2167 90.84 11.6033 90.9267 11.91 91.1C12.2233 91.2667 12.4567 91.5033 12.61 91.81C12.7633 92.11 12.84 92.4667 12.84 92.88V96H12.09L12.04 95.11C11.9733 95.25 11.8867 95.3833 11.78 95.51C11.68 95.63 11.56 95.7367 11.42 95.83C11.28 95.9167 11.12 95.9867 10.94 96.04C10.7667 96.0933 10.5667 96.12 10.34 96.12ZM10.47 95.41C10.7033 95.41 10.9133 95.3633 11.1 95.27C11.2933 95.17 11.4567 95.0367 11.59 94.87C11.7233 94.6967 11.8233 94.5067 11.89 94.3C11.9633 94.0933 12 93.8767 12 93.65V93.62H10.74C10.4133 93.62 10.15 93.66 9.95 93.74C9.75 93.8133 9.60667 93.92 9.52 94.06C9.43333 94.1933 9.39 94.3467 9.39 94.52C9.39 94.7 9.43 94.8567 9.51 94.99C9.59667 95.1233 9.72 95.2267 9.88 95.3C10.0467 95.3733 10.2433 95.41 10.47 95.41ZM15.9495 96.12C15.4761 96.12 15.0561 96.01 14.6895 95.79C14.3295 95.57 14.0461 95.2633 13.8395 94.87C13.6328 94.47 13.5295 94.0067 13.5295 93.48C13.5295 92.9467 13.6295 92.4833 13.8295 92.09C14.0361 91.6967 14.3228 91.39 14.6895 91.17C15.0628 90.95 15.4895 90.84 15.9695 90.84C16.4628 90.84 16.8795 90.95 17.2195 91.17C17.5661 91.39 17.8295 91.68 18.0095 92.04C18.1961 92.3933 18.2895 92.7833 18.2895 93.21C18.2895 93.2767 18.2895 93.3467 18.2895 93.42C18.2895 93.4933 18.2861 93.5767 18.2795 93.67H14.1595V93.02H17.4695C17.4495 92.56 17.2961 92.2 17.0095 91.94C16.7295 91.68 16.3761 91.55 15.9495 91.55C15.6628 91.55 15.3961 91.6167 15.1495 91.75C14.9095 91.8767 14.7161 92.0667 14.5695 92.32C14.4228 92.5667 14.3495 92.8767 14.3495 93.25V93.53C14.3495 93.9433 14.4228 94.29 14.5695 94.57C14.7228 94.85 14.9195 95.06 15.1595 95.2C15.4061 95.34 15.6695 95.41 15.9495 95.41C16.3028 95.41 16.5928 95.3333 16.8195 95.18C17.0528 95.02 17.2195 94.8067 17.3195 94.54H18.1495C18.0695 94.84 17.9295 95.11 17.7295 95.35C17.5295 95.59 17.2795 95.78 16.9795 95.92C16.6861 96.0533 16.3428 96.12 15.9495 96.12ZM20.923 96.12C20.503 96.12 20.1364 96.05 19.823 95.91C19.5164 95.77 19.2697 95.5767 19.083 95.33C18.903 95.0767 18.793 94.78 18.753 94.44H19.613C19.6464 94.6133 19.7164 94.7733 19.823 94.92C19.9297 95.0667 20.073 95.1867 20.253 95.28C20.4397 95.3667 20.6664 95.41 20.933 95.41C21.1664 95.41 21.3597 95.3767 21.513 95.31C21.6664 95.2367 21.7797 95.14 21.853 95.02C21.933 94.9 21.973 94.77 21.973 94.63C21.973 94.4233 21.923 94.2667 21.823 94.16C21.7297 94.0533 21.5897 93.97 21.403 93.91C21.2164 93.8433 20.9897 93.7867 20.723 93.74C20.503 93.7 20.2864 93.6467 20.073 93.58C19.8597 93.5133 19.6697 93.4267 19.503 93.32C19.3364 93.2067 19.203 93.07 19.103 92.91C19.0097 92.75 18.963 92.5533 18.963 92.32C18.963 92.0333 19.0364 91.78 19.183 91.56C19.3297 91.3333 19.5397 91.1567 19.813 91.03C20.093 90.9033 20.4164 90.84 20.783 90.84C21.323 90.84 21.7597 90.97 22.093 91.23C22.4264 91.49 22.623 91.8667 22.683 92.36H21.853C21.8197 92.1067 21.7097 91.91 21.523 91.77C21.343 91.6233 21.093 91.55 20.773 91.55C20.4597 91.55 20.2197 91.6133 20.053 91.74C19.893 91.8667 19.813 92.0333 19.813 92.24C19.813 92.3733 19.8564 92.4933 19.943 92.6C20.0364 92.7 20.1697 92.7867 20.343 92.86C20.523 92.9333 20.743 92.9933 21.003 93.04C21.3364 93.1 21.6397 93.18 21.913 93.28C22.1864 93.38 22.4064 93.53 22.573 93.73C22.7464 93.9233 22.833 94.2 22.833 94.56C22.833 94.8733 22.753 95.1467 22.593 95.38C22.4397 95.6133 22.2197 95.7967 21.933 95.93C21.6464 96.0567 21.3097 96.12 20.923 96.12ZM25.398 96C25.098 96 24.838 95.9533 24.618 95.86C24.398 95.7667 24.228 95.61 24.108 95.39C23.9946 95.1633 23.938 94.86 23.938 94.48V91.67H23.058V90.96H23.938L24.048 89.74H24.778V90.96H26.238V91.67H24.778V94.48C24.778 94.7933 24.8413 95.0067 24.968 95.12C25.0946 95.2267 25.318 95.28 25.638 95.28H26.178V96H25.398ZM26.934 96V88.8H27.774V91.81C27.9407 91.51 28.174 91.2733 28.474 91.1C28.7807 90.9267 29.114 90.84 29.474 90.84C29.8607 90.84 30.1973 90.92 30.484 91.08C30.7707 91.2333 30.9907 91.47 31.144 91.79C31.2973 92.11 31.374 92.5133 31.374 93V96H30.544V93.09C30.544 92.5833 30.4373 92.2033 30.224 91.95C30.0107 91.69 29.7007 91.56 29.294 91.56C29.0073 91.56 28.7473 91.63 28.514 91.77C28.2873 91.91 28.1073 92.11 27.974 92.37C27.8407 92.63 27.774 92.95 27.774 93.33V96H26.934ZM34.4959 96.12C34.0226 96.12 33.6026 96.01 33.2359 95.79C32.8759 95.57 32.5926 95.2633 32.3859 94.87C32.1793 94.47 32.0759 94.0067 32.0759 93.48C32.0759 92.9467 32.1759 92.4833 32.3759 92.09C32.5826 91.6967 32.8693 91.39 33.2359 91.17C33.6093 90.95 34.0359 90.84 34.5159 90.84C35.0093 90.84 35.4259 90.95 35.7659 91.17C36.1126 91.39 36.3759 91.68 36.5559 92.04C36.7426 92.3933 36.8359 92.7833 36.8359 93.21C36.8359 93.2767 36.8359 93.3467 36.8359 93.42C36.8359 93.4933 36.8326 93.5767 36.8259 93.67H32.7059V93.02H36.0159C35.9959 92.56 35.8426 92.2 35.5559 91.94C35.2759 91.68 34.9226 91.55 34.4959 91.55C34.2093 91.55 33.9426 91.6167 33.6959 91.75C33.4559 91.8767 33.2626 92.0667 33.1159 92.32C32.9693 92.5667 32.8959 92.8767 32.8959 93.25V93.53C32.8959 93.9433 32.9693 94.29 33.1159 94.57C33.2693 94.85 33.4659 95.06 33.7059 95.2C33.9526 95.34 34.2159 95.41 34.4959 95.41C34.8493 95.41 35.1393 95.3333 35.3659 95.18C35.5993 95.02 35.7659 94.8067 35.8659 94.54H36.6959C36.6159 94.84 36.4759 95.11 36.2759 95.35C36.0759 95.59 35.8259 95.78 35.5259 95.92C35.2326 96.0533 34.8893 96.12 34.4959 96.12ZM39.3835 96C39.0835 96 38.8235 95.9533 38.6035 95.86C38.3835 95.7667 38.2135 95.61 38.0935 95.39C37.9802 95.1633 37.9235 94.86 37.9235 94.48V91.67H37.0435V90.96H37.9235L38.0335 89.74H38.7635V90.96H40.2235V91.67H38.7635V94.48C38.7635 94.7933 38.8268 95.0067 38.9535 95.12C39.0802 95.2267 39.3035 95.28 39.6235 95.28H40.1635V96H39.3835ZM40.9995 96V90.96H41.8395V96H40.9995ZM41.4195 89.89C41.2529 89.89 41.1129 89.8367 40.9995 89.73C40.8929 89.6167 40.8395 89.4767 40.8395 89.31C40.8395 89.1433 40.8929 89.01 40.9995 88.91C41.1129 88.8033 41.2529 88.75 41.4195 88.75C41.5795 88.75 41.7162 88.8033 41.8295 88.91C41.9429 89.01 41.9995 89.1433 41.9995 89.31C41.9995 89.4767 41.9429 89.6167 41.8295 89.73C41.7162 89.8367 41.5795 89.89 41.4195 89.89ZM45.1919 96.12C44.7185 96.12 44.2919 96.01 43.9119 95.79C43.5385 95.57 43.2452 95.2633 43.0319 94.87C42.8185 94.47 42.7119 94.01 42.7119 93.49C42.7119 92.9567 42.8185 92.4933 43.0319 92.1C43.2452 91.7067 43.5385 91.4 43.9119 91.18C44.2919 90.9533 44.7185 90.84 45.1919 90.84C45.7919 90.84 46.2919 90.9967 46.6919 91.31C47.0919 91.6167 47.3452 92.03 47.4519 92.55H46.5919C46.5252 92.2367 46.3619 91.9933 46.1019 91.82C45.8419 91.6467 45.5352 91.56 45.1819 91.56C44.8952 91.56 44.6285 91.6333 44.3819 91.78C44.1352 91.92 43.9385 92.1333 43.7919 92.42C43.6452 92.7067 43.5719 93.06 43.5719 93.48C43.5719 93.7933 43.6152 94.0733 43.7019 94.32C43.7885 94.56 43.9052 94.76 44.0519 94.92C44.1985 95.08 44.3685 95.2033 44.5619 95.29C44.7619 95.37 44.9685 95.41 45.1819 95.41C45.4219 95.41 45.6385 95.3733 45.8319 95.3C46.0252 95.22 46.1885 95.1033 46.3219 94.95C46.4552 94.7967 46.5452 94.6167 46.5919 94.41H47.4519C47.3452 94.9167 47.0885 95.33 46.6819 95.65C46.2819 95.9633 45.7852 96.12 45.1919 96.12ZM48.5445 96.05C48.3779 96.05 48.2379 95.9967 48.1245 95.89C48.0179 95.7767 47.9645 95.64 47.9645 95.48C47.9645 95.32 48.0179 95.1867 48.1245 95.08C48.2379 94.9667 48.3779 94.91 48.5445 94.91C48.7112 94.91 48.8479 94.9667 48.9545 95.08C49.0612 95.1867 49.1145 95.32 49.1145 95.48C49.1145 95.64 49.0612 95.7767 48.9545 95.89C48.8479 95.9967 48.7112 96.05 48.5445 96.05Z" fill="white"/>
<rect x="0.5" y="112.5" width="175" height="25" rx="9.5" stroke="white" stroke-opacity="0.2"/>
<path d="M8.75 128V121H9.59V128H8.75ZM12.5438 128.12C12.1238 128.12 11.7571 128.05 11.4438 127.91C11.1371 127.77 10.8904 127.577 10.7038 127.33C10.5238 127.077 10.4138 126.78 10.3738 126.44H11.2338C11.2671 126.613 11.3371 126.773 11.4438 126.92C11.5504 127.067 11.6938 127.187 11.8738 127.28C12.0604 127.367 12.2871 127.41 12.5538 127.41C12.7871 127.41 12.9804 127.377 13.1338 127.31C13.2871 127.237 13.4004 127.14 13.4738 127.02C13.5538 126.9 13.5938 126.77 13.5938 126.63C13.5938 126.423 13.5438 126.267 13.4438 126.16C13.3504 126.053 13.2104 125.97 13.0238 125.91C12.8371 125.843 12.6104 125.787 12.3438 125.74C12.1238 125.7 11.9071 125.647 11.6938 125.58C11.4804 125.513 11.2904 125.427 11.1238 125.32C10.9571 125.207 10.8238 125.07 10.7238 124.91C10.6304 124.75 10.5838 124.553 10.5838 124.32C10.5838 124.033 10.6571 123.78 10.8038 123.56C10.9504 123.333 11.1604 123.157 11.4338 123.03C11.7138 122.903 12.0371 122.84 12.4038 122.84C12.9438 122.84 13.3804 122.97 13.7138 123.23C14.0471 123.49 14.2438 123.867 14.3038 124.36H13.4738C13.4404 124.107 13.3304 123.91 13.1438 123.77C12.9638 123.623 12.7138 123.55 12.3938 123.55C12.0804 123.55 11.8404 123.613 11.6738 123.74C11.5138 123.867 11.4338 124.033 11.4338 124.24C11.4338 124.373 11.4771 124.493 11.5638 124.6C11.6571 124.7 11.7904 124.787 11.9638 124.86C12.1438 124.933 12.3638 124.993 12.6238 125.04C12.9571 125.1 13.2604 125.18 13.5338 125.28C13.8071 125.38 14.0271 125.53 14.1938 125.73C14.3671 125.923 14.4538 126.2 14.4538 126.56C14.4538 126.873 14.3738 127.147 14.2138 127.38C14.0604 127.613 13.8404 127.797 13.5538 127.93C13.2671 128.057 12.9304 128.12 12.5438 128.12ZM17.5995 128V122.96H18.4395V128H17.5995ZM18.0195 121.89C17.8529 121.89 17.7129 121.837 17.5995 121.73C17.4929 121.617 17.4395 121.477 17.4395 121.31C17.4395 121.143 17.4929 121.01 17.5995 120.91C17.7129 120.803 17.8529 120.75 18.0195 120.75C18.1795 120.75 18.3162 120.803 18.4295 120.91C18.5429 121.01 18.5995 121.143 18.5995 121.31C18.5995 121.477 18.5429 121.617 18.4295 121.73C18.3162 121.837 18.1795 121.89 18.0195 121.89ZM21.5019 128C21.2019 128 20.9419 127.953 20.7219 127.86C20.5019 127.767 20.3319 127.61 20.2119 127.39C20.0985 127.163 20.0419 126.86 20.0419 126.48V123.67H19.1619V122.96H20.0419L20.1519 121.74H20.8819V122.96H22.3419V123.67H20.8819V126.48C20.8819 126.793 20.9452 127.007 21.0719 127.12C21.1985 127.227 21.4219 127.28 21.7419 127.28H22.2819V128H21.5019ZM26.9341 128.12C26.5275 128.12 26.1875 128.05 25.9141 127.91C25.6408 127.763 25.4375 127.573 25.3041 127.34C25.1708 127.1 25.1041 126.84 25.1041 126.56C25.1041 126.22 25.1908 125.933 25.3641 125.7C25.5441 125.46 25.7941 125.28 26.1141 125.16C26.4408 125.033 26.8241 124.97 27.2641 124.97H28.5941C28.5941 124.657 28.5441 124.397 28.4441 124.19C28.3508 123.977 28.2108 123.817 28.0241 123.71C27.8441 123.603 27.6175 123.55 27.3441 123.55C27.0241 123.55 26.7475 123.63 26.5141 123.79C26.2808 123.95 26.1375 124.187 26.0841 124.5H25.2241C25.2641 124.14 25.3841 123.84 25.5841 123.6C25.7908 123.353 26.0508 123.167 26.3641 123.04C26.6775 122.907 27.0041 122.84 27.3441 122.84C27.8108 122.84 28.1975 122.927 28.5041 123.1C28.8175 123.267 29.0508 123.503 29.2041 123.81C29.3575 124.11 29.4341 124.467 29.4341 124.88V128H28.6841L28.6341 127.11C28.5675 127.25 28.4808 127.383 28.3741 127.51C28.2741 127.63 28.1541 127.737 28.0141 127.83C27.8741 127.917 27.7141 127.987 27.5341 128.04C27.3608 128.093 27.1608 128.12 26.9341 128.12ZM27.0641 127.41C27.2975 127.41 27.5075 127.363 27.6941 127.27C27.8875 127.17 28.0508 127.037 28.1841 126.87C28.3175 126.697 28.4175 126.507 28.4841 126.3C28.5575 126.093 28.5941 125.877 28.5941 125.65V125.62H27.3341C27.0075 125.62 26.7441 125.66 26.5441 125.74C26.3441 125.813 26.2008 125.92 26.1141 126.06C26.0275 126.193 25.9841 126.347 25.9841 126.52C25.9841 126.7 26.0241 126.857 26.1041 126.99C26.1908 127.123 26.3141 127.227 26.4741 127.3C26.6408 127.373 26.8375 127.41 27.0641 127.41ZM30.3336 128V122.96H31.0936L31.1336 123.84C31.2936 123.527 31.5203 123.283 31.8136 123.11C32.1136 122.93 32.4536 122.84 32.8336 122.84C33.2269 122.84 33.5669 122.92 33.8536 123.08C34.1403 123.233 34.3636 123.47 34.5236 123.79C34.6836 124.103 34.7636 124.503 34.7636 124.99V128H33.9236V125.08C33.9236 124.573 33.8103 124.193 33.5836 123.94C33.3636 123.687 33.0503 123.56 32.6436 123.56C32.3636 123.56 32.1136 123.63 31.8936 123.77C31.6736 123.903 31.4969 124.1 31.3636 124.36C31.2369 124.613 31.1736 124.93 31.1736 125.31V128H30.3336ZM35.7558 128V122.96H36.5958V128H35.7558ZM36.1758 121.89C36.0091 121.89 35.8691 121.837 35.7558 121.73C35.6491 121.617 35.5958 121.477 35.5958 121.31C35.5958 121.143 35.6491 121.01 35.7558 120.91C35.8691 120.803 36.0091 120.75 36.1758 120.75C36.3358 120.75 36.4724 120.803 36.5858 120.91C36.6991 121.01 36.7558 121.143 36.7558 121.31C36.7558 121.477 36.6991 121.617 36.5858 121.73C36.4724 121.837 36.3358 121.89 36.1758 121.89ZM37.6781 128V122.96H38.4381L38.4881 123.68C38.6481 123.42 38.8615 123.217 39.1281 123.07C39.4015 122.917 39.6981 122.84 40.0181 122.84C40.2781 122.84 40.5115 122.877 40.7181 122.95C40.9315 123.017 41.1181 123.123 41.2781 123.27C41.4381 123.41 41.5681 123.59 41.6681 123.81C41.8415 123.503 42.0781 123.267 42.3781 123.1C42.6848 122.927 43.0115 122.84 43.3581 122.84C43.7448 122.84 44.0815 122.92 44.3681 123.08C44.6615 123.233 44.8848 123.47 45.0381 123.79C45.1981 124.103 45.2781 124.503 45.2781 124.99V128H44.4481V125.08C44.4481 124.573 44.3448 124.193 44.1381 123.94C43.9315 123.687 43.6415 123.56 43.2681 123.56C43.0081 123.56 42.7748 123.63 42.5681 123.77C42.3615 123.903 42.1981 124.1 42.0781 124.36C41.9581 124.62 41.8981 124.94 41.8981 125.32V128H41.0581V125.08C41.0581 124.573 40.9548 124.193 40.7481 123.94C40.5415 123.687 40.2481 123.56 39.8681 123.56C39.6148 123.56 39.3848 123.63 39.1781 123.77C38.9781 123.903 38.8181 124.1 38.6981 124.36C38.5781 124.62 38.5181 124.94 38.5181 125.32V128H37.6781ZM47.8244 128.12C47.4177 128.12 47.0777 128.05 46.8044 127.91C46.531 127.763 46.3277 127.573 46.1944 127.34C46.061 127.1 45.9944 126.84 45.9944 126.56C45.9944 126.22 46.081 125.933 46.2544 125.7C46.4344 125.46 46.6844 125.28 47.0044 125.16C47.331 125.033 47.7144 124.97 48.1544 124.97H49.4844C49.4844 124.657 49.4344 124.397 49.3344 124.19C49.241 123.977 49.101 123.817 48.9144 123.71C48.7344 123.603 48.5077 123.55 48.2344 123.55C47.9144 123.55 47.6377 123.63 47.4044 123.79C47.171 123.95 47.0277 124.187 46.9744 124.5H46.1144C46.1544 124.14 46.2744 123.84 46.4744 123.6C46.681 123.353 46.941 123.167 47.2544 123.04C47.5677 122.907 47.8944 122.84 48.2344 122.84C48.701 122.84 49.0877 122.927 49.3944 123.1C49.7077 123.267 49.941 123.503 50.0944 123.81C50.2477 124.11 50.3244 124.467 50.3244 124.88V128H49.5744L49.5244 127.11C49.4577 127.25 49.371 127.383 49.2644 127.51C49.1644 127.63 49.0444 127.737 48.9044 127.83C48.7644 127.917 48.6044 127.987 48.4244 128.04C48.251 128.093 48.051 128.12 47.8244 128.12ZM47.9544 127.41C48.1877 127.41 48.3977 127.363 48.5844 127.27C48.7777 127.17 48.941 127.037 49.0744 126.87C49.2077 126.697 49.3077 126.507 49.3744 126.3C49.4477 126.093 49.4844 125.877 49.4844 125.65V125.62H48.2244C47.8977 125.62 47.6344 125.66 47.4344 125.74C47.2344 125.813 47.091 125.92 47.0044 126.06C46.9177 126.193 46.8744 126.347 46.8744 126.52C46.8744 126.7 46.9144 126.857 46.9944 126.99C47.081 127.123 47.2044 127.227 47.3644 127.3C47.531 127.373 47.7277 127.41 47.9544 127.41ZM53.0671 128C52.7671 128 52.5071 127.953 52.2871 127.86C52.0671 127.767 51.8971 127.61 51.7771 127.39C51.6638 127.163 51.6071 126.86 51.6071 126.48V123.67H50.7271V122.96H51.6071L51.7171 121.74H52.4471V122.96H53.9071V123.67H52.4471V126.48C52.4471 126.793 52.5104 127.007 52.6371 127.12C52.7638 127.227 52.9871 127.28 53.3071 127.28H53.8471V128H53.0671ZM56.6764 128.12C56.2031 128.12 55.7831 128.01 55.4164 127.79C55.0564 127.57 54.7731 127.263 54.5664 126.87C54.3597 126.47 54.2564 126.007 54.2564 125.48C54.2564 124.947 54.3564 124.483 54.5564 124.09C54.7631 123.697 55.0497 123.39 55.4164 123.17C55.7897 122.95 56.2164 122.84 56.6964 122.84C57.1897 122.84 57.6064 122.95 57.9464 123.17C58.2931 123.39 58.5564 123.68 58.7364 124.04C58.9231 124.393 59.0164 124.783 59.0164 125.21C59.0164 125.277 59.0164 125.347 59.0164 125.42C59.0164 125.493 59.0131 125.577 59.0064 125.67H54.8864V125.02H58.1964C58.1764 124.56 58.0231 124.2 57.7364 123.94C57.4564 123.68 57.1031 123.55 56.6764 123.55C56.3897 123.55 56.1231 123.617 55.8764 123.75C55.6364 123.877 55.4431 124.067 55.2964 124.32C55.1497 124.567 55.0764 124.877 55.0764 125.25V125.53C55.0764 125.943 55.1497 126.29 55.2964 126.57C55.4497 126.85 55.6464 127.06 55.8864 127.2C56.1331 127.34 56.3964 127.41 56.6764 127.41C57.0297 127.41 57.3197 127.333 57.5464 127.18C57.7797 127.02 57.9464 126.807 58.0464 126.54H58.8764C58.7964 126.84 58.6564 127.11 58.4564 127.35C58.2564 127.59 58.0064 127.78 57.7064 127.92C57.4131 128.053 57.0697 128.12 56.6764 128.12ZM61.97 128.12C61.4833 128.12 61.0567 128.007 60.69 127.78C60.3233 127.547 60.04 127.23 59.84 126.83C59.64 126.43 59.54 125.977 59.54 125.47C59.54 124.963 59.64 124.513 59.84 124.12C60.04 123.72 60.3233 123.407 60.69 123.18C61.0633 122.953 61.4933 122.84 61.98 122.84C62.3933 122.84 62.7533 122.923 63.06 123.09C63.3733 123.257 63.6133 123.49 63.78 123.79V120.8H64.62V128H63.86L63.79 127.17C63.6833 127.337 63.5467 127.493 63.38 127.64C63.2133 127.78 63.0133 127.897 62.78 127.99C62.5467 128.077 62.2767 128.12 61.97 128.12ZM62.07 127.39C62.4033 127.39 62.6967 127.31 62.95 127.15C63.2033 126.99 63.4 126.77 63.54 126.49C63.68 126.203 63.75 125.867 63.75 125.48C63.75 125.1 63.68 124.767 63.54 124.48C63.4 124.193 63.2033 123.97 62.95 123.81C62.6967 123.65 62.4033 123.57 62.07 123.57C61.7433 123.57 61.4533 123.65 61.2 123.81C60.9467 123.97 60.75 124.193 60.61 124.48C60.47 124.767 60.4 125.1 60.4 125.48C60.4 125.867 60.47 126.203 60.61 126.49C60.75 126.77 60.9467 126.99 61.2 127.15C61.4533 127.31 61.7433 127.39 62.07 127.39ZM66.4995 125.99L66.4595 124.43H66.7695C67.0495 124.43 67.3162 124.413 67.5695 124.38C67.8295 124.34 68.0562 124.27 68.2495 124.17C68.4495 124.063 68.6062 123.91 68.7195 123.71C68.8395 123.51 68.8995 123.25 68.8995 122.93C68.8995 122.65 68.8395 122.41 68.7195 122.21C68.5995 122.01 68.4329 121.857 68.2195 121.75C68.0062 121.643 67.7595 121.59 67.4795 121.59C67.1995 121.59 66.9529 121.643 66.7395 121.75C66.5262 121.857 66.3595 122.007 66.2395 122.2C66.1262 122.387 66.0695 122.613 66.0695 122.88H65.2695C65.2695 122.48 65.3629 122.13 65.5495 121.83C65.7362 121.53 65.9962 121.297 66.3295 121.13C66.6629 120.963 67.0462 120.88 67.4795 120.88C67.9129 120.88 68.2962 120.963 68.6295 121.13C68.9695 121.297 69.2329 121.533 69.4195 121.84C69.6129 122.147 69.7095 122.51 69.7095 122.93C69.7095 123.423 69.6029 123.823 69.3895 124.13C69.1829 124.437 68.8962 124.66 68.5295 124.8C68.1629 124.94 67.7395 125.01 67.2595 125.01L67.2295 125.99H66.4995ZM66.8595 128.05C66.6929 128.05 66.5529 127.997 66.4395 127.89C66.3329 127.777 66.2795 127.64 66.2795 127.48C66.2795 127.32 66.3329 127.187 66.4395 127.08C66.5529 126.967 66.6929 126.91 66.8595 126.91C67.0262 126.91 67.1629 126.967 67.2695 127.08C67.3762 127.187 67.4295 127.32 67.4295 127.48C67.4295 127.64 67.3762 127.777 67.2695 127.89C67.1629 127.997 67.0262 128.05 66.8595 128.05Z" fill="white" fill-opacity="0.5"/>
<path d="M162 121.5V128.5M158.5 125H165.5" stroke="white" stroke-opacity="0.5" stroke-linecap="round" stroke-linejoin="round"/>
</svg>
